<svg width="34" height="19" viewBox="0 0 34 19" fill="none" xmlns="http://www.w3.org/2000/svg">
<path d="M5.7261 2.31599C6.96093 1.95277 10.7757 8.08166 12.1959 8.33472C12.2539 8.34505 12.311 8.33287 12.3654 8.31043C13.0796 8.01584 13.6083 7.3868 14.0476 7.14451C14.5351 6.87566 15.1011 6.26236 15.5938 6.7156C15.6289 6.74787 15.6571 6.78838 15.6728 6.8334C16.0233 7.84064 13.2455 9.0533 14.9722 9.73357C15.461 9.92613 18.1706 6.59587 18.4251 6.13628C19.1576 4.81329 20.0436 3.4118 20.5634 3.0897C20.6067 3.06287 20.6473 3.03705 20.6862 3.00417C21.6738 2.16991 25.2553 0.565307 26.656 1.11064C27.4921 1.43616 19.8268 6.47115 19.1846 8.74506C19.1776 8.77005 19.1685 8.79552 19.1595 8.81986C18.6583 10.1733 23.5195 8.422 25.9345 7.96272C27.2793 7.70694 28.113 8.15734 26.656 8.99182C25.2515 9.7209 21.9248 9.99074 21.5457 11.5077C21.5326 11.5602 21.5116 11.6119 21.4971 11.664C21.2589 12.5152 25.2754 12.5152 26.656 12.5152C27.1133 12.5152 32.7752 13.5351 32.9602 14.555C33.5486 16.4094 27.4475 14.4699 25.9345 14.0991C24.4214 13.7282 19.4508 11.588 19.175 13.6278C19.175 14.5892 21.498 14.5093 21.8028 16.3725C21.8067 16.3965 21.8085 16.4218 21.8085 16.4462C21.8076 17.3897 21.7669 18.0765 21.0243 18.1711C19.2759 18.3936 18.986 15.9372 17.9773 14.9173C17.2853 14.3621 16.4324 14.4696 15.6829 14.6496C15.3401 14.7319 15.175 15.1715 15.1932 15.5235C15.2118 15.8836 15.0989 16.2468 14.8041 16.4094C14.4806 16.5878 14.6241 17.7966 14.111 17.9701L14.1094 17.9707C14.0689 17.9844 14.0272 17.9985 13.9848 18.0037C13.6713 18.0423 13.6159 17.2203 13.3409 17.0127C13.2656 16.9559 13.165 17.0376 13.0734 17.015C12.8747 16.966 13.6122 15.6901 12.857 15.0446C12.7486 14.952 12.5934 14.9403 12.4666 15.0055C11.4645 15.5208 11.2224 16.9657 10.4332 16.9657C9.62307 16.9657 10.8122 15.0627 11.5312 14.2687C11.5824 14.2121 11.6236 14.1467 11.6406 14.0722C11.7527 13.5826 11.6183 12.9862 11.3584 12.6208C11.3069 12.5485 11.2301 12.498 11.1421 12.4866C10.1469 12.3579 8.17112 13.8538 7.36775 14.9172C6.61125 15.9186 2.73372 17.8187 1.85955 16.0385C0.985365 14.2583 6.65072 12.5152 7.74344 12.5152C8.42612 12.5152 9.86176 12.0621 10.3208 11.0198C10.4107 10.8156 10.2957 10.5906 10.0979 10.4874L10.0915 10.484C9.29183 10.0667 9.0825 9.95745 8.54659 10.4172C8.07793 10.8193 7.66246 10.8263 7.07304 10.6608C6.80475 10.5854 5.8122 9.61535 7.07304 8.78087C8.33387 7.94639 8.49994 8.99182 9.50861 8.99182C10.008 8.99182 10.1514 8.89799 10.2732 8.67696C10.3794 8.48423 10.3227 8.24072 10.1611 8.09139L9.13601 7.14451C8.54659 6.73542 6.77833 5.40972 5.8942 4.68997C5.01007 3.97023 5.54072 2.37053 5.7261 2.31599Z" fill="#626CDB" stroke="#626CDB" stroke-linecap="round"/>
<ellipse cx="16.209" cy="3.04539" rx="0.884129" ry="1.22727" fill="#626CDB"/>
<ellipse cx="4.71533" cy="8.77274" rx="0.589419" ry="0.40909" fill="#626CDB"/>
<ellipse cx="28.5868" cy="5.90912" rx="0.884129" ry="0.81818" fill="#626CDB"/>
<ellipse cx="12.0831" cy="18.5909" rx="0.29471" ry="0.40909" fill="#626CDB"/>
<ellipse cx="0.29471" cy="14.4999" rx="0.29471" ry="0.40909" fill="#626CDB"/>
<ellipse cx="31.5339" cy="16.9545" rx="0.29471" ry="0.40909" fill="#626CDB"/>
</svg>
