<svg width="30" height="35" viewBox="0 0 30 35" fill="none" xmlns="http://www.w3.org/2000/svg">
<path d="M9.28615 3.85794L10.3835 5.86971C10.4273 5.95003 10.5115 6 10.603 6H22.0176C22.0655 6 22.1123 5.98626 22.1526 5.96041L24.1385 4.68614C24.3588 4.5448 24.2413 4.20288 23.9807 4.22677L19.3616 4.65019C19.2543 4.66003 19.1527 4.59999 19.1096 4.50122L18.1329 2.26292C18.0723 2.12392 17.9028 2.0705 17.7734 2.14958L13.7482 4.60942C13.6885 4.6459 13.6163 4.6557 13.549 4.63644L9.57447 3.4979C9.36117 3.43679 9.1799 3.66316 9.28615 3.85794Z" fill="#BAD9FA" stroke="#BAD9FA" stroke-width="3" stroke-linecap="round"/>
<circle cx="15" cy="20" r="15" fill="#626CDB"/>
<path d="M5 17C3.71432 22.25 5.2 27.7 11 29.5" stroke="#BAD9FA" stroke-width="3" stroke-linecap="round"/>
<circle cx="7.75" cy="12.75" r="1.75" fill="#BAD9FA"/>
</svg>
