<svg width="21" height="25" viewBox="0 0 21 25" fill="none" xmlns="http://www.w3.org/2000/svg">
<path d="M6.58738 3.45388L7.24703 4.65799C7.29091 4.73808 7.37496 4.78788 7.46628 4.78788H15.3906C15.4383 4.78788 15.485 4.77423 15.5252 4.74855L16.6344 4.03987C16.8552 3.89884 16.738 3.55642 16.4771 3.58023L13.6067 3.84221C13.4995 3.85199 13.3982 3.79213 13.355 3.6936L12.7275 2.2618C12.6667 2.12323 12.4978 2.06993 12.3685 2.14858L9.65158 3.80176C9.59204 3.83799 9.52008 3.84772 9.45306 3.8286L6.87521 3.09335C6.66176 3.03247 6.48074 3.25922 6.58738 3.45388Z" fill="#BAD9FA" stroke="#BAD9FA" stroke-width="3" stroke-linecap="round"/>
<ellipse cx="10.5" cy="14.5455" rx="10.5" ry="10.4545" fill="#626CDB"/>
<path d="M3.5 12.4546C2.60003 16.1137 3.64 19.9122 7.7 21.1667" stroke="#BAD9FA" stroke-width="3" stroke-linecap="round"/>
<ellipse cx="5.425" cy="9.4924" rx="1.225" ry="1.2197" fill="#BAD9FA"/>
</svg>
