<svg width="19" height="25" viewBox="0 0 19 25" fill="none" xmlns="http://www.w3.org/2000/svg">
<path d="M8 11V6" stroke="black" stroke-linecap="round"/>
<path d="M10 13.0321L14.9999 13" stroke="black" stroke-linecap="round"/>
<path d="M8 15L8.06373 19.9996" stroke="black" stroke-linecap="round"/>
<path d="M10 15L12.0372 17.2022" stroke="black" stroke-linecap="round"/>
<path d="M10 10.6813L12.4846 9.00001" stroke="black" stroke-linecap="round"/>
<path d="M6.20187 11.0376L4 9" stroke="black" stroke-linecap="round"/>
<path d="M5.50624 15L3 16.6489" stroke="black" stroke-linecap="round"/>
<path d="M5.99963 13.0699L1 13" stroke="black" stroke-linecap="round"/>
<path d="M13 3.92777C11.729 3.38742 12.1667 3.45455 11.4634 2C10.8333 3.45455 11.2737 3.39904 10 3.92777C11.3864 4.16388 10.8333 4.78788 11.4634 6C12.1667 4.78788 11.5689 4.28798 13 3.92777Z" stroke="black"/>
<path d="M5 20.9278C3.72898 20.3874 4.16667 20.4545 3.46341 19C2.83333 20.4545 3.2737 20.399 2 20.9278C3.38638 21.1639 2.83333 21.7879 3.46341 23C4.16667 21.7879 3.56891 21.288 5 20.9278Z" stroke="black"/>
<path d="M14 7C15.2204 6.56077 15.1074 6.09378 15.4026 5C15.8661 6.11569 16.1768 6.60124 17 7C15.7764 7.7506 15.6038 8.19816 15.4026 9C14.9165 7.84621 15.0618 7.36681 14 7Z" stroke="black"/>
</svg>
