<svg width="192" height="211" viewBox="0 0 192 211" fill="none" xmlns="http://www.w3.org/2000/svg">
<rect x="26" y="170" width="142" height="34" fill="#C06800"/>
<rect x="26" y="164" width="142" height="21" fill="#DB7800"/>
<rect x="26" y="194" width="142" height="10" fill="#DB7800"/>
<rect x="26" y="11" width="142" height="36" fill="#DB7800"/>
<path d="M9 47H52V6C52 2.68629 49.3137 0 46 0H15C11.6863 0 9 2.68629 9 6V47Z" fill="#FFC300"/>
<path d="M140 47H182V6C182 2.68629 179.314 0 176 0H146C142.686 0 140 2.68629 140 6V47Z" fill="#FFF400"/>
<path d="M9 164H52V205C52 208.314 49.3137 211 46 211H15C11.6863 211 9 208.314 9 205V164Z" fill="#F9A700"/>
<path d="M140 164H182V204C182 207.314 179.314 210 176 210H146C142.686 210 140 207.314 140 204V164Z" fill="#F9A700"/>
<rect x="9" y="62" width="173" height="107" fill="#FBCB31"/>
<rect x="22" y="62" width="146" height="91" fill="#975100"/>
<rect x="140" y="38" width="42" height="9" fill="#FFC300"/>
<rect x="9" y="73" width="17" height="28" fill="#F9A700"/>
<rect x="161" y="77" width="21" height="24" fill="#F9A700"/>
<rect x="22" y="58" width="146" height="56" fill="#794200"/>
<rect y="43" width="192" height="36" rx="6" fill="#FFF400"/>
<path d="M117.877 63.7067L192 48V73C192 76.3137 189.314 79 186 79H122.781C119.178 79 116.387 75.846 116.826 72.2693L117.877 63.7067Z" fill="#FFC300"/>
<rect x="64" y="35" width="58" height="51" rx="6" fill="#FFF400"/>
<path d="M64 68.4054L122 55V80C122 83.3137 119.314 86 116 86H70C66.6863 86 64 83.3137 64 80V68.4054Z" fill="#FFC300"/>
<path d="M92 51C87.5817 51 84 53.9649 84 57.6223C84 60.8159 86.2917 62.5412 88.7848 63.3371L86.8007 68.4067C86.7515 68.5324 86.6856 68.6512 86.627 68.7728C86.1318 69.8003 86.9484 71 88.223 71H97.2039C98.5525 71 99.3884 69.6569 98.7002 68.5958L96.0446 63.3371C98.4112 62.1869 100 60.0582 100 57.6223C100 53.9649 96.4183 51 92 51Z" fill="#CB6F00"/>
<path d="M51 39V26L9 34.7941V39H51Z" fill="#FFF400"/>
</svg>
