<svg width="130" height="98" viewBox="0 0 130 98" fill="none" xmlns="http://www.w3.org/2000/svg">
<path d="M84.1811 95.7236C80.9351 93.7574 77.7651 88.1142 76.6703 85.5406C76.5595 85.2801 76.6991 84.9854 76.9672 84.8947L90.3298 80.3752C90.6122 80.2797 90.915 80.4499 90.9715 80.7426C91.7638 84.8502 91.7231 90.4734 89.9797 93.7588C89.2758 95.0855 88.2942 96.0309 86.9777 96.3414C86.0717 96.5551 85.1232 96.2942 84.1811 95.7236Z" fill="#EEDCBE"/>
<path d="M84.1811 95.7236C80.9351 93.7574 77.7651 88.1142 76.6703 85.5406C76.5595 85.2801 76.6991 84.9854 76.9672 84.8947L90.3298 80.3752C90.6122 80.2797 90.915 80.4499 90.9715 80.7426C91.7638 84.8502 91.7231 90.4734 89.9797 93.7588M84.1811 95.7236C85.1232 96.2942 86.0717 96.5551 86.9777 96.3414C88.2942 96.0309 89.2758 95.0855 89.9797 93.7588M84.1811 95.7236L83.917 93.4118C83.9122 93.369 83.9128 93.3258 83.919 93.2832L84.1811 91.4798M89.9797 93.7588L89.0736 91.5769C89.0471 91.5129 89.0075 91.4551 88.9574 91.4072L88.0639 90.5529" stroke="black"/>
<path d="M124.181 80.7263C120.511 81.6921 114.251 80.0465 111.64 79.0439C111.375 78.9424 111.261 78.6372 111.382 78.3814L117.425 65.6352C117.553 65.3659 117.886 65.2666 118.135 65.4295C121.638 67.7162 125.651 71.6554 126.8 75.1927C127.264 76.6211 127.261 77.984 126.569 79.146C126.093 79.9458 125.246 80.446 124.181 80.7263Z" fill="#EEDCBE"/>
<path d="M124.181 80.7263C120.511 81.6921 114.251 80.0465 111.64 79.0439C111.375 78.9424 111.261 78.6372 111.382 78.3814L117.425 65.6352C117.553 65.3659 117.886 65.2666 118.135 65.4295C121.638 67.7162 125.651 71.6554 126.8 75.1927M124.181 80.7263C125.246 80.446 126.093 79.9458 126.569 79.146C127.261 77.984 127.264 76.6211 126.8 75.1927M124.181 80.7263L122.342 79.3137C122.304 79.2842 122.27 79.2492 122.241 79.21L120.897 77.3485M126.8 75.1927L124.593 74.3231C124.535 74.3001 124.472 74.2883 124.41 74.2883L122.284 74.2883" stroke="black"/>
<path d="M4.61982 20.5272C11.3208 13.9574 15.7917 14.8546 18.561 20.4064C18.9396 21.1655 18.9332 22.9999 18.4771 23.7151C17.5957 25.097 16.2518 27.2581 14.8284 29.6452C8.21574 40.7349 -4.26833 29.2413 4.61982 20.5272Z" fill="#E2C89E"/>
<path d="M14.8284 29.6452C8.21574 40.7349 -4.26833 29.2413 4.61983 20.5272C11.3208 13.9574 15.7917 14.8546 18.561 20.4064C18.9396 21.1655 18.9332 22.9999 18.4771 23.7151C17.5957 25.097 16.2518 27.2581 14.8284 29.6452ZM14.8284 29.6452C14.9525 24.816 13.9316 19.3787 8.89764 24.0128C7.0206 26.0551 5.51063 29.0413 8.29717 30.0096" stroke="black" stroke-width="2" stroke-linecap="round"/>
<path d="M10.2915 86.6273C9.58001 82.8 11.8088 76.457 12.9806 74.0555C13.0642 73.8842 13.2373 73.7821 13.4278 73.7888C18.4711 73.9665 27.6161 75.6596 26.3472 81.1774C26.3329 81.2397 26.3053 81.3001 26.2675 81.3516C23.7688 84.7666 19.3646 88.7272 15.6178 89.6464C14.1592 90.0042 12.8002 89.9011 11.6921 89.1254C10.9295 88.5916 10.4928 87.7101 10.2915 86.6273Z" fill="#E2C89E"/>
<path d="M10.2915 86.6273C9.58001 82.8 11.8088 76.457 12.9806 74.0555C13.0642 73.8842 13.2373 73.7821 13.4278 73.7888C18.4711 73.9665 27.6161 75.6596 26.3472 81.1774C26.3329 81.2397 26.3053 81.3001 26.2675 81.3516C23.7688 84.7666 19.3646 88.7272 15.6178 89.6464M10.2915 86.6273C10.4928 87.7101 10.9295 88.5916 11.6921 89.1254C12.8002 89.9011 14.1592 90.0042 15.6178 89.6464M10.2915 86.6273L11.884 84.8429L14.1903 82.7016M15.6178 89.6464L16.6884 87.4231L17.759 84.1291" stroke="black"/>
<path d="M14.5485 25.3017C14.7312 6.13687 32.4721 5.75373 41.6888 8.02862C41.8947 8.07945 42.1103 7.98914 42.2315 7.81501C51.4925 -5.49727 65.4828 3.66605 71.6815 10.2633C71.8655 10.4591 72.1731 10.4698 72.3814 10.3002C82.7598 1.85451 90.2027 7.95565 92.861 12.4071C92.9813 12.6085 93.2284 12.7036 93.454 12.6392C113.103 7.0364 120.789 20.6011 118.672 29.5563C118.613 29.8092 118.751 30.0705 118.992 30.1684C131.845 35.3954 130.022 55.9986 122.364 60.3373C122.182 60.4404 122.074 60.6442 122.095 60.8524C123.841 78.6931 108.76 85.3457 96.6094 80.6927C96.4079 80.6156 96.1752 80.676 96.0335 80.8386C85.3212 93.1369 68.1682 87.2439 60.554 82.5491C60.3582 82.4283 60.1058 82.4618 59.9375 82.6186C46.6845 94.9625 31.5016 85.6495 25.3877 79.274C25.2992 79.1816 25.1781 79.1289 25.0505 79.1207C9.95127 78.1473 7.22322 62.8451 7.75111 55.0768C7.76048 54.9389 7.70952 54.8033 7.61698 54.7006C-4.27945 41.5011 6.94372 30.0087 14.2979 25.7438C14.4539 25.6533 14.5468 25.482 14.5485 25.3017Z" fill="white" stroke="black" stroke-width="2" stroke-linecap="round"/>
<path d="M30.2191 22.3893C23.0816 26.3149 25.7922 32.4513 32.0035 33.0956C36.0008 33.5103 38.1755 31.1742 39.218 28.3147C39.4244 27.7485 41.2756 27.6132 41.5261 28.1614C42.6946 30.7194 44.5481 33.0956 47.3493 33.0956C50.6463 33.0956 52.3133 29.3525 53.0075 27.157C53.1556 26.6886 53.8546 26.6322 54.0432 27.0858C55.2174 29.9104 56.6277 33.0956 59.84 33.0956C63.6368 33.0956 64.8363 30.2406 65.9069 25.6012" stroke="black" stroke-width="2" stroke-linecap="round"/>
<path d="M19.9522 34.1662C22.8598 34.1662 24.4186 32.9818 25.3925 31.422C25.5468 31.175 25.8718 31.0866 26.1086 31.2563C28.6818 33.1002 31.8559 37.1721 26.7329 40.9469C22.0935 43.4451 19.9522 43.3261 16.3834 40.9469C13.9321 39.3127 12.4744 35.2896 12.4082 32.159C12.3988 31.7137 13.0353 31.4487 13.4074 31.6936C14.9072 32.6806 17.8011 34.1662 19.9522 34.1662Z" fill="#F4C270" stroke="black"/>
<path d="M21.6847 38.4488C17.2445 39.673 13.8172 35.5716 12.5694 32.559C12.245 31.7757 13.0555 31.3166 13.7443 31.8109C18.1917 35.0021 21.5066 35.1235 24.6296 32.5747C25.2438 32.0734 26.1728 32.3446 26.1336 33.1364C26.0359 35.1038 25.0418 37.5232 21.6847 38.4488Z" fill="#B6750E" stroke="black" stroke-linecap="round"/>
<path d="M73.8803 34.6963C70.9562 34.6963 69.3963 33.4983 68.4234 31.9255C68.2764 31.6878 67.9692 31.5943 67.7373 31.7502C65.6508 33.1537 63.1251 36.6379 67.0365 41.4007C67.0771 41.4501 67.1299 41.4933 67.1862 41.5234C71.7658 43.9735 73.9026 43.8413 77.4491 41.477C79.9004 39.8427 81.3581 35.8196 81.4243 32.6891C81.4337 32.2437 80.7972 31.9787 80.4251 32.2236C78.9253 33.2106 76.0314 34.6963 73.8803 34.6963Z" fill="#F4C270" stroke="black"/>
<path d="M72.4831 39.3357C75.8518 39.6052 78.9769 36.6237 80.7441 33.8081C81.2723 32.9665 80.3219 32.288 79.4774 32.8116C74.8162 35.7016 69.9708 35.3891 67.1642 34.3118C66.307 33.9828 64.73 34.6171 64.9095 35.5175C65.243 37.19 66.7965 38.8808 72.4831 39.3357Z" fill="#B6750E" stroke="black" stroke-linecap="round"/>
<path d="M45.2384 19.8205C57.7389 19.8205 67.7921 29.4824 67.7921 41.3039C67.7921 53.1254 57.7389 62.7873 45.2384 62.7873C32.738 62.7872 22.6847 53.1254 22.6847 41.3039C22.6847 29.4824 32.738 19.8206 45.2384 19.8205Z" fill="#EEDCBE" stroke="black" stroke-width="2"/>
<mask id="mask0_160_144" style="mask-type:alpha" maskUnits="userSpaceOnUse" x="19" y="18" width="51" height="46">
<ellipse cx="44.5249" cy="40.9469" rx="24.9814" ry="22.8402" fill="#D9D9D9"/>
</mask>
<g mask="url(#mask0_160_144)">
<path d="M32.0039 33.0445C25.7923 32.3565 22.5202 26.9469 29.6582 22.7548C32.2955 21.2059 19.6656 16.3612 42.1489 14.9035C52.9902 14.2006 65.9092 21.5828 65.9092 25.0414C65.9092 28.5 66.5583 33.5 61.5583 33.5C56.5583 33.5 55.1975 29.5043 54.0583 27.5C53.9099 27.239 53.553 27.3215 53.5263 27.6206C53.3179 29.9598 52.1358 33.0445 47.3505 33.0445C42.4691 33.0445 41.2959 29.3172 40.9338 25.7578C40.8724 25.1545 39.9556 25.1185 39.7896 25.7018C38.6643 29.6557 36.2291 33.5126 32.0039 33.0445Z" fill="white" stroke="black" stroke-width="2" stroke-linecap="round"/>
</g>
<path d="M76.3568 20.6541C69.511 13.9422 64.9484 14.8756 62.127 20.5686C61.7503 21.3286 61.7525 23.1536 62.2088 23.8686C63.1068 25.2757 64.4875 27.495 65.9505 29.9486C72.6913 41.2532 85.4171 29.5369 76.3568 20.6541Z" fill="#E2C89E"/>
<path d="M65.9505 29.9486C72.6913 41.2532 85.4171 29.5369 76.3568 20.6541C69.511 13.9422 64.9484 14.8756 62.127 20.5686C61.7503 21.3286 61.7525 23.1536 62.2088 23.8686C63.1068 25.2757 64.4875 27.495 65.9505 29.9486ZM65.9505 29.9486C65.824 25.0259 66.8647 19.4833 71.9962 24.2072C73.9096 26.289 75.4488 29.3331 72.6083 30.3201" stroke="black" stroke-width="2" stroke-linecap="round"/>
<ellipse cx="46.0226" cy="47.1604" rx="2.64064" ry="3.63609" transform="rotate(-90.064 46.0226 47.1604)" fill="black"/>
<path d="M44.9684 49.8434C44.9709 49.846 44.9647 49.8567 44.9658 49.8613C44.939 49.8561 44.9591 49.8338 44.9684 49.8434ZM46.9165 50.3167C46.9099 50.3128 46.9033 50.309 46.8966 50.3052C46.8923 50.3161 46.8972 50.3307 46.8909 50.3408C46.8899 50.3424 46.8706 50.3381 46.8698 50.342C46.8689 50.346 46.8952 50.3452 46.898 50.3509C46.9011 50.3573 46.8828 50.3865 46.8832 50.3966C46.885 50.4344 46.9 50.4725 46.8891 50.5104C46.8697 50.4713 46.8499 50.5107 46.8583 50.5217C46.8603 50.5241 46.9091 50.5237 46.8968 50.5629C46.889 50.5879 46.8192 50.5648 46.8542 50.6065C46.903 50.5745 46.8995 50.6059 46.9012 50.631C46.9015 50.6353 46.8941 50.6703 46.8963 50.6857C46.897 50.691 46.9226 50.699 46.9233 50.706C46.9237 50.7108 46.9097 50.7145 46.9104 50.7216C46.9136 50.755 46.9147 50.7878 46.91 50.8212C46.8443 50.8017 46.882 50.8365 46.8788 50.8381C46.861 50.8461 46.8559 50.81 46.8448 50.8243C46.8468 50.8442 46.8488 50.8641 46.8509 50.884C46.8589 50.8677 46.9062 50.9056 46.8847 50.9126C46.9427 50.9095 46.8342 51.0033 46.8536 51.0175C46.8576 51.0205 46.8863 51.0011 46.8732 51.0462C46.8718 51.0511 46.8542 51.0492 46.8559 51.0518C46.8569 51.0533 46.9125 51.0626 46.8818 51.0725C46.8705 51.0762 46.834 51.053 46.8487 51.1038C46.9053 51.0836 46.8793 51.1743 46.8652 51.1909C46.8728 51.1876 46.8804 51.1843 46.888 51.1809C46.8675 51.1974 46.8867 51.2004 46.8857 51.2041C46.8814 51.2191 46.862 51.2397 46.8638 51.2536C46.8658 51.2699 46.9011 51.27 46.8874 51.289C46.8951 51.2845 46.9029 51.28 46.9107 51.2755C46.9088 51.2886 46.9069 51.3018 46.9051 51.3149C46.8584 51.2845 46.9028 51.3215 46.9038 51.3239C46.9055 51.3278 46.8865 51.3222 46.8888 51.3287C46.8892 51.3294 46.9072 51.3284 46.9092 51.3384C46.9134 51.3594 46.8908 51.3561 46.891 51.3648C46.8911 51.3657 46.9073 51.3628 46.9112 51.378C46.9234 51.4263 46.8988 51.3778 46.8965 51.3759C46.8936 51.3735 46.8259 51.39 46.8499 51.3491C46.8423 51.3628 46.8123 51.3642 46.8116 51.3657C46.8109 51.3671 46.8152 51.391 46.8162 51.3923C46.8264 51.404 46.8468 51.3937 46.8505 51.396C46.8535 51.3978 46.8268 51.4266 46.8883 51.4333C46.8316 51.447 46.8368 51.4254 46.828 51.4023C46.8164 51.399 46.8051 51.4243 46.8051 51.4256C46.8052 51.4583 46.8519 51.4402 46.8818 51.4473C46.8974 51.4511 46.8655 51.4644 46.9074 51.4521C46.9118 51.4817 46.8875 51.4638 46.884 51.4657C46.8787 51.4686 46.8907 51.4789 46.8891 51.4802C46.8867 51.4821 46.8722 51.4755 46.8671 51.483C46.8664 51.4843 46.8913 51.4964 46.9032 51.4808C46.8997 51.5016 46.921 51.4999 46.8781 51.507C46.9592 51.5213 46.8301 51.5174 46.8256 51.5231C46.8136 51.5381 46.8773 51.5337 46.8804 51.5345C46.9003 51.54 46.8784 51.5816 46.8876 51.5919C46.8417 51.5879 46.8871 51.5589 46.8782 51.5525C46.8486 51.5309 46.8553 51.5829 46.7976 51.5672C46.8135 51.5738 46.8293 51.5803 46.8451 51.5869C46.8081 51.5989 46.7919 51.5819 46.8055 51.6143C46.8374 51.6196 46.8004 51.5913 46.8256 51.597C46.8404 51.6003 46.8436 51.6191 46.8514 51.6195C46.8607 51.6199 46.8496 51.6029 46.8641 51.6056C46.8952 51.6114 46.8655 51.6734 46.8485 51.6262C46.8491 51.6394 46.7871 51.6461 46.8064 51.6575C46.819 51.6649 46.9045 51.6234 46.8888 51.6857C46.8596 51.687 46.8802 51.6608 46.878 51.6601C46.8747 51.6591 46.8087 51.6639 46.8055 51.6647C46.7947 51.6676 46.8301 51.7312 46.7969 51.7446C46.8351 51.7393 46.8037 51.7926 46.8153 51.7985C46.8186 51.8 46.8419 51.7942 46.8444 51.7959C46.8591 51.8062 46.8174 51.8341 46.8163 51.847C46.8151 51.8615 46.8353 51.8597 46.8352 51.8605C46.8341 51.8669 46.8204 51.8618 46.8205 51.8657C46.8205 51.8716 46.8177 51.912 46.8206 51.9141C46.8215 51.9146 46.8445 51.908 46.8489 51.9169C46.8497 51.9184 46.8223 51.9174 46.8341 51.9435C46.8483 51.975 46.8681 51.9217 46.8968 51.9348C46.856 51.955 46.8964 51.9543 46.8932 51.9598C46.8921 51.9617 46.8577 51.9758 46.8599 51.9911C46.8543 51.9801 46.8488 51.9691 46.8432 51.9581C46.8372 51.9689 46.8446 51.99 46.8378 51.9989C46.8345 52.0032 46.8063 51.9996 46.807 52.0091C46.8074 52.0111 46.8761 52.019 46.8453 51.9943C46.8698 51.9923 46.8538 52.0041 46.8608 52.0096C46.8618 52.0104 46.9028 52.0136 46.8774 52.0206C46.8711 52.0223 46.7515 52.0041 46.8381 52.0511C46.8408 52.0526 46.8558 52.0473 46.8589 52.0488C46.861 52.0498 46.855 52.0618 46.8571 52.0632C46.8594 52.0645 46.8757 52.0587 46.8789 52.0603C46.8955 52.0686 46.8307 52.0795 46.8356 52.0624C46.8276 52.0681 46.8196 52.0738 46.8116 52.0795C46.8604 52.0734 46.8253 52.0885 46.8268 52.0964C46.8364 52.147 46.8682 52.1131 46.8847 52.1218C46.9111 52.1358 46.8274 52.1251 46.8526 52.1459C46.8549 52.1478 46.8904 52.1227 46.8704 52.1717C46.869 52.1645 46.8676 52.1573 46.8662 52.15C46.819 52.1542 46.8695 52.1762 46.8702 52.1778C46.8766 52.1971 46.8596 52.1841 46.884 52.2127C46.8861 52.2152 46.8745 52.2208 46.8803 52.2262C46.9043 52.2489 46.8948 52.1964 46.914 52.1949C46.9234 52.1943 46.921 52.2507 46.9165 52.2527C46.8968 52.2609 46.9078 52.2271 46.8833 52.2335C46.8746 52.2359 46.8925 52.3163 46.883 52.3325C46.8719 52.3511 46.8078 52.3595 46.8798 52.3596C46.8091 52.3649 46.8573 52.3695 46.8569 52.3719C46.8503 52.4007 46.8496 52.4008 46.8564 52.4255C46.8578 52.4309 46.8364 52.4355 46.84 52.4375C46.8422 52.4386 46.8651 52.4365 46.8722 52.442C46.8819 52.4496 46.8583 52.4956 46.8456 52.499C46.8329 52.5024 46.8401 52.4796 46.8193 52.4837C46.8171 52.5002 46.8223 52.516 46.8201 52.5326C46.8191 52.5395 46.8045 52.536 46.8042 52.539C46.8041 52.5402 46.8169 52.5641 46.8223 52.5631C46.8348 52.5607 46.8264 52.4871 46.852 52.5065C46.8569 52.5102 46.8233 52.5234 46.8642 52.5213C46.8549 52.5871 46.8456 52.6528 46.8363 52.7186C46.8057 52.6808 46.8331 52.6383 46.8302 52.5987C46.8299 52.5933 46.8338 52.575 46.8131 52.5772C46.8078 52.6108 46.8186 52.6527 46.8051 52.685C46.8046 52.686 46.7861 52.6822 46.7831 52.6861C46.7776 52.6933 46.8076 52.7169 46.7998 52.7209C46.798 52.7216 46.7735 52.7081 46.758 52.7122C46.718 52.7227 46.8065 52.7254 46.8055 52.7344C46.8046 52.7413 46.7618 52.7881 46.7889 52.7998C46.8177 52.8122 46.8056 52.7653 46.8291 52.7688C46.8528 52.8005 46.8275 52.8326 46.8305 52.8626C46.8306 52.8631 46.849 52.8585 46.8516 52.8652C46.8561 52.8768 46.8299 52.8799 46.8257 52.8855C46.8213 52.8917 46.825 52.9133 46.8155 52.9161C46.8142 52.9165 46.7882 52.9121 46.7875 52.9115C46.7768 52.9021 46.8105 52.8987 46.8109 52.8979C46.8122 52.8946 46.7993 52.8915 46.8001 52.8885C46.8014 52.8837 46.8133 52.8811 46.8144 52.8747C46.8151 52.8703 46.7922 52.8745 46.7932 52.8703C46.7937 52.8687 46.8461 52.8519 46.7926 52.8504C46.7758 52.8499 46.7541 52.9872 46.7676 53.0009C46.774 52.9892 46.7805 52.9774 46.7869 52.9656C46.7713 52.9895 46.814 53.0182 46.7508 53.0203C46.7456 53.1089 46.7404 53.1976 46.7353 53.2862C46.7299 53.3021 46.6893 53.2934 46.7011 53.3194C46.714 53.3127 46.727 53.306 46.7399 53.2993C46.7308 53.3126 46.7131 53.3718 46.7215 53.3813C46.7226 53.3826 46.7593 53.3843 46.7625 53.3991C46.7653 53.4122 46.7377 53.4143 46.7325 53.4213C46.7281 53.4272 46.7353 53.4338 46.7338 53.4355C46.7326 53.4369 46.7157 53.4374 46.7128 53.4406C46.7037 53.4508 46.7511 53.4426 46.6967 53.4527C46.6946 53.4502 46.6925 53.4478 46.6905 53.4453C46.6826 53.4576 46.6579 53.4744 46.6457 53.4563C46.6436 53.4532 46.6598 53.4558 46.6598 53.4535C46.6568 53.3626 46.6251 53.4352 46.6504 53.4671C46.6263 53.4752 46.641 53.5211 46.6363 53.5226C46.6294 53.5247 46.6101 53.5169 46.5934 53.5272C46.5899 53.5293 46.6034 53.5907 46.5713 53.5686C46.5647 53.564 46.5717 53.5346 46.5707 53.5275C46.5195 53.5442 46.5928 53.5833 46.591 53.5877C46.583 53.6054 46.5466 53.5536 46.5407 53.5936C46.5361 53.6243 46.5703 53.5955 46.5849 53.6073C46.5931 53.6139 46.5554 53.6487 46.6042 53.6477C46.6094 53.6596 46.5835 53.6527 46.5817 53.6541C46.5801 53.6556 46.5947 53.679 46.5844 53.6866C46.5831 53.6876 46.5578 53.6847 46.5557 53.6856C46.5521 53.6875 46.5572 53.7101 46.5594 53.711C46.5608 53.7116 46.583 53.7062 46.5884 53.7084C46.5946 53.711 46.5894 53.7328 46.5957 53.734C46.6053 53.7356 46.599 53.7088 46.6238 53.7133C46.6176 53.7256 46.6341 53.7458 46.6541 53.754C46.6484 53.752 46.6476 53.74 46.6496 53.7358C46.6859 53.7378 46.6854 53.7636 46.6566 53.7547C46.6721 53.7604 46.6803 53.7565 46.6949 53.7597C46.6985 53.7605 46.6993 53.7685 46.7056 53.77C46.7069 53.7702 46.7206 53.762 46.7279 53.7636C46.7413 53.7666 46.7383 53.7908 46.7348 53.7927C46.7249 53.7983 46.7129 53.7786 46.6975 53.777C46.6952 53.7767 46.6652 53.7935 46.6625 53.7937C46.6341 53.7947 46.6546 53.7761 46.6289 53.7782C46.6235 53.7828 46.6181 53.7874 46.6127 53.792C46.5868 53.7743 46.6001 53.7414 46.5706 53.7329C46.5794 53.7593 46.5783 53.7868 46.5119 53.7868C46.4839 53.7867 46.4675 53.7754 46.4604 53.7758C46.4349 53.7775 46.4625 53.7933 46.4612 53.7939C46.4597 53.7943 46.4581 53.7946 46.4567 53.7946C46.4567 53.7946 46.4567 53.7946 46.4567 53.7946C46.4418 53.7946 46.431 53.7721 46.4242 53.7709C46.4121 53.769 46.3623 53.7791 46.3513 53.779C46.3491 53.7787 46.3373 53.7627 46.3181 53.7681C46.2987 53.7735 46.2983 53.7876 46.2963 53.7881C46.2847 53.7907 46.2741 53.7662 46.2672 53.7655C46.2638 53.7651 46.2425 53.7783 46.2363 53.7786C46.2302 53.779 46.2168 53.769 46.1974 53.765C46.183 53.7621 46.1719 53.7706 46.1697 53.7691C46.1682 53.7681 46.1684 53.7449 46.1659 53.7438C46.1622 53.7421 46.1449 53.7475 46.1406 53.7467C46.1344 53.7456 46.1407 53.7381 46.1343 53.7391C46.1295 53.7398 46.0702 53.7688 46.0543 53.7686C46.0273 53.7683 46.0895 53.7376 45.9828 53.7662C45.9821 53.7664 45.9897 53.7733 45.989 53.7735C45.9694 53.7778 45.9392 53.7555 45.9445 53.7828C45.9104 53.732 45.9038 53.7765 45.8583 53.7689C45.8408 53.766 45.8336 53.7464 45.8309 53.7463C45.8087 53.7482 45.8259 53.7545 45.8151 53.7566C45.809 53.7578 45.7855 53.7402 45.7703 53.7441C45.7624 53.7462 45.7652 53.7649 45.7637 53.7656C45.7492 53.773 45.7336 53.764 45.7234 53.7656C45.7165 53.7667 45.716 53.7779 45.7147 53.7782C45.7121 53.7787 45.6843 53.7634 45.6746 53.7602C45.667 53.7578 45.6552 53.7669 45.652 53.7652C45.6324 53.755 45.6824 53.7333 45.6123 53.7542C45.608 53.7555 45.6097 53.7634 45.6089 53.7636C45.589 53.7685 45.5873 53.754 45.571 53.7513C45.543 53.7469 45.5586 53.7678 45.5389 53.7504C45.5206 53.7634 45.5214 53.7707 45.5265 53.786C45.5122 53.7437 45.4397 53.7288 45.4415 53.7757C45.4426 53.7608 45.4017 53.7625 45.401 53.758C45.4006 53.7552 45.4413 53.7336 45.35 53.7435C45.3385 53.7448 45.353 53.7579 45.3297 53.7538C45.3357 53.7222 45.3148 53.7531 45.3117 53.7531C45.2579 53.7527 45.302 53.6756 45.2959 53.6624C45.2888 53.647 45.2464 53.6333 45.2463 53.63C45.2463 53.619 45.2678 53.6281 45.2757 53.6257C45.2836 53.6232 45.2423 53.5919 45.2446 53.5904C45.2537 53.5843 45.2792 53.5904 45.2805 53.5898C45.2961 53.5823 45.2762 53.5403 45.2821 53.5286C45.2655 53.5289 45.2642 53.5525 45.2376 53.5378C45.2067 53.5206 45.2796 53.5197 45.2828 53.5192C45.2821 53.4406 45.2814 53.362 45.2807 53.2833C45.2419 53.2843 45.2712 53.3357 45.2661 53.3369C45.2358 53.3438 45.2364 53.2569 45.2501 53.2463C45.2417 53.2544 45.2333 53.2625 45.225 53.2705C45.1803 53.2567 45.2383 53.2262 45.2186 53.2062C45.2122 53.1997 45.195 53.2121 45.1938 53.2118C45.1765 53.2046 45.1898 53.193 45.2131 53.2017C45.1908 53.1839 45.2154 53.1865 45.2173 53.1729C45.2173 53.1722 45.1993 53.1781 45.1919 53.1673C45.1884 53.1623 45.1883 53.1354 45.1726 53.1318C45.166 53.1303 45.0961 53.144 45.1562 53.1456C45.1269 53.1749 45.1836 53.155 45.1822 53.1663C45.1819 53.1681 45.1484 53.1641 45.1642 53.1927C45.1037 53.1872 45.1489 53.1543 45.1416 53.1486C45.1265 53.137 45.0953 53.185 45.1424 53.1938C45.0952 53.1897 45.1361 53.1972 45.1341 53.2079C45.132 53.2196 45.118 53.2145 45.1179 53.2208C45.1175 53.2381 45.1509 53.231 45.1208 53.2452C45.2138 53.2313 45.1331 53.2697 45.1087 53.2809C45.104 53.2627 45.0993 53.2445 45.0946 53.2263C45.0897 53.2273 45.0848 53.2284 45.0799 53.2294C45.0806 53.2246 45.0813 53.2198 45.082 53.215C45.0867 53.2158 45.0914 53.2166 45.096 53.2173C45.0656 53.1926 45.0998 53.1866 45.1002 53.1846C45.1042 53.1586 45.1039 53.1287 45.104 53.1025C45.104 53.0985 45.0736 53.1012 45.0974 53.0725C45.105 53.0634 45.1286 53.072 45.1251 53.0617C45.0608 53.0487 45.1121 53.0489 45.1122 53.0451C45.1121 53.034 45.0962 53.0273 45.096 53.0262C45.0936 53.0126 45.0962 52.9925 45.0938 52.9775C45.0936 52.9772 45.0738 52.9851 45.0797 52.9753C45.0818 52.9719 45.1661 52.9411 45.1386 52.9143C45.1329 52.9213 45.1273 52.9283 45.1216 52.9352C45.1295 52.927 45.1083 52.8695 45.0857 52.8835C45.0719 52.8922 45.1262 52.9132 45.0739 52.9155C45.0896 52.8964 45.0662 52.7906 45.0783 52.7823C45.0801 52.7812 45.097 52.7882 45.0992 52.7866C45.1009 52.7854 45.0968 52.7612 45.1034 52.758C45.1072 52.7561 45.1176 52.7668 45.1238 52.7659C45.1281 52.7651 45.1354 52.7349 45.1141 52.7331C45.1226 52.7406 45.1152 52.7615 45.0973 52.7505C45.095 52.7491 45.1088 52.7418 45.1059 52.7401C45.0799 52.7242 45.0861 52.7717 45.0859 52.779C45.0588 52.7492 45.0908 52.7031 45.0731 52.6685C45.0908 52.6546 45.1002 52.6892 45.1148 52.6734C45.1452 52.6407 45.0904 52.6647 45.0881 52.6637C45.0702 52.6556 45.166 52.6278 45.0931 52.6278C45.1041 52.6159 45.1133 52.6198 45.1037 52.603C45.0987 52.6052 45.0936 52.6074 45.0886 52.6096C45.0464 52.591 45.1529 52.5516 45.161 52.5546C45.1827 52.5625 45.1488 52.583 45.1496 52.5848C45.1508 52.5874 45.2248 52.5945 45.1587 52.6229C45.2082 52.6346 45.1921 52.5779 45.2259 52.6037C45.2204 52.5863 45.2549 52.5147 45.2331 52.5044C45.2303 52.5032 45.1809 52.5089 45.206 52.4913C45.218 52.4829 45.2186 52.5031 45.2298 52.4993C45.2644 52.4874 45.2423 52.3267 45.2405 52.2962C45.2404 52.2942 45.2557 52.2949 45.2556 52.293C45.2552 52.287 45.2323 52.2652 45.2394 52.2545C45.211 52.2767 45.2088 52.2336 45.2119 52.2226C45.2166 52.206 45.2436 52.207 45.2494 52.1998C45.2715 52.1722 45.2074 52.1292 45.2673 52.1077C45.2079 52.1089 45.2965 52.0705 45.297 52.053C45.2974 52.0394 45.2581 52.0195 45.2341 52.038C45.2368 52.0144 45.2258 51.9895 45.2221 51.9674C45.2215 51.9637 45.2391 51.9687 45.2375 51.9625C45.2373 51.9619 45.22 51.9611 45.2182 51.9558C45.2032 51.9115 45.2398 51.933 45.2506 51.9248C45.2566 51.9201 45.2596 51.9167 45.2606 51.9142C45.264 51.94 45.2707 51.9698 45.2712 51.9777C45.3093 51.9709 45.2639 51.9205 45.2741 51.9058C45.2745 51.9052 45.2955 51.907 45.2956 51.9065C45.2956 51.9065 45.2956 51.9065 45.2956 51.9065C45.2972 51.9009 45.2895 51.8657 45.2645 51.873C45.2578 51.8749 45.2578 51.8911 45.2601 51.9104C45.2554 51.9052 45.2319 51.909 45.2309 51.9081C45.2193 51.897 45.2422 51.8697 45.2453 51.86C45.246 51.8578 45.231 51.8579 45.2309 51.8576C45.2344 51.8488 45.2773 51.8524 45.233 51.8433C45.2866 51.8274 45.241 51.8732 45.2757 51.87C45.3025 51.8675 45.2881 51.7657 45.2459 51.766C45.2505 51.7657 45.2561 51.7643 45.2624 51.7614C45.2766 51.755 45.2722 51.7267 45.2644 51.7218C45.2629 51.721 45.2219 51.7213 45.2215 51.7203C45.2206 51.7177 45.2527 51.6831 45.2285 51.6701C45.2228 51.6771 45.217 51.6841 45.2113 51.6911C45.2109 51.6489 45.1987 51.6554 45.1865 51.6695C45.1864 51.6702 45.1848 51.6709 45.1847 51.6715C45.1756 51.6824 45.1669 51.6964 45.1637 51.6966C45.1513 51.6974 45.1445 51.6258 45.1825 51.6396C45.1877 51.6415 45.1707 51.6746 45.1979 51.6582C45.2026 51.6554 45.1949 51.6341 45.1979 51.633C45.2177 51.6255 45.2441 51.672 45.2723 51.6663C45.2454 51.655 45.2596 51.6405 45.2527 51.6276C45.2495 51.6217 45.229 51.6203 45.2286 51.6196C45.2233 51.6087 45.2448 51.6148 45.2442 51.6112C45.2439 51.6092 45.1981 51.5879 45.2612 51.5919C45.2148 51.5215 45.2148 51.5724 45.2184 51.6156C45.1954 51.602 45.2065 51.5752 45.2011 51.5632C45.1992 51.5589 45.1781 51.5614 45.1739 51.5542C45.1653 51.5392 45.1895 51.4676 45.1952 51.449C45.2026 51.4605 45.2256 51.4571 45.224 51.4483C45.2224 51.4394 45.1917 51.4469 45.1885 51.4451C45.185 51.4433 45.1995 51.4019 45.1955 51.395C45.2066 51.4262 45.2295 51.4191 45.2319 51.3926C45.2385 51.3965 45.2451 51.4003 45.2517 51.4041C45.2424 51.3886 45.2773 51.356 45.2669 51.347C45.2653 51.3456 45.246 51.3506 45.2451 51.3499C45.2369 51.342 45.2565 51.3152 45.25 51.314C45.2445 51.3129 45.2284 51.3243 45.2204 51.3201C45.2188 51.3192 45.2448 51.3082 45.2384 51.2973C45.236 51.2933 45.2178 51.2957 45.2168 51.2947C45.208 51.2863 45.2387 51.2913 45.2337 51.2758C45.2301 51.2645 45.2001 51.2561 45.2101 51.2405C45.1719 51.2918 45.1878 51.2486 45.1762 51.2272C45.1744 51.2237 45.1414 51.2267 45.1574 51.2061C45.2172 51.2499 45.189 51.1937 45.1897 51.1822C45.1899 51.1815 45.2117 51.1813 45.212 51.1757C45.212 51.1752 45.1973 51.1759 45.1961 51.1707C45.1855 51.121 45.2021 51.1527 45.2167 51.1433C45.2228 51.1393 45.202 51.1151 45.2015 51.1086C45.2015 51.1071 45.2168 51.1078 45.2162 51.102C45.2151 51.0917 45.1988 51.0826 45.1975 51.0758C45.1974 51.075 45.2216 51.075 45.2137 51.0622C45.2115 51.0586 45.203 51.0545 45.196 51.0596C45.1732 51.0766 45.2127 51.1088 45.1899 51.128C45.1692 51.1455 45.1672 51.0903 45.1671 51.0875C45.167 51.0864 45.179 51.0972 45.1814 51.0862C45.1833 51.0769 45.1417 51.0598 45.1507 51.0459C45.1514 51.0448 45.1868 51.0337 45.1888 51.0342C45.1903 51.0346 45.198 51.0517 45.2082 51.0493C45.2094 51.049 45.2092 51.0381 45.2168 51.0367C45.226 51.0349 45.317 51.0303 45.3193 51.0279C45.325 51.022 45.3042 51.0259 45.3056 51.022C45.3087 51.0138 45.3356 50.9851 45.3041 50.9842C45.3022 50.9889 45.3003 50.9936 45.2984 50.9984C45.2952 50.972 45.2818 50.9833 45.2759 50.9795C45.2695 50.9755 45.2972 50.9766 45.2998 50.9678C45.3004 50.9658 45.2946 50.9287 45.2829 50.9294C45.3015 50.9499 45.2672 50.9423 45.2666 50.9433C45.2643 50.9468 45.2836 50.9514 45.2832 50.9563C45.2802 50.9902 45.2498 50.956 45.242 50.964C45.2394 50.9668 45.2558 50.9723 45.255 50.9734C45.2523 50.9772 45.2308 50.9773 45.2325 50.9798C45.2366 50.9857 45.267 50.9788 45.2685 50.9793C45.2876 50.9846 45.2639 51.0053 45.2308 50.9924C45.2189 51.0002 45.2591 51.0011 45.243 51.0072C45.2112 51.0194 45.2194 51.0011 45.2141 50.9962C45.195 50.9784 45.2105 50.9731 45.2052 50.9479C45.2033 50.9389 45.1838 50.9281 45.1827 50.9239C45.182 50.9213 45.25 50.8963 45.1437 50.8955C45.1539 50.8858 45.224 50.8705 45.2208 50.8605C45.2179 50.8515 45.1803 50.8544 45.1788 50.8535C45.1765 50.8522 45.1795 50.8414 45.1742 50.8377C45.1679 50.8334 45.1535 50.8355 45.1477 50.8287C45.1332 50.8117 45.1716 50.8121 45.174 50.8104C45.2029 50.79 45.1483 50.7989 45.1439 50.7944C45.1399 50.7902 45.1609 50.7314 45.1471 50.719C45.1548 50.7241 45.1624 50.7291 45.1701 50.7342C45.1941 50.7251 45.155 50.7156 45.198 50.7154C45.1286 50.7136 45.175 50.695 45.1732 50.6894C45.1725 50.6872 45.1606 50.6874 45.1601 50.6846C45.1581 50.6738 45.1675 50.6496 45.1615 50.6437C45.1357 50.6185 45.0928 50.6831 45.0902 50.6881C45.0909 50.678 45.0754 50.6204 45.0421 50.6468C45.0369 50.6509 45.068 50.6582 45.0692 50.6605C45.0772 50.676 45.0494 50.6638 45.0467 50.665C45.0425 50.6671 45.0693 50.6773 45.0661 50.68C45.0651 50.6809 45.0399 50.6751 45.0394 50.69C45.015 50.6827 45.0349 50.641 45.0291 50.6355C45.0271 50.6336 44.9749 50.6458 45.0256 50.6101C45.0208 50.6105 45.0159 50.6109 45.0111 50.6113C45.0091 50.5915 45.0071 50.5716 45.0051 50.5517C45.0163 50.5539 45.0387 50.565 45.0339 50.551C45.0312 50.5429 45.0063 50.5489 45.0056 50.5481C44.9987 50.5409 45.007 50.4124 45.0042 50.3875C45.0033 50.379 44.9834 50.3554 44.983 50.3536C44.981 50.3428 44.994 50.3047 44.9912 50.2971C44.9894 50.2924 44.9686 50.2969 44.9696 50.2926C44.9705 50.2887 44.9906 50.2928 44.9914 50.2916C44.9987 50.2819 44.9724 50.2082 44.9913 50.1907C44.9856 50.2014 45.0257 50.2548 45.0399 50.2537C45.0418 50.2535 45.0571 50.2405 45.0497 50.2378C45.067 50.2334 45.0141 50.2182 45.0245 50.21C45.0257 50.209 45.0554 50.2127 45.0608 50.198C45.0626 50.1929 45.0395 50.1796 45.0654 50.1662C45.0529 50.1469 45.0914 50.0451 45.0595 50.0381C45.0579 50.0379 45.0469 50.0522 45.0338 50.0425C45.0164 50.0296 45.075 50.0412 45.08 50.0262C45.0808 50.0239 45.0749 49.9822 45.0713 49.9808C45.0384 49.9682 45.025 50.0047 45.0212 50.0041C45.0116 50.0029 45.0058 49.9726 45.008 49.9713C45.0104 49.9701 45.054 49.9949 45.0374 49.9652C45.0322 49.9686 45.027 49.972 45.0218 49.9754C45.0117 49.9614 45.0418 49.9601 45.0437 49.9567C45.0495 49.9462 45.0037 49.9348 45.0603 49.9179C45.0753 49.9135 45.092 49.9209 45.0942 49.9203C45.1144 49.9149 45.0604 49.9081 45.1007 49.9001C45.1037 49.8995 45.1278 49.9182 45.1279 49.8854C45.124 49.8877 45.1202 49.8899 45.1163 49.8922C45.1077 49.8876 45.1025 49.8544 45.1046 49.85C45.1105 49.8369 45.1383 49.8483 45.135 49.8352C45.097 49.8436 45.092 49.8038 45.1247 49.806C45.0836 49.8005 45.1153 49.7666 45.1163 49.7507C45.1169 49.7407 45.0989 49.7202 45.101 49.717C45.1036 49.7131 45.1317 49.7143 45.1379 49.7073C45.1397 49.7053 45.1191 49.6844 45.1482 49.6661C45.1538 49.6625 45.2013 49.6551 45.2132 49.6617C45.2336 49.673 45.1953 49.6944 45.2234 49.6941C45.2534 49.6938 45.2356 49.665 45.2395 49.6572C45.2576 49.6214 45.2896 49.6421 45.2993 49.6412C45.3228 49.6388 45.3221 49.6192 45.3242 49.6184C45.3336 49.615 45.3522 49.6289 45.3666 49.6291C45.3852 49.6294 45.419 49.6105 45.4253 49.6148C45.4342 49.6209 45.4061 49.6382 45.4075 49.6393C45.4256 49.6536 45.4688 49.634 45.49 49.6286C45.4965 49.627 45.5072 49.6335 45.5091 49.6322C45.5382 49.6115 45.4485 49.6278 45.4545 49.614C45.4598 49.6017 45.4882 49.6175 45.4897 49.6171C45.4915 49.6165 45.493 49.6018 45.503 49.5995C45.5081 49.5983 45.5633 49.6365 45.588 49.6349C45.5826 49.6228 45.5771 49.6106 45.5716 49.5984C45.6039 49.5974 45.5802 49.615 45.5835 49.6168C45.5902 49.6204 45.6065 49.6102 45.6167 49.6107C45.6232 49.6109 45.6463 49.6229 45.6559 49.6121C45.6592 49.6084 45.6366 49.6006 45.6597 49.5871C45.6892 49.6341 45.7073 49.6015 45.7187 49.6001C45.7302 49.5987 45.7571 49.6212 45.7523 49.5939C45.8151 49.5928 45.7722 49.5945 45.7832 49.6023C45.7968 49.6118 45.8174 49.5898 45.8018 49.6245C45.8312 49.6225 45.8291 49.5947 45.8314 49.5932C45.8335 49.5919 45.848 49.5981 45.8529 49.5959C45.9097 49.5698 45.8838 49.5877 45.92 49.5802C45.9233 49.5795 45.9367 49.5548 45.942 49.5736C45.9516 49.6078 45.91 49.6222 45.999 49.6279C46.0377 49.6026 45.9802 49.5719 45.9793 49.5642C45.9779 49.5524 45.996 49.5646 46.0011 49.5632C46.0027 49.5626 46.0012 49.5525 46.0027 49.5524C46.0706 49.5451 46.0038 49.5976 46.0156 49.6141C46.0258 49.6097 46.036 49.6052 46.0462 49.6008C46.0466 49.6068 46.047 49.6128 46.0474 49.6188C46.0678 49.5902 46.0551 49.6178 46.1101 49.625C46.1225 49.6266 46.1013 49.6078 46.1356 49.6292C46.1436 49.6134 46.1548 49.6184 46.1393 49.6041C46.1613 49.6045 46.1862 49.6367 46.1975 49.6494C46.2223 49.6045 46.1414 49.6301 46.1842 49.5913C46.1569 49.5841 46.1622 49.6026 46.1577 49.6011C46.1415 49.5957 46.1673 49.583 46.1105 49.5677C46.1012 49.5652 46.0725 49.5757 46.0739 49.5601C46.0741 49.5584 46.0986 49.5484 46.1004 49.5485C46.1196 49.5499 46.1124 49.5597 46.1204 49.5601C46.128 49.5605 46.1234 49.5495 46.1255 49.5495C46.1496 49.5491 46.1347 49.5587 46.1422 49.5573C46.1586 49.5543 46.2104 49.5147 46.1952 49.5664C46.168 49.5235 46.1686 49.5609 46.1791 49.5776C46.1817 49.5818 46.1961 49.5829 46.2011 49.589C46.2075 49.5968 46.2006 49.6059 46.2033 49.6099C46.2062 49.6143 46.2401 49.5896 46.23 49.6253C46.2638 49.6071 46.2278 49.575 46.2515 49.5572C46.2994 49.5212 46.3097 49.5823 46.3143 49.5887C46.3156 49.5904 46.335 49.5847 46.3362 49.5858C46.338 49.5877 46.3291 49.6223 46.3451 49.6258C46.3612 49.6292 46.3444 49.6131 46.3611 49.612C46.3724 49.6113 46.3923 49.6531 46.4 49.6304C46.4053 49.6148 46.3601 49.5861 46.4087 49.5812C46.4127 49.6042 46.4168 49.6271 46.4208 49.6501C46.4393 49.6375 46.4578 49.625 46.4763 49.6124C46.4822 49.6382 46.4613 49.6604 46.4878 49.6849C46.5471 49.6261 46.5352 49.704 46.5424 49.7048C46.5467 49.7051 46.5949 49.682 46.6037 49.6783C46.6222 49.6988 46.6312 49.7611 46.6907 49.7246C46.6773 49.7312 46.7104 49.7473 46.7129 49.7471C46.7392 49.745 46.7222 49.7101 46.7459 49.7158C46.7734 49.7224 46.7361 49.7316 46.739 49.7418C46.7546 49.7939 46.8917 49.7796 46.87 49.8319C46.8749 49.8309 46.8798 49.8298 46.8847 49.8288C46.8769 49.8856 46.8691 49.9425 46.8614 49.9993C46.9032 50.0215 46.9287 50.0807 46.9241 50.1098C46.9232 50.1156 46.9012 50.1444 46.8974 50.1465C46.89 50.1506 46.8872 50.1285 46.8733 50.1385C46.8705 50.1406 46.8613 50.1892 46.8847 50.1857C46.8874 50.1803 46.8756 50.1632 46.8811 50.1604C46.9205 50.1408 46.8891 50.2908 46.9049 50.2982C46.9126 50.2949 46.9202 50.2916 46.9278 50.2883C46.924 50.2977 46.9203 50.3072 46.9165 50.3167ZM45.0348 49.8818C45.0112 49.8761 45.0289 49.8618 45.0223 49.8534C45.0131 49.8418 44.9225 49.8221 45.0133 49.8306C45.0204 49.8476 45.0276 49.8647 45.0348 49.8818ZM44.9997 50.1312C45.0124 50.1197 45.063 50.1286 45.042 50.138C45.0396 50.139 44.9827 50.1467 44.9997 50.1312ZM45.0238 50.0112C45.0244 50.0117 45.0231 50.0216 45.0223 50.0219C45.002 50.0308 45.0061 50.001 45.0238 50.0112ZM45.0498 50.5908C45.0476 50.5782 45.0015 50.5873 45.0205 50.5952C45.0217 50.5956 45.0499 50.5916 45.0498 50.5908ZM45.051 50.5818C45.0922 50.572 45.0086 50.5523 45.0171 50.568C45.0179 50.5695 45.049 50.5823 45.051 50.5818ZM45.0199 50.0904C45.0357 50.0917 45.028 50.1035 45.0243 50.1085C45.0098 50.1084 45.0216 50.0953 45.0199 50.0904ZM45.0243 50.3897C45.0367 50.3902 45.036 50.3492 45.0196 50.3464C45.0266 50.3529 45.0131 50.3892 45.0243 50.3897ZM45.0417 50.4949C45.0439 50.4939 45.0406 50.4797 45.0296 50.4801C45.0152 50.487 45.032 50.4996 45.0417 50.4949ZM45.041 50.7041C45.0437 50.7048 45.1135 50.6942 45.0676 50.7194C45.0609 50.7231 45.0426 50.7099 45.0401 50.7112C45.0352 50.7139 45.033 50.7161 45.0326 50.7179C45.0268 50.7061 45.0241 50.694 45.0283 50.6928C45.0483 50.6873 45.0398 50.7037 45.041 50.7041ZM45.093 50.8139C45.1044 50.8163 45.0983 50.8317 45.0936 50.8352C45.0927 50.8358 45.0628 50.8332 45.065 50.8401C45.0669 50.8457 45.0975 50.8374 45.0926 50.8482C45.0877 50.8592 45.0659 50.8445 45.0643 50.8455C45.0623 50.8468 45.076 50.8637 45.0582 50.8632C45.045 50.8628 45.0539 50.8446 45.0511 50.8402C45.0475 50.8344 45.0255 50.8414 45.0302 50.8318C45.0332 50.8257 45.0719 50.8291 45.0738 50.8278C45.0754 50.8267 45.0531 50.8056 45.0929 50.8139C45.0929 50.8139 45.0929 50.8139 45.093 50.8139ZM45.0343 50.721C45.033 50.7201 45.0323 50.7191 45.0326 50.7179C45.0331 50.7189 45.0337 50.72 45.0343 50.721ZM45.0517 49.9148C45.0398 49.9208 45.0245 49.9031 45.0401 49.8964C45.0527 49.8963 45.0536 49.9139 45.0517 49.9148ZM45.0658 50.7319C45.0561 50.7493 45.0428 50.7365 45.0343 50.721C45.0416 50.7259 45.069 50.726 45.0658 50.7319ZM45.0497 50.2378C45.0468 50.2386 45.0423 50.239 45.0349 50.2391C45.043 50.2371 45.0473 50.237 45.0497 50.2378ZM45.0365 50.2784C45.059 50.2923 45.0581 50.2641 45.042 50.2642C45.0359 50.2643 45.0356 50.2779 45.0365 50.2784ZM45.0476 50.607C45.0498 50.6057 45.1177 50.6255 45.0667 50.5968C45.0587 50.6121 45.0513 50.5959 45.0454 50.5961C45.0283 50.5968 45.0447 50.6225 45.0373 50.6282C45.0679 50.6327 45.0403 50.6112 45.0476 50.607C45.0476 50.607 45.0476 50.607 45.0476 50.607ZM45.0765 51.0118C45.0586 51.0083 45.0643 50.9972 45.0654 50.9897C45.0833 50.9932 45.0776 51.0043 45.0765 51.0118ZM45.0739 52.9658C45.0574 52.9147 45.1304 52.908 45.1015 52.9548C45.1009 52.9558 45.0813 52.9689 45.0739 52.9658ZM45.0929 52.5267C45.1247 52.5219 45.1298 52.5378 45.1167 52.5483C45.1137 52.5507 45.0815 52.5594 45.0752 52.5494C45.1138 52.5498 45.1285 52.5343 45.0929 52.5267ZM45.0862 50.7417C45.1074 50.7468 45.0923 50.7624 45.0891 50.7706C45.0716 50.7656 45.0795 50.749 45.0862 50.7417ZM45.112 52.7977C45.1144 52.7923 45.0867 52.7886 45.0844 52.7896C45.0739 52.7937 45.0963 52.8038 45.112 52.7977ZM45.0894 50.6914C45.1021 50.6907 45.1143 50.7113 45.083 50.7128C45.0852 50.7083 45.0815 50.6919 45.0894 50.6914ZM45.086 50.9977C45.0925 50.9945 45.104 51.0111 45.0976 51.0161C45.0841 51.0157 45.0818 50.9998 45.086 50.9977ZM45.1026 52.7109C45.105 52.706 45.1058 52.694 45.0946 52.6926C45.0806 52.691 45.0854 52.7087 45.1026 52.7109ZM45.1268 53.6095C45.1218 53.6101 45.0855 53.5914 45.0947 53.5831C45.1122 53.5673 45.1304 53.6088 45.1268 53.6095ZM45.1263 52.8487C45.1 52.864 45.1255 52.8471 45.0978 52.8477C45.0968 52.858 45.0954 52.8835 45.1227 52.8659C45.1279 52.8625 45.1245 52.8535 45.1263 52.8487ZM45.1356 52.8347C45.1266 52.8331 45.0983 52.8221 45.1003 52.8316C45.1013 52.836 45.1328 52.843 45.1356 52.8347ZM45.1145 53.4937C45.139 53.48 45.1259 53.5426 45.1216 53.5444C45.1193 53.5454 45.1171 53.546 45.1153 53.5463C45.1231 53.5486 45.1245 53.5605 45.1048 53.5618C45.1065 53.5583 45.1047 53.5486 45.1069 53.5475C45.1078 53.547 45.1087 53.5466 45.1096 53.5464C45.0925 53.5422 45.1098 53.4963 45.1145 53.4937ZM45.1397 53.39C45.176 53.4056 45.1144 53.4084 45.1124 53.407C45.0872 53.39 45.1326 53.4011 45.1347 53.4006C45.1383 53.3994 45.1172 53.3873 45.1397 53.39C45.1397 53.39 45.1397 53.39 45.1397 53.39ZM45.1246 53.4724C45.1254 53.4731 45.1235 53.4862 45.1225 53.4867C45.1018 53.4975 45.1071 53.4604 45.1246 53.4724ZM45.1361 50.8966C45.13 50.906 45.1073 50.8968 45.1155 50.8906C45.1163 50.8901 45.1415 50.8883 45.1361 50.8966ZM45.1295 52.8272C45.1338 52.825 45.1499 52.7693 45.1157 52.7727C45.1197 52.7774 45.1021 52.8407 45.1295 52.8272ZM45.1378 52.411C45.1375 52.4209 45.1053 52.4102 45.1173 52.4049C45.1218 52.403 45.1378 52.4086 45.1378 52.411ZM45.1187 50.6635C45.101 50.6533 45.1605 50.6554 45.1401 50.6643C45.1393 50.6646 45.1194 50.6639 45.1187 50.6635ZM45.1192 52.4895C45.0997 52.4556 45.202 52.4636 45.1675 52.5077C45.1629 52.5063 45.1583 52.5049 45.1538 52.5035C45.1384 52.5544 45.1466 52.507 45.1408 52.4946C45.1387 52.4898 45.1216 52.4938 45.1191 52.4895C45.1192 52.4895 45.1192 52.4895 45.1192 52.4895ZM45.1397 52.3594C45.2124 52.3268 45.1651 52.3891 45.1745 52.4069C45.1445 52.3896 45.1491 52.3671 45.1184 52.3977C45.1124 52.3529 45.1414 52.3716 45.1438 52.3698C45.1465 52.3676 45.1366 52.3608 45.1397 52.3594ZM45.1402 52.4454C45.1424 52.4473 45.1276 52.4615 45.13 52.4666C45.1052 52.4595 45.1258 52.4329 45.1402 52.4454ZM45.1229 53.2813C45.1423 53.2825 45.1567 53.2854 45.1494 53.2966C45.1396 53.2931 45.1312 53.286 45.1229 53.2813ZM45.1371 49.871C45.1385 49.8633 45.1458 49.8479 45.1253 49.8526C45.1236 49.8531 45.1256 49.871 45.1371 49.871ZM45.1452 52.6655C45.1476 52.6638 45.1492 52.6214 45.1278 52.636C45.1213 52.6404 45.1241 52.6791 45.1452 52.6655ZM45.1428 52.8853C45.143 52.8818 45.1393 52.8674 45.1347 52.867C45.1188 52.8661 45.1276 52.8838 45.1428 52.8853ZM45.157 49.832C45.159 49.831 45.1554 49.8074 45.146 49.81C45.1281 49.8149 45.15 49.8355 45.157 49.832ZM45.1816 50.9308C45.1823 50.9328 45.1612 50.9354 45.161 50.936C45.1607 50.9376 45.1688 50.9737 45.1417 50.9599C45.1372 50.9576 45.1476 50.9057 45.1502 50.899C45.1792 50.8964 45.1517 50.9185 45.1546 50.9239C45.1552 50.9249 45.1795 50.9255 45.1815 50.9308C45.1815 50.9308 45.1816 50.9308 45.1816 50.9308ZM45.1434 53.3397C45.1618 53.3413 45.174 53.3837 45.1517 53.3832C45.1489 53.3687 45.1462 53.3542 45.1434 53.3397ZM45.1465 53.3182C45.1595 53.3091 45.1638 53.3303 45.1581 53.3365C45.1457 53.3366 45.1446 53.3195 45.1465 53.3182ZM45.2116 52.8049C45.2071 52.8006 45.1803 52.8137 45.175 52.8108C45.1718 52.8089 45.1818 52.7994 45.1734 52.7964C45.1708 52.7955 45.1455 52.8052 45.1466 52.808C45.148 52.812 45.1679 52.8081 45.1681 52.8125C45.1685 52.827 45.1543 52.8398 45.1546 52.8533C45.1547 52.8546 45.1688 52.8451 45.1686 52.8555C45.1686 52.8571 45.1476 52.8668 45.1507 52.8793C45.2155 52.9069 45.1519 52.9272 45.1753 52.9622C45.1814 52.9609 45.1977 52.9347 45.1983 52.9331C45.209 52.9039 45.2102 52.8514 45.2103 52.8208C45.2104 52.8129 45.1966 52.8167 45.1961 52.8134C45.1958 52.8107 45.2212 52.8139 45.2116 52.8049ZM45.1511 49.8751C45.1765 49.8714 45.1604 49.8585 45.1617 49.8502C45.1388 49.8532 45.1567 49.867 45.1511 49.8751ZM45.1661 53.1277C45.1651 53.1236 45.1728 53.1108 45.1651 53.1097C45.1552 53.1083 45.1489 53.1268 45.1661 53.1277ZM45.1744 51.1342C45.1751 51.1346 45.1737 51.1446 45.1729 51.145C45.1526 51.1538 45.1568 51.124 45.1744 51.1342ZM45.1695 51.3721C45.1727 51.3796 45.1806 51.3872 45.16 51.3897C45.1632 51.3849 45.1552 51.3712 45.1695 51.3721ZM45.1701 51.7001C45.1971 51.6986 45.1796 51.7213 45.1772 51.7256C45.1652 51.724 45.1507 51.7013 45.1701 51.7001ZM45.2075 53.2797C45.2059 53.2935 45.2467 53.2906 45.2282 53.2994C45.2251 53.3009 45.1401 53.3055 45.172 53.2902C45.1777 53.2875 45.1979 53.2982 45.2075 53.2797ZM45.1666 52.5148C45.1844 52.5184 45.1791 52.5294 45.1777 52.5369C45.1645 52.5352 45.1679 52.5201 45.1666 52.5148ZM45.1773 49.7894C45.2025 49.7829 45.1838 49.7529 45.1672 49.7603C45.165 49.7614 45.1783 49.7852 45.1773 49.7894ZM45.1675 50.777C45.1873 50.7894 45.1934 50.7637 45.174 50.7557C45.1753 50.7593 45.1662 50.7762 45.1675 50.777ZM45.1848 51.6213C45.1856 51.6219 45.1837 51.635 45.1827 51.6356C45.162 51.6464 45.1673 51.6093 45.1848 51.6213ZM45.2022 51.2939C45.2186 51.2986 45.2054 51.3296 45.1891 51.3366C45.1652 51.3299 45.1819 51.288 45.2022 51.2939ZM45.1959 53.2226C45.1967 53.2325 45.1917 53.2419 45.1847 53.251C45.1709 53.249 45.1856 53.2236 45.1959 53.2226ZM45.1865 51.6695C45.1864 51.6702 45.1848 51.6709 45.1847 51.6715C45.1852 51.6708 45.1859 51.6701 45.1865 51.6695ZM45.2055 53.0011C45.211 52.9928 45.1858 52.9945 45.185 52.995C45.1769 53.0013 45.1994 53.0105 45.2055 53.0011ZM45.1885 49.8656C45.2112 49.8627 45.1935 49.8488 45.199 49.8408C45.181 49.8431 45.1861 49.8591 45.1885 49.8656ZM45.1863 52.3245C45.2109 52.3141 45.2395 52.3565 45.2236 52.3654C45.2084 52.366 45.1829 52.326 45.1863 52.3245ZM45.2015 50.7386C45.2193 50.7378 45.1978 50.72 45.1894 50.7237C45.1841 50.7261 45.1905 50.7391 45.2015 50.7386ZM45.2132 52.3867C45.2187 52.3907 45.2011 52.4 45.1904 52.3967C45.1767 52.3925 45.2117 52.3857 45.2132 52.3867ZM45.2275 52.7441C45.2302 52.7423 45.212 52.7189 45.1938 52.7286C45.1812 52.7353 45.2069 52.7364 45.207 52.7379C45.2069 52.7397 45.1754 52.7773 45.2275 52.7441ZM45.2018 52.087C45.2086 52.0959 45.2007 52.1066 45.2011 52.1158C45.1901 52.112 45.1871 52.0908 45.2018 52.087ZM45.2063 50.8072C45.2135 50.8051 45.2178 50.7466 45.1957 50.7798C45.1944 50.7818 45.1845 50.8137 45.2063 50.8072ZM45.2075 53.2797C45.2077 53.2779 45.2085 53.2759 45.2103 53.2736C45.2096 53.2759 45.2084 53.2779 45.2075 53.2797ZM45.2102 53.1221C45.2231 53.1253 45.2266 53.1092 45.2197 53.1045C45.2039 53.103 45.2084 53.1217 45.2102 53.1221ZM45.2192 52.1165C45.2266 52.1218 45.2187 52.1315 45.2196 52.1381C45.2075 52.137 45.207 52.1188 45.2192 52.1165ZM45.2328 51.7423C45.2256 51.7529 45.2289 51.7659 45.2436 51.7661C45.2413 51.7663 45.2389 51.7669 45.2364 51.7677C45.234 51.7686 45.2408 51.7799 45.2358 51.7848C45.206 51.8143 45.2183 51.671 45.2599 51.7541C45.2508 51.7501 45.2418 51.7462 45.2328 51.7423ZM45.2369 51.2518C45.2548 51.2458 45.2324 51.229 45.2253 51.2334C45.2205 51.2364 45.2189 51.2578 45.2369 51.2518ZM45.2475 51.4829C45.2507 51.4811 45.2382 51.4647 45.2287 51.4643C45.2188 51.4737 45.2327 51.4911 45.2475 51.4829ZM45.2579 51.2056C45.2606 51.2019 45.2317 51.1971 45.2304 51.1975C45.2199 51.2013 45.2418 51.212 45.2579 51.2056ZM45.2854 53.2509C45.2937 53.2453 45.2727 53.2274 45.2536 53.2235C45.2573 53.2228 45.2621 53.2209 45.2679 53.2173C45.2679 53.2173 45.2679 53.2173 45.2679 53.2173C45.2756 53.2125 45.2841 53.068 45.2473 53.1649C45.2461 53.1679 45.2633 53.1638 45.2602 53.1762C45.26 53.177 45.246 53.1774 45.2453 53.1799C45.2439 53.1857 45.2351 53.2166 45.2463 53.2228C45.2437 53.2228 45.2413 53.2232 45.239 53.2241C45.2188 53.2317 45.279 53.2553 45.2854 53.2509ZM45.2501 51.5155C45.2553 51.5122 45.2504 51.5017 45.238 51.5006C45.232 51.5058 45.238 51.5231 45.2501 51.5155ZM45.2569 50.8054C45.2671 50.7987 45.2481 50.7816 45.238 50.7868C45.2318 50.7899 45.2453 50.8132 45.2569 50.8054ZM45.2435 51.4107C45.2289 51.4493 45.2447 51.4199 45.2628 51.4258C45.2564 51.4208 45.2499 51.4157 45.2435 51.4107ZM45.2386 53.4296C45.2428 53.4235 45.2785 53.4307 45.2591 53.4375C45.253 53.4396 45.2364 53.4331 45.2386 53.4296ZM45.2497 53.7076C45.2814 53.7024 45.2628 53.728 45.2411 53.718C45.2403 53.7176 45.2485 53.708 45.2497 53.7076ZM45.2627 53.5134C45.2411 53.5092 45.2385 53.5065 45.2439 53.4947C45.25 53.5121 45.269 53.496 45.2627 53.5134ZM45.2459 51.766C45.2451 51.7661 45.2444 51.7661 45.2436 51.7661C45.2444 51.766 45.2452 51.766 45.2459 51.766ZM45.2523 51.1693C45.2706 51.1645 45.2692 51.151 45.2508 51.155C45.2491 51.1554 45.2388 51.1674 45.2523 51.1693ZM45.2536 53.2235C45.2504 53.2242 45.2482 53.2239 45.2463 53.2228C45.2488 53.2227 45.2511 53.223 45.2536 53.2235ZM45.2672 51.2421C45.2536 51.2416 45.2483 51.2622 45.2499 51.263C45.2735 51.2749 45.268 51.2506 45.2672 51.2421ZM45.2761 50.6691C45.2747 50.668 45.2395 50.6749 45.2533 50.6791C45.264 50.6824 45.2815 50.6731 45.2761 50.6691ZM45.2715 53.5533C45.2714 53.5599 45.2715 53.5691 45.2547 53.5707C45.2573 53.5664 45.2592 53.5532 45.2715 53.5533ZM45.2727 53.6976C45.253 53.6899 45.2531 53.6722 45.2563 53.661C45.2822 53.6608 45.2666 53.6903 45.2727 53.6976ZM45.2757 53.2686C45.2768 53.2681 45.2845 53.2517 45.2672 53.254C45.2418 53.2572 45.2663 53.2733 45.2757 53.2686ZM45.2574 50.7009C45.2693 50.7082 45.306 50.6914 45.2777 50.6836C45.2632 50.6797 45.2554 50.6997 45.2574 50.7009ZM45.2762 51.1271C45.2662 51.1174 45.2484 51.1413 45.2665 51.1447C45.2679 51.1402 45.2798 51.1305 45.2762 51.1271ZM45.2945 51.4558C45.3468 51.4253 45.2515 51.4419 45.2599 51.4473C45.2611 51.4481 45.2933 51.4565 45.2945 51.4558ZM45.2817 49.7139C45.2745 49.7096 45.2482 49.7257 45.2655 49.7277C45.2763 49.729 45.2863 49.7167 45.2817 49.7139ZM45.2606 51.9142C45.2604 51.9129 45.2603 51.9116 45.2601 51.9104C45.261 51.9113 45.2612 51.9126 45.2606 51.9142ZM45.3462 51.0394C45.2724 51.0608 45.3293 51.0585 45.329 51.0604C45.3282 51.0644 45.3082 51.0738 45.3115 51.0814C45.3032 51.0727 45.2949 51.064 45.2866 51.0553C45.2813 51.0622 45.2541 51.1218 45.2661 51.123C45.2831 51.1248 45.2778 51.1061 45.2793 51.1055C45.2814 51.1047 45.3287 51.1018 45.3305 51.1C45.3334 51.0972 45.3344 51.0473 45.3462 51.0394ZM45.2864 51.3921C45.2807 51.397 45.262 51.3984 45.2665 51.4007C45.268 51.4014 45.2859 51.4016 45.2905 51.4042C45.2891 51.4002 45.2877 51.3961 45.2864 51.3921ZM45.2799 51.001C45.3017 50.9949 45.2934 51.0221 45.291 51.023C45.2762 51.0276 45.262 51.0059 45.2799 51.001ZM45.2831 51.2318C45.2843 51.2308 45.2912 51.2099 45.279 51.2101C45.2698 51.2156 45.2671 51.2435 45.2831 51.2318ZM45.2917 51.4075C45.2896 51.4148 45.2716 51.4287 45.2986 51.4271C45.2986 51.4271 45.2986 51.4271 45.2986 51.4271C45.2963 51.4205 45.294 51.414 45.2917 51.4075ZM45.3143 50.726C45.3572 50.7124 45.303 50.7188 45.2892 50.7308C45.3084 50.7345 45.3073 50.7282 45.3143 50.726ZM45.3463 50.6824C45.354 50.6787 45.3456 50.6397 45.3229 50.6456C45.3148 50.6477 45.3352 50.6701 45.3336 50.6712C45.3313 50.6727 45.3062 50.6656 45.3111 50.6776C45.3196 50.6769 45.3437 50.6837 45.3463 50.6824ZM45.3418 50.7147C45.3744 50.7012 45.3142 50.6982 45.3141 50.7083C45.314 50.7123 45.3371 50.7166 45.3418 50.7147ZM45.3367 50.7699C45.3424 50.765 45.3507 50.7521 45.3307 50.7432C45.329 50.7551 45.3273 50.7671 45.3255 50.779C45.3369 50.7804 45.3316 50.7742 45.3367 50.7699C45.3367 50.7699 45.3367 50.7699 45.3367 50.7699ZM45.4269 53.7788C45.4439 53.768 45.4505 53.7928 45.4463 53.7938C45.4324 53.7969 45.4192 53.7836 45.4269 53.7788ZM45.8284 49.63C45.8352 49.627 45.8576 49.6251 45.8458 49.6185C45.8293 49.6251 45.8128 49.6317 45.7963 49.6383C45.8341 49.6435 45.8209 49.6333 45.8284 49.63ZM45.9667 49.6048C45.9676 49.6057 46.0258 49.6006 45.9869 49.6127C45.9607 49.6208 45.9351 49.5766 45.9609 49.5686C45.9729 49.5774 45.9592 49.5968 45.9667 49.6048ZM46.2186 49.5272C46.2233 49.5267 46.2301 49.5435 46.2268 49.5455C46.2096 49.5557 46.1938 49.53 46.2186 49.5272ZM46.2075 49.5809C46.2188 49.573 46.2261 49.5905 46.2196 49.5957C46.2088 49.5962 46.2059 49.5821 46.2075 49.5809ZM46.2699 53.67C46.3095 53.6615 46.2243 53.6539 46.2415 53.667C46.2423 53.6676 46.268 53.6704 46.2699 53.67ZM46.2774 49.5437C46.2661 49.5516 46.2588 49.5341 46.2653 49.5289C46.2761 49.5284 46.279 49.5425 46.2774 49.5437ZM46.3642 53.664C46.3926 53.6527 46.2971 53.6567 46.2932 53.6581C46.278 53.6639 46.3155 53.684 46.3248 53.688C46.3105 53.6581 46.3507 53.6694 46.3642 53.664ZM46.3068 53.6117C46.2966 53.6012 46.2771 53.6281 46.3037 53.6332C46.3025 53.628 46.3097 53.6147 46.3068 53.6117ZM46.3374 53.5479C46.3408 53.5422 46.349 53.5254 46.334 53.5226C46.3367 53.5287 46.322 53.5455 46.3374 53.5479ZM46.3825 53.5351C46.4029 53.5262 46.3434 53.5241 46.3611 53.5343C46.3618 53.5347 46.3813 53.5354 46.3825 53.5351ZM46.404 53.4853C46.4276 53.4795 46.37 53.4729 46.3684 53.4823C46.3681 53.4851 46.4012 53.486 46.404 53.4853ZM46.4669 53.6498C46.4771 53.6415 46.4358 53.6308 46.4313 53.6486C46.425 53.6423 46.4187 53.6361 46.4124 53.6299C46.3892 53.6531 46.4465 53.6514 46.4441 53.6581C46.4408 53.6674 46.3935 53.6667 46.3787 53.6648C46.4076 53.6724 46.4081 53.7049 46.4136 53.7237C46.4257 53.7072 46.4468 53.6804 46.4545 53.6641C46.4567 53.6595 46.4438 53.655 46.4452 53.651C46.4476 53.6447 46.4663 53.6503 46.4669 53.6499C46.4669 53.6499 46.4669 53.6498 46.4669 53.6498ZM46.4048 53.42C46.4316 53.4029 46.3737 53.4137 46.3841 53.4234C46.3848 53.4238 46.4042 53.4204 46.4048 53.42ZM46.4533 49.5211C46.4291 49.5438 46.397 49.5273 46.4457 49.5749C46.4112 49.5549 46.4209 49.5738 46.407 49.5699C46.396 49.5668 46.4051 49.555 46.383 49.5619C46.4071 49.5529 46.4004 49.5139 46.4043 49.5122C46.4043 49.5122 46.4043 49.5122 46.4043 49.5122C46.4066 49.5112 46.461 49.5138 46.4533 49.5211ZM46.4888 53.5478C46.559 53.5421 46.4475 53.5399 46.5058 53.5287C46.4212 53.5138 46.5058 53.5698 46.4343 53.5766C46.4426 53.5158 46.3636 53.6168 46.4705 53.5743C46.4317 53.6093 46.4837 53.5858 46.4973 53.5912C46.5118 53.5969 46.4961 53.6167 46.5222 53.6157C46.5222 53.6157 46.5222 53.6157 46.5222 53.6157C46.5204 53.6036 46.5186 53.5915 46.5167 53.5794C46.4603 53.5912 46.4772 53.5665 46.5232 53.5581C46.5117 53.5547 46.5003 53.5512 46.4888 53.5478ZM46.4358 53.6163C46.4371 53.6151 46.4292 53.5888 46.4179 53.5905C46.4106 53.594 46.4193 53.6313 46.4358 53.6163ZM46.4481 53.7321C46.4483 53.7226 46.4593 53.708 46.438 53.7029C46.4379 53.7123 46.4269 53.7269 46.4481 53.7321ZM46.4522 53.2455C46.4347 53.2335 46.4295 53.2705 46.4502 53.2598C46.4512 53.2593 46.453 53.2461 46.4522 53.2455ZM46.4782 53.5204C46.4996 53.5081 46.4313 53.5139 46.4491 53.523C46.4502 53.5235 46.4772 53.5209 46.4782 53.5204ZM46.4616 49.5395C46.4783 49.5403 46.4666 49.5734 46.4667 49.5793C46.4511 49.5759 46.4424 49.5386 46.4616 49.5395ZM46.5108 53.7487C46.571 53.7299 46.5014 53.7044 46.503 53.7016C46.5045 53.6988 46.5308 53.7032 46.5315 53.7026C46.533 53.7011 46.5308 53.6715 46.529 53.67C46.5275 53.669 46.4906 53.6744 46.4789 53.6683C46.4999 53.6802 46.4868 53.7344 46.4909 53.7372C46.4941 53.7393 46.533 53.7229 46.5108 53.7487C46.5108 53.7487 46.5108 53.7487 46.5108 53.7487ZM46.511 53.6946C46.4955 53.702 46.4936 53.6813 46.4993 53.6762C46.5121 53.6651 46.5128 53.6937 46.511 53.6946ZM46.5253 53.6447C46.5288 53.6423 46.5319 53.6209 46.5147 53.6191C46.4923 53.6292 46.5172 53.6501 46.5253 53.6447ZM46.523 53.4066C46.5208 53.4011 46.534 53.3858 46.5189 53.3849C46.5211 53.3905 46.5079 53.4058 46.523 53.4066ZM46.5932 49.6523C46.6058 49.6431 46.6109 49.6645 46.6049 49.6707C46.5948 49.671 46.5921 49.6531 46.5932 49.6523ZM46.6223 53.5183C46.6269 53.515 46.6155 53.4479 46.6084 53.4385C46.597 53.4477 46.5961 53.5142 46.6017 53.5172C46.6034 53.5181 46.6216 53.5187 46.6223 53.5183ZM46.6293 53.6635C46.6515 53.6696 46.6249 53.6736 46.6245 53.6744C46.6211 53.682 46.6262 53.6978 46.6048 53.6943C46.6134 53.6809 46.5852 53.6512 46.6293 53.6635ZM46.6234 53.4019C46.6152 53.3791 46.5918 53.4228 46.615 53.4171C46.6164 53.4167 46.6243 53.4042 46.6234 53.4019ZM46.6288 53.5258C46.6468 53.5308 46.6313 53.598 46.6313 53.6087C46.5982 53.5991 46.6233 53.5913 46.6216 53.5783C46.6211 53.5748 46.6074 53.5758 46.6073 53.5754C46.6067 53.5693 46.6226 53.5739 46.6228 53.5701C46.6229 53.5678 46.6035 53.5187 46.6288 53.5258ZM46.6447 53.667C46.6574 53.6707 46.6628 53.7126 46.6595 53.7143C46.6343 53.7269 46.6403 53.6702 46.6447 53.667ZM46.6582 53.5196C46.6967 53.5269 46.6709 53.5602 46.6518 53.5374C46.65 53.5352 46.6667 53.526 46.6582 53.5196ZM46.6601 53.4043C46.6612 53.4032 46.6689 53.3794 46.6566 53.379C46.6519 53.3824 46.6476 53.4171 46.6601 53.4043ZM46.7014 53.4166C46.7012 53.416 46.6776 53.4216 46.6806 53.4105C46.6809 53.4095 46.7074 53.4078 46.6977 53.3938C46.6957 53.391 46.6781 53.3866 46.677 53.3869C46.6354 53.4015 46.7151 53.4454 46.7014 53.4166ZM46.6662 53.6677C46.6774 53.6655 46.7106 53.6709 46.6938 53.6758C46.6865 53.6779 46.6666 53.674 46.6662 53.6677ZM46.6708 53.329C46.691 53.3428 46.6948 53.2994 46.6896 53.2972C46.6771 53.2986 46.6688 53.3276 46.6708 53.329ZM46.7487 49.6739C46.7487 49.6739 46.7487 49.6739 46.7487 49.6739C46.7441 49.6855 46.7274 49.6783 46.7268 49.6788C46.7022 49.7036 46.7402 49.697 46.7447 49.7009C46.7544 49.7092 46.7082 49.7079 46.7273 49.7219C46.6991 49.6987 46.7109 49.7198 46.6945 49.7204C46.6275 49.723 46.7259 49.6896 46.7118 49.6781C46.7099 49.6765 46.6885 49.6884 46.6824 49.6842C46.6627 49.6708 46.7661 49.6293 46.7487 49.6739ZM46.6967 53.6796C46.7164 53.685 46.6973 53.7259 46.6811 53.7151C46.6785 53.7133 46.668 53.6717 46.6967 53.6796ZM46.7257 51.7697C46.7428 51.7795 46.7628 51.7568 46.7495 51.7525C46.7429 51.7505 46.7183 51.7654 46.7257 51.7697ZM46.7986 51.61C46.7952 51.5984 46.7241 51.5861 46.7351 51.6006C46.7363 51.6021 46.7888 51.6114 46.7986 51.61ZM46.7621 52.3768C46.7875 52.3646 46.7403 52.3653 46.741 52.3742C46.7412 52.3774 46.7613 52.3771 46.7621 52.3768ZM46.756 51.9114C46.7577 51.9102 46.7547 51.8961 46.7438 51.8966C46.7373 51.9018 46.7447 51.9193 46.756 51.9114ZM46.7688 52.3806C46.7603 52.3734 46.7262 52.3858 46.7596 52.3947C46.7568 52.3902 46.7697 52.3814 46.7688 52.3806ZM46.7625 53.4945C46.7431 53.4884 46.749 53.4713 46.7456 53.4614C46.7707 53.4604 46.7579 53.4874 46.7625 53.4945ZM46.7701 51.6596C46.7524 51.6486 46.7379 51.6722 46.7613 51.6701C46.7625 51.6698 46.7708 51.66 46.7701 51.6596ZM46.7714 52.7701C46.7564 52.7621 46.7363 52.7876 46.7626 52.7806C46.7637 52.7802 46.7722 52.7705 46.7714 52.7701ZM46.7627 52.8815C46.7678 52.8754 46.7662 52.8494 46.7516 52.8595C46.7494 52.8611 46.749 52.881 46.7627 52.8815ZM46.7627 49.7016C46.7885 49.6983 46.7824 49.7174 46.7779 49.7201C46.776 49.7212 46.7292 49.7059 46.7627 49.7016ZM46.7661 52.2976C46.7629 52.2913 46.7691 52.2749 46.7555 52.272C46.7583 52.2797 46.7392 52.2996 46.7661 52.2976ZM46.7702 51.71C46.7982 51.7004 46.7954 51.6839 46.7588 51.688C46.7613 51.7062 46.7917 51.6858 46.7702 51.71ZM46.799 52.4213C46.8011 52.4162 46.766 52.4123 46.7643 52.4129C46.7486 52.4184 46.7853 52.4263 46.799 52.4213ZM46.7701 52.0416C46.7851 52.0414 46.7783 52.0251 46.7686 52.0273C46.7653 52.028 46.7579 52.0419 46.7701 52.0416ZM46.771 53.2821C46.7847 53.2747 46.7981 53.2973 46.7821 53.3041C46.7591 53.3073 46.7695 53.283 46.771 53.2821ZM46.7902 52.5615C46.8125 52.5623 46.7999 52.5369 46.7814 52.5469C46.7768 52.5494 46.7827 52.5613 46.7902 52.5615ZM46.8169 52.8042C46.7903 52.7872 46.7715 52.8586 46.8046 52.8398C46.807 52.8385 46.8192 52.8057 46.8169 52.8042ZM46.8003 52.9208C46.8033 52.9178 46.8782 52.9193 46.8493 52.9314C46.8455 52.933 46.8257 52.9256 46.8212 52.9269C46.8186 52.9277 46.8081 52.9541 46.8099 52.9553C46.8118 52.9566 46.8358 52.955 46.8385 52.9564C46.8415 52.9579 46.8205 52.9741 46.8202 52.9826C46.8198 52.9986 46.8398 53.0004 46.8399 53.0017C46.84 53.0055 46.8258 53.012 46.8258 53.0197C46.826 53.0589 46.8429 53.1187 46.8006 53.1498C46.8176 53.1222 46.7995 53.0958 46.794 53.0684C46.8357 53.0764 46.7618 53.0279 46.81 53.0563C46.7995 53.0432 46.7912 52.9304 46.8003 52.9208C46.8003 52.9208 46.8003 52.9208 46.8003 52.9208ZM46.8196 51.564C46.8452 51.5711 46.8394 51.5343 46.8099 51.5312C46.8057 51.5361 46.8167 51.5631 46.8196 51.564ZM46.882 51.7338C46.8864 51.7372 46.9364 51.7404 46.9111 51.7583C46.9111 51.7584 46.9111 51.7584 46.9111 51.7584C46.9036 51.7636 46.8915 51.7577 46.8871 51.7586C46.8854 51.759 46.8605 51.7753 46.8565 51.7617C46.8503 51.741 46.8937 51.7598 46.8942 51.7488C46.8942 51.7474 46.8672 51.7265 46.8612 51.7277C46.8606 51.7279 46.8663 51.7341 46.8638 51.7352C46.8545 51.7391 46.8389 51.7372 46.8382 51.7377C46.8363 51.7396 46.8629 51.7726 46.8396 51.7774C46.8321 51.779 46.8149 51.7247 46.8188 51.7226C46.8212 51.7213 46.8646 51.7218 46.8688 51.7205C46.8709 51.7198 46.8547 51.6979 46.8587 51.6951C46.8598 51.6943 46.8611 51.6937 46.8621 51.6932C46.8487 51.6965 46.8497 51.6767 46.8648 51.6774C46.8707 51.6777 46.8673 51.6913 46.8662 51.6918C46.8658 51.692 46.8652 51.6922 46.8648 51.6923C46.8811 51.6895 46.8804 51.7356 46.9047 51.7256C46.918 51.739 46.869 51.7237 46.882 51.7338ZM46.9087 51.7979C46.9042 51.7965 46.8996 51.7951 46.8951 51.7938C46.9062 51.8171 46.8843 51.8441 46.8844 51.871C46.8844 51.8778 46.9123 51.87 46.9047 51.8789C46.8986 51.8861 46.8727 51.894 46.867 51.8901C46.8655 51.8892 46.8824 51.8746 46.8807 51.8673C46.8755 51.8457 46.8516 51.8511 46.851 51.8499C46.8503 51.8485 46.8671 51.8349 46.8664 51.8275C46.8644 51.8089 46.8498 51.8003 46.8689 51.7749C46.8847 51.7896 46.9189 51.7815 46.9087 51.7979ZM46.8578 52.6686C46.8729 52.6695 46.8595 52.6848 46.8617 52.6903C46.8467 52.6894 46.86 52.6741 46.8578 52.6686ZM46.8774 50.3907C46.8527 50.386 46.8466 50.4212 46.8671 50.4119C46.8717 50.4099 46.8772 50.3951 46.8774 50.3907ZM46.8623 50.5488C46.8692 50.5535 46.8869 50.5345 46.8678 50.5346C46.8617 50.5346 46.8615 50.5482 46.8623 50.5488ZM46.8844 52.0998C46.8852 52.1007 46.8797 52.1137 46.8785 52.1141C46.8522 52.1227 46.8674 52.0801 46.8844 52.0998ZM46.8927 50.741C46.8766 50.7245 46.8695 50.7739 46.8902 50.7588C46.8912 50.7581 46.8935 50.7417 46.8927 50.741ZM46.8973 50.8096C46.8964 50.8057 46.9044 50.7882 46.8969 50.788C46.8847 50.7876 46.8764 50.8076 46.8973 50.8096ZM46.8923 52.4247C46.9201 52.4228 46.899 52.4458 46.9025 52.4538C46.8747 52.4557 46.8958 52.4327 46.8923 52.4247ZM46.9128 52.2793C46.9347 52.3764 46.8753 52.355 46.8992 52.2735C46.9171 52.2734 46.9114 52.2732 46.9128 52.2793ZM46.9095 52.4036C46.8916 52.4001 46.8969 52.3891 46.8984 52.3816C46.9107 52.383 46.9063 52.3983 46.9095 52.4036ZM46.9156 50.3488C46.9381 50.3549 46.9103 50.3818 46.901 50.377C46.899 50.3759 46.9032 50.3465 46.9156 50.3488ZM46.9082 52.108C46.9353 52.1057 46.9243 52.1349 46.9183 52.1371C46.8941 52.1461 46.9142 52.1103 46.9082 52.108ZM46.9161 52.5625C46.9372 52.5676 46.9263 52.5823 46.9261 52.5917C46.9079 52.5874 46.9157 52.5705 46.9161 52.5625ZM46.9327 52.4946C46.9335 52.4952 46.9316 52.5083 46.9306 52.5089C46.9099 52.5196 46.9152 52.4825 46.9327 52.4946ZM46.9522 49.6578C46.9529 49.6582 46.9515 49.6682 46.9507 49.6685C46.9304 49.6774 46.9345 49.6476 46.9522 49.6578Z" fill="black"/>
<path d="M13.1196 73.7797C11.6921 76.5157 8.12334 86.6273 11.6921 89.1254C15.6683 91.9087 22.8742 86.0325 26.324 81.2741" stroke="black"/>
<path d="M84.7338 69.9216C82.8064 66.6524 82.6877 60.1809 82.9426 57.3957C82.9684 57.1138 83.2309 56.9204 83.51 56.9675L97.4192 59.3168C97.7131 59.3665 97.8992 59.6598 97.8103 59.9443C96.5623 63.9371 93.8629 68.8702 90.7713 70.9379C89.5229 71.7728 88.2106 72.1405 86.9041 71.7904C86.0049 71.5494 85.2932 70.8704 84.7338 69.9216Z" fill="#E2C89E"/>
<path d="M84.7338 69.9216C82.8064 66.6524 82.6877 60.1809 82.9426 57.3957C82.9684 57.1138 83.2309 56.9204 83.51 56.9675L97.4192 59.3168C97.7131 59.3665 97.8992 59.6598 97.8103 59.9443C96.5623 63.9371 93.8629 68.8702 90.7713 70.9379M84.7338 69.9216C85.2932 70.8704 86.0049 71.5494 86.9041 71.7904C88.2106 72.1405 89.5229 71.7728 90.7713 70.9379M84.7338 69.9216L85.6204 67.7003L87.0556 64.8996M90.7713 70.9379L91.0174 68.4825L90.8974 65.021" stroke="black"/>
<mask id="mask1_160_144" style="mask-type:alpha" maskUnits="userSpaceOnUse" x="81" y="55" width="18" height="18">
<path d="M84.7338 69.9215C82.8064 66.6523 82.6877 60.1808 82.9426 57.3956C82.9684 57.1137 83.2309 56.9203 83.51 56.9675L97.4192 59.3168C97.7131 59.3664 97.8992 59.6597 97.8103 59.9443C96.5623 63.9371 93.8629 68.8702 90.7713 70.9378C89.5229 71.7727 88.2106 72.1404 86.9041 71.7903C86.0049 71.5494 85.2932 70.8703 84.7338 69.9215Z" fill="#E2C89E"/>
<path d="M84.7338 69.9215C82.8064 66.6523 82.6877 60.1808 82.9426 57.3956C82.9684 57.1137 83.2309 56.9203 83.51 56.9675L97.4192 59.3168C97.7131 59.3664 97.8992 59.6597 97.8103 59.9443C96.5623 63.9371 93.8629 68.8702 90.7713 70.9378M84.7338 69.9215C85.2932 70.8703 86.0049 71.5494 86.9041 71.7903C88.2106 72.1404 89.5229 71.7727 90.7713 70.9378M84.7338 69.9215L85.6204 67.7002L87.0556 64.8995M90.7713 70.9378L91.0174 68.4825L90.8974 65.021" stroke="black" stroke-width="2"/>
</mask>
<g mask="url(#mask1_160_144)">
<path d="M87.2949 56.8604C83.8317 61.0162 77.0079 58.4506 79.2161 54.7078C79.3545 54.4732 79.5602 54.2918 79.7969 54.1571C86.3567 50.424 99.6331 46.997 102.998 61.8567C100.714 66.4247 95.1462 66.853 95.1462 60.0723C91.5775 65.4255 86.2243 62.9273 87.2949 56.8604Z" fill="white" stroke="black" stroke-linecap="round"/>
</g>
<path d="M79.4168 54.3C76.5618 58.2256 83.6993 61.0807 87.2681 56.7981C86.1975 62.8651 91.5506 65.3632 95.1194 60.01C95.1194 66.7907 100.687 66.3625 102.971 61.7944" stroke="black" stroke-linecap="round"/>
<ellipse cx="32.0341" cy="49.512" rx="4.63941" ry="2.14127" fill="url(#paint0_radial_160_144)"/>
<ellipse cx="59.8706" cy="49.512" rx="4.63941" ry="2.14127" fill="url(#paint1_radial_160_144)"/>
<path d="M55.9498 45.9556L53.4077 40.8448C53.2032 40.4337 53.3049 39.9362 53.6543 39.6384L57.5416 36.3247C57.8773 36.0385 58.361 36.0061 58.7319 36.245L62.2622 38.5193C62.6116 38.7443 62.7854 39.1621 62.6987 39.5685L61.8853 43.3816C61.8207 43.684 61.6199 43.9396 61.3414 44.0738L59.4102 45.0044C58.9416 45.2302 58.3782 45.0591 58.1143 44.6108L56.619 42.07C56.3799 41.6637 56.457 41.1456 56.8041 40.8266L57.9828 39.743C58.368 39.3889 58.9611 39.3917 59.3431 39.7493L59.7305 40.1121C60.1341 40.49 60.1544 41.1238 59.7758 41.5268L59.3002 42.0329" stroke="black" stroke-width="1.5" stroke-linecap="round"/>
<path d="M27 39.2931L31.5817 35.5154C31.9461 35.2149 32.4711 35.2104 32.8407 35.5046L37.0359 38.8444C37.3725 39.1124 37.5 39.5657 37.3523 39.9699L35.794 44.236C35.6499 44.6305 35.2746 44.8929 34.8547 44.8929H30.8484C30.533 44.8929 30.236 44.7441 30.0473 44.4915L28.6472 42.6177C28.344 42.2119 28.3921 41.6435 28.7592 41.2945L31.0418 39.1239C31.393 38.7898 31.9333 38.7558 32.3237 39.0432L33.7156 40.0678C34.1268 40.3704 34.2439 40.9342 33.9874 41.3756L33.6563 41.9453C33.3722 42.4343 32.7394 42.5905 32.2603 42.2899L31.6489 41.9064" stroke="black" stroke-width="1.5" stroke-linecap="round"/>
<path d="M48.0203 51.8078C47.9172 51.2908 48.2272 50.4083 48.4992 49.7704C48.6489 49.4194 49.1112 49.3965 49.2995 49.7284C49.6499 50.346 50.0872 51.2144 50.1182 51.7495C50.1204 51.7886 50.116 51.8275 50.1039 51.8648C49.8367 52.6924 48.2256 52.8375 48.0203 51.8078Z" fill="#BEFFFF" stroke="black" stroke-width="0.5" stroke-linecap="round"/>
<defs>
<radialGradient id="paint0_radial_160_144" cx="0" cy="0" r="1" gradientUnits="userSpaceOnUse" gradientTransform="translate(32.0341 49.512) rotate(90) scale(2.14127 4.63941)">
<stop stop-color="#E97979" stop-opacity="0.8"/>
<stop offset="1" stop-color="#E97979" stop-opacity="0"/>
</radialGradient>
<radialGradient id="paint1_radial_160_144" cx="0" cy="0" r="1" gradientUnits="userSpaceOnUse" gradientTransform="translate(59.8706 49.512) rotate(90) scale(2.14127 4.63941)">
<stop stop-color="#E97979" stop-opacity="0.8"/>
<stop offset="1" stop-color="#E97979" stop-opacity="0"/>
</radialGradient>
</defs>
</svg>
