<svg width="184" height="138" viewBox="0 0 184 138" fill="none" xmlns="http://www.w3.org/2000/svg">
<path d="M118.56 134.744C113.928 131.939 109.407 123.79 107.955 120.282C107.847 120.021 107.988 119.73 108.256 119.639L127.387 113.169C127.669 113.073 127.972 113.244 128.031 113.537C129.185 119.309 129.158 127.33 126.684 131.992C125.698 133.85 124.323 135.175 122.478 135.61C121.209 135.909 119.88 135.544 118.56 134.744Z" fill="#EEDCBE"/>
<path d="M118.56 134.744C113.928 131.939 109.407 123.79 107.955 120.282C107.847 120.021 107.988 119.73 108.256 119.639L127.387 113.169C127.669 113.073 127.972 113.244 128.031 113.537C129.185 119.309 129.158 127.33 126.684 131.992M118.56 134.744C119.88 135.544 121.209 135.909 122.478 135.61C124.323 135.175 125.698 133.85 126.684 131.992M118.56 134.744L118.187 131.48C118.182 131.437 118.183 131.394 118.189 131.351L118.56 128.799M126.684 131.992L125.399 128.896C125.372 128.832 125.332 128.774 125.282 128.726L124 127.5" stroke="black" stroke-width="2"/>
<path d="M174.601 113.732C169.364 115.111 160.364 112.694 156.834 111.299C156.57 111.194 156.459 110.891 156.581 110.635L165.232 92.3868C165.36 92.1174 165.694 92.0187 165.944 92.1799C170.895 95.3642 176.641 100.961 178.272 105.98C178.922 107.981 178.917 109.89 177.947 111.518C177.28 112.639 176.093 113.34 174.601 113.732Z" fill="#EEDCBE"/>
<path d="M174.601 113.732C169.364 115.111 160.364 112.694 156.834 111.299C156.57 111.194 156.459 110.891 156.581 110.635L165.232 92.3868C165.36 92.1174 165.694 92.0187 165.944 92.1799C170.895 95.3642 176.641 100.961 178.272 105.98M174.601 113.732C176.093 113.34 177.28 112.639 177.947 111.518C178.917 109.89 178.922 107.981 178.272 105.98M174.601 113.732L172.002 111.735C171.963 111.706 171.93 111.671 171.901 111.632L170 109M178.272 105.98L175.143 104.747C175.085 104.724 175.023 104.713 174.96 104.713L171.944 104.713" stroke="black" stroke-width="2"/>
<path d="M7.53135 26.0422C18.9291 14.8677 26.3692 16.9443 30.8302 27.0651C31.1723 27.8413 31.3123 29.3938 30.8505 30.1054C29.5073 32.1752 26.932 36.2806 24.1736 40.9065C13.3935 58.9852 -6.95827 40.2481 7.53135 26.0422Z" fill="#E2C89E"/>
<path d="M24.1736 40.9065C13.3935 58.9852 -6.95827 40.2481 7.53135 26.0422C18.9291 14.8677 26.3692 16.9443 30.8302 27.0651C31.1723 27.8413 31.3123 29.3938 30.8505 30.1054C29.5073 32.1752 26.932 36.2806 24.1736 40.9065ZM24.1736 40.9065C24.3759 33.0339 22.7116 24.1699 14.5051 31.7246C11.4451 35.0539 8.98355 39.9221 13.5262 41.5005" stroke="black" stroke-width="3" stroke-linecap="round"/>
<path d="M15.0377 122C14.0298 116.578 17.2335 107.553 18.8595 104.276C18.9442 104.106 19.1161 104.002 19.3066 104.009C26.3567 104.234 39.3637 106.596 37.5234 114.403C37.5088 114.465 37.4812 114.526 37.4435 114.578C33.9468 119.369 27.7608 124.939 22.5 126.23C20.4565 126.731 18.5525 126.587 17 125.5C15.9316 124.752 15.3198 123.517 15.0377 122Z" fill="#E2C89E"/>
<path d="M15.0377 122C14.0298 116.578 17.2335 107.553 18.8595 104.276C18.9442 104.106 19.1161 104.002 19.3066 104.009C26.3567 104.234 39.3637 106.596 37.5234 114.403C37.5088 114.465 37.4812 114.526 37.4435 114.578C33.9468 119.369 27.7608 124.939 22.5 126.23M15.0377 122C15.3198 123.517 15.9316 124.752 17 125.5C18.5525 126.587 20.4565 126.731 22.5 126.23M15.0377 122L17.2689 119.5L20.5 116.5M22.5 126.23L24 123.115L25.5 118.5" stroke="black" stroke-width="2"/>
<path d="M21.001 36.2001C21.1848 9.136 46.2709 8.68467 59.1632 11.9141C59.369 11.9656 59.5842 11.8744 59.7046 11.6998C72.7447 -7.22011 92.5442 5.87986 101.179 15.1517C101.362 15.3483 101.67 15.3566 101.877 15.1861C116.606 3.08099 127.14 11.886 130.804 18.1546C130.922 18.3571 131.169 18.4497 131.395 18.3847C159.326 10.3367 168.402 30.49 169.482 41.8084C169.494 41.9342 169.556 42.05 169.649 42.1349C189.693 60.3409 181.124 78.3893 174.17 85.3325C174.061 85.4411 174.011 85.5958 174.026 85.7487C176.607 110.97 149.783 114.783 135.755 113.524C135.592 113.509 135.434 113.578 135.328 113.703C120.268 131.252 95.9628 122.818 85.3248 116.204C85.1294 116.083 84.8778 116.117 84.7101 116.275C66.0755 133.769 44.6816 120.593 36.1339 111.641C36.0455 111.548 35.9245 111.496 35.7968 111.488C14.5152 110.171 10.718 88.5815 11.4844 77.7111C11.4942 77.5732 11.443 77.4379 11.3502 77.3354C-5.46865 58.7546 10.4378 42.5774 20.7512 36.6418C20.9076 36.5518 20.9998 36.3804 21.001 36.2001Z" fill="white" stroke="black" stroke-width="3" stroke-linecap="round"/>
<path d="M42.9572 32C32.9572 37.5 36.7548 46.0973 45.4571 47C51.9236 47.6708 54.9857 43.2035 56.1323 38.402C56.2723 37.8158 57.8363 37.6866 58.0449 38.252C59.5912 42.4425 62.3653 47 66.9571 47C71.9036 47 74.2314 40.9865 75.0711 38.0613C75.2066 37.5892 75.8991 37.5288 76.0875 37.9825C77.7869 42.0733 79.7283 47 84.4571 47C89.7766 47 91.4571 43 92.9571 36.5" stroke="black" stroke-width="3" stroke-linecap="round"/>
<path d="M28.5728 48.5C32.7606 48.5 34.9512 46.7462 36.3076 44.4703C36.4568 44.2202 36.7816 44.132 37.0209 44.2981C40.6537 46.8185 45.3684 52.6243 38.0728 58C31.5728 61.5 28.5728 61.3333 23.5728 58C20.0105 55.6252 17.9459 49.6496 18.0011 45.2035C18.0066 44.7581 18.6366 44.508 19.0016 44.7634C20.9467 46.125 25.3535 48.5 28.5728 48.5Z" fill="#F4C270" stroke="black" stroke-width="2"/>
<path d="M31 54.5C25.9883 55.7529 21.8759 51.3642 19.5273 47.4804C19.0131 46.6302 19.9889 45.7763 20.8631 46.2486C28.1025 50.1606 32.8678 48.7166 35.367 46.5277C36.0576 45.9227 37.2819 46.1814 37.2383 47.0985C37.1058 49.8876 35.723 53.3193 31 54.5Z" fill="#B6750E" stroke="black" stroke-width="2" stroke-linecap="round"/>
<path d="M104.128 49.2426C99.9238 49.2426 97.7325 47.475 96.3773 45.1861C96.2349 44.9456 95.9287 44.852 95.6932 45.0025C92.7366 46.893 88.9406 51.8466 94.5649 58.6663C94.6056 58.7156 94.6586 58.759 94.7149 58.7892C101.155 62.2411 104.15 62.0611 109.128 58.7426C112.69 56.3678 114.755 50.3922 114.7 45.9461C114.694 45.5007 114.064 45.2506 113.699 45.506C111.754 46.8676 107.347 49.2426 104.128 49.2426Z" fill="#F4C270" stroke="black" stroke-width="2"/>
<path d="M102.171 55.7426C107.358 56.1576 112.134 51.0698 114.423 46.8363C114.896 45.9623 113.901 45.2889 113.089 45.8613C105.66 51.0969 97.6595 50.1984 93.7566 48.2866C92.9321 47.8827 91.4323 48.4318 91.4512 49.3497C91.5055 51.9892 93.0122 55.0099 102.171 55.7426Z" fill="#B6750E" stroke="black" stroke-width="2" stroke-linecap="round"/>
<path d="M64 28C81.7175 28 96 41.6986 96 58.5C96 75.3014 81.7175 89 64 89C46.2826 89 32 75.3014 32 58.5C32 41.6986 46.2826 28 64 28Z" fill="#EEDCBE" stroke="black" stroke-width="2"/>
<mask id="mask0_159_104" style="mask-type:alpha" maskUnits="userSpaceOnUse" x="28" y="26" width="70" height="64">
<ellipse cx="63" cy="58" rx="35" ry="32" fill="#D9D9D9"/>
</mask>
<g mask="url(#mask0_159_104)">
<path d="M45.4577 46.9284C36.7549 45.9644 32.1706 38.3854 42.1712 32.512C45.8661 30.342 28.1712 23.5543 59.6712 21.512C74.8602 20.5272 95.8228 28.6439 92.9604 35.7157C88.4207 46.9313 89.5 46.9284 85.5 46.9284C81.5001 46.9284 79.8291 45.076 78.4542 42.6569C77.5142 41.0031 76.7844 39.0845 76.0949 37.3118C75.9135 36.8455 75.2024 36.903 75.0724 37.3861C74.2319 40.5111 71.9039 46.9284 66.9589 46.9284C62.3726 46.9284 59.5996 42.0738 58.052 37.6036C57.8536 37.0305 56.2661 37.1538 56.1337 37.7456C54.9872 42.8735 51.925 47.6447 45.4577 46.9284Z" fill="white" stroke="black" stroke-width="2" stroke-linecap="round"/>
</g>
<path d="M106.865 27.0422C95.4674 15.8677 88.0272 17.9443 83.5663 28.0651C83.2241 28.8413 83.0841 30.3938 83.5459 31.1054C84.8892 33.1752 87.4644 37.2806 90.2228 41.9065C101.003 59.9852 121.355 41.2481 106.865 27.0422Z" fill="#E2C89E"/>
<path d="M90.2228 41.9065C101.003 59.9852 121.355 41.2481 106.865 27.0422C95.4674 15.8677 88.0272 17.9443 83.5663 28.0651C83.2241 28.8413 83.0841 30.3938 83.5459 31.1054C84.8892 33.1752 87.4644 37.2806 90.2228 41.9065ZM90.2228 41.9065C90.0205 34.0339 91.6848 25.1699 99.8913 32.7246C102.951 36.0539 105.413 40.9221 100.87 42.5005" stroke="black" stroke-width="3" stroke-linecap="round"/>
<ellipse cx="65.0984" cy="66.7053" rx="3.69964" ry="5.09431" transform="rotate(-90.064 65.0984 66.7053)" fill="black"/>
<path d="M63.524 70.4643C63.5278 70.468 63.5185 70.4829 63.5201 70.4894C63.4799 70.482 63.5102 70.4509 63.524 70.4643ZM66.4463 71.1273C66.4363 71.122 66.4264 71.1166 66.4164 71.1112C66.41 71.1265 66.4173 71.147 66.4078 71.1611C66.4062 71.1634 66.3774 71.1574 66.3761 71.1629C66.3749 71.1684 66.4142 71.1673 66.4184 71.1753C66.4231 71.1842 66.3956 71.2251 66.3963 71.2393C66.3989 71.2922 66.4214 71.3457 66.4051 71.3988C66.376 71.344 66.3463 71.3992 66.3589 71.4145C66.3619 71.4179 66.435 71.4174 66.4166 71.4724C66.4049 71.5073 66.3003 71.475 66.3527 71.5333C66.4259 71.4885 66.4208 71.5326 66.4232 71.5677C66.4236 71.5738 66.4126 71.6227 66.4159 71.6443C66.417 71.6517 66.4553 71.663 66.4564 71.6728C66.457 71.6796 66.4361 71.6847 66.4371 71.6947C66.4418 71.7414 66.4435 71.7874 66.4364 71.8342C66.3379 71.8069 66.3944 71.8557 66.3897 71.8579C66.363 71.869 66.3553 71.8186 66.3386 71.8385C66.3417 71.8664 66.3447 71.8943 66.3478 71.9222C66.3599 71.8993 66.4307 71.9525 66.3985 71.9622C66.4855 71.9579 66.3227 72.0893 66.3518 72.1093C66.3579 72.1135 66.401 72.0862 66.3813 72.1494C66.3791 72.1563 66.3528 72.1537 66.3553 72.1573C66.3567 72.1594 66.4402 72.1725 66.3941 72.1863C66.3773 72.1914 66.3224 72.159 66.3445 72.2302C66.4294 72.2018 66.3905 72.3289 66.3692 72.3522C66.3806 72.3476 66.392 72.3429 66.4034 72.3382C66.3726 72.3613 66.4015 72.3655 66.4 72.3707C66.3936 72.3917 66.3645 72.4205 66.3672 72.4401C66.3702 72.4629 66.4231 72.463 66.4025 72.4897C66.4142 72.4833 66.4258 72.477 66.4375 72.4707C66.4347 72.4891 66.4319 72.5075 66.4291 72.5259C66.3591 72.4833 66.4257 72.5351 66.4272 72.5385C66.4298 72.544 66.4011 72.5361 66.4047 72.5453C66.4053 72.5462 66.4323 72.5448 66.4353 72.5589C66.4415 72.5882 66.4076 72.5836 66.408 72.5959C66.4082 72.597 66.4325 72.5931 66.4382 72.6143C66.4565 72.6819 66.4196 72.614 66.4163 72.6114C66.4118 72.608 66.3103 72.6312 66.3463 72.5737C66.3348 72.593 66.2899 72.595 66.2888 72.5971C66.2879 72.5991 66.2942 72.6325 66.2958 72.6343C66.311 72.6507 66.3417 72.6363 66.3472 72.6395C66.3517 72.6421 66.3116 72.6824 66.404 72.6918C66.3188 72.711 66.3266 72.6807 66.3135 72.6484C66.296 72.6437 66.2791 72.6792 66.2791 72.681C66.2793 72.7268 66.3493 72.7014 66.3941 72.7114C66.4175 72.7167 66.3697 72.7353 66.4325 72.7181C66.4392 72.7596 66.4028 72.7345 66.3974 72.7371C66.3895 72.7412 66.4075 72.7557 66.4051 72.7575C66.4015 72.7602 66.3798 72.7509 66.3721 72.7615C66.371 72.7632 66.4084 72.7802 66.4263 72.7583C66.421 72.7875 66.4529 72.7851 66.3886 72.795C66.5103 72.8151 66.3167 72.8096 66.3099 72.8175C66.2919 72.8386 66.3874 72.8325 66.3921 72.8336C66.4219 72.8413 66.3891 72.8996 66.4029 72.914C66.3341 72.9083 66.4021 72.8678 66.3888 72.8587C66.3444 72.8285 66.3544 72.9013 66.2679 72.8794C66.2917 72.8886 66.3154 72.8978 66.3392 72.907C66.2836 72.9238 66.2593 72.8999 66.2796 72.9453C66.3276 72.9527 66.2721 72.9132 66.3099 72.9211C66.332 72.9258 66.3368 72.9521 66.3485 72.9527C66.3626 72.9532 66.3459 72.9294 66.3675 72.9331C66.4143 72.9413 66.3698 73.0281 66.3443 72.962C66.3451 72.9805 66.2522 72.99 66.2811 73.0059C66.2999 73.0163 66.4282 72.9581 66.4047 73.0454C66.3608 73.0472 66.3918 73.0105 66.3884 73.0095C66.3836 73.0082 66.2845 73.0148 66.2796 73.016C66.2636 73.0201 66.3166 73.1091 66.2668 73.1279C66.3241 73.1205 66.277 73.1952 66.2945 73.2034C66.2993 73.2055 66.3344 73.1974 66.3381 73.1998C66.3601 73.2142 66.2976 73.2533 66.2959 73.2715C66.2941 73.2917 66.3244 73.2892 66.3243 73.2903C66.3226 73.2992 66.3021 73.2921 66.3022 73.2976C66.3023 73.3058 66.2981 73.3625 66.3024 73.3653C66.3037 73.3662 66.3383 73.3569 66.3448 73.3693C66.346 73.3714 66.305 73.3701 66.3227 73.4067C66.344 73.4507 66.3737 73.376 66.4166 73.3944C66.3555 73.4227 66.4161 73.4218 66.4113 73.4294C66.4096 73.4321 66.3581 73.4519 66.3613 73.4733C66.353 73.4579 66.3446 73.4425 66.3362 73.4271C66.3272 73.4422 66.3384 73.4717 66.3282 73.4842C66.3232 73.4903 66.2809 73.4852 66.282 73.4985C66.2825 73.5013 66.3856 73.5124 66.3393 73.4778C66.3762 73.475 66.3522 73.4915 66.3626 73.4991C66.3642 73.5003 66.4257 73.5049 66.3875 73.5146C66.3781 73.517 66.1987 73.4914 66.3285 73.5573C66.3327 73.5594 66.3552 73.5521 66.3599 73.5541C66.363 73.5556 66.3539 73.5724 66.3571 73.5742C66.3605 73.5761 66.3851 73.568 66.3899 73.5703C66.4148 73.5819 66.3175 73.5971 66.3249 73.5732C66.3129 73.5812 66.3008 73.5892 66.2888 73.5972C66.3621 73.5886 66.3094 73.6097 66.3117 73.6208C66.3261 73.6917 66.3738 73.6442 66.3985 73.6564C66.4381 73.676 66.3126 73.661 66.3503 73.6901C66.3539 73.6928 66.4071 73.6577 66.3771 73.7264C66.375 73.7162 66.3729 73.7061 66.3708 73.6959C66.2999 73.7018 66.3757 73.7326 66.3767 73.7349C66.3864 73.7619 66.3609 73.7437 66.3974 73.7837C66.4007 73.7873 66.3832 73.7951 66.3919 73.8027C66.4279 73.8344 66.4137 73.7609 66.4424 73.7589C66.4565 73.7579 66.453 73.837 66.4463 73.8397C66.4167 73.8513 66.4332 73.8039 66.3965 73.8129C66.3834 73.8162 66.4102 73.929 66.3959 73.9516C66.3793 73.9777 66.2831 73.9894 66.3912 73.9896C66.2851 73.997 66.3575 74.0035 66.3567 74.0068C66.3469 74.0472 66.3459 74.0472 66.356 74.0819C66.3582 74.0895 66.326 74.096 66.3315 74.0987C66.3348 74.1002 66.3692 74.0973 66.3798 74.105C66.3943 74.1157 66.3589 74.18 66.3399 74.1848C66.3209 74.1896 66.3316 74.1577 66.3003 74.1634C66.2972 74.1865 66.3049 74.2087 66.3016 74.232C66.3002 74.2417 66.2783 74.2367 66.2778 74.2409C66.2775 74.2426 66.2968 74.276 66.3049 74.2746C66.3237 74.2713 66.3111 74.1682 66.3494 74.1953C66.3568 74.2006 66.3063 74.2191 66.3677 74.2161C66.3538 74.3083 66.3399 74.4004 66.326 74.4925C66.2801 74.4396 66.3211 74.38 66.3168 74.3246C66.3163 74.317 66.3222 74.2913 66.2912 74.2944C66.2832 74.3416 66.2993 74.4002 66.2791 74.4455C66.2784 74.4469 66.2506 74.4416 66.2461 74.447C66.2379 74.4572 66.2829 74.4902 66.2712 74.4957C66.2685 74.4967 66.2318 74.4779 66.2084 74.4836C66.1485 74.4983 66.2812 74.502 66.2796 74.5146C66.2784 74.5244 66.2142 74.5899 66.2547 74.6063C66.298 74.6236 66.2798 74.558 66.3152 74.5628C66.3507 74.6072 66.3128 74.6522 66.3172 74.6942C66.3173 74.695 66.345 74.6885 66.3489 74.6979C66.3556 74.7142 66.3163 74.7185 66.31 74.7264C66.3034 74.735 66.309 74.7653 66.2947 74.7693C66.2928 74.7698 66.2538 74.7637 66.2527 74.7628C66.2367 74.7496 66.2872 74.7449 66.2879 74.7437C66.2898 74.7392 66.2704 74.7348 66.2716 74.7306C66.2735 74.7239 66.2914 74.7201 66.293 74.7112C66.2942 74.705 66.2598 74.711 66.2613 74.7051C66.2621 74.7029 66.3406 74.6793 66.2604 74.6772C66.2351 74.6765 66.2027 74.8689 66.2229 74.8881C66.2325 74.8716 66.2422 74.8551 66.2518 74.8386C66.2283 74.8721 66.2924 74.9123 66.1976 74.9152C66.1899 75.0394 66.1821 75.1636 66.1744 75.2878C66.1663 75.31 66.1054 75.2979 66.1231 75.3343C66.1425 75.3249 66.1619 75.3155 66.1813 75.3061C66.1677 75.3248 66.1411 75.4076 66.1537 75.421C66.1553 75.4228 66.2105 75.4252 66.2152 75.4459C66.2194 75.4643 66.1781 75.4672 66.1701 75.4771C66.1636 75.4853 66.1744 75.4946 66.1722 75.497C66.1703 75.4989 66.1451 75.4996 66.1407 75.5042C66.127 75.5184 66.1982 75.5069 66.1165 75.521C66.1134 75.5176 66.1103 75.5141 66.1072 75.5107C66.0953 75.5279 66.0583 75.5514 66.04 75.5261C66.0368 75.5217 66.0612 75.5254 66.0612 75.5222C66.0567 75.3948 66.0091 75.4965 66.0471 75.5412C66.0109 75.5526 66.033 75.6169 66.0259 75.619C66.0155 75.622 65.9866 75.611 65.9616 75.6254C65.9563 75.6284 65.9766 75.7143 65.9284 75.6834C65.9185 75.677 65.9289 75.6358 65.9275 75.6259C65.8508 75.6493 65.9607 75.704 65.9579 75.7102C65.946 75.735 65.8914 75.6625 65.8825 75.7184C65.8756 75.7614 65.9269 75.721 65.9488 75.7376C65.961 75.7469 65.9046 75.7956 65.9777 75.7943C65.9855 75.811 65.9468 75.8012 65.944 75.8033C65.9416 75.8053 65.9634 75.8381 65.948 75.8488C65.9461 75.8501 65.9081 75.846 65.905 75.8474C65.8997 75.85 65.9073 75.8817 65.9105 75.8829C65.9127 75.8837 65.946 75.8762 65.9541 75.8793C65.9634 75.8829 65.9556 75.9134 65.9651 75.9151C65.9794 75.9175 65.97 75.8798 66.0072 75.8861C65.9978 75.9034 66.0226 75.9317 66.0526 75.9432C66.044 75.9404 66.0428 75.9235 66.0458 75.9177C66.1003 75.9204 66.0996 75.9566 66.0564 75.9442C66.0796 75.9521 66.0919 75.9467 66.1137 75.9511C66.1193 75.9523 66.1204 75.9635 66.1299 75.9656C66.1317 75.9659 66.1523 75.9544 66.1634 75.9567C66.1834 75.9609 66.1789 75.9947 66.1736 75.9974C66.1588 76.0052 66.1408 75.9777 66.1178 75.9754C66.1142 75.975 66.0692 75.9985 66.0652 75.9988C66.0225 76.0002 66.0533 75.9741 66.0149 75.9771C66.0068 75.9835 65.9986 75.99 65.9905 75.9965C65.9516 75.9716 65.9716 75.9255 65.9273 75.9136C65.9405 75.9505 65.939 75.9892 65.8393 75.9891C65.7973 75.9891 65.7727 75.9731 65.762 75.9738C65.7238 75.9761 65.7653 75.9982 65.7633 75.999C65.7609 75.9997 65.7587 76 65.7565 76C65.7565 76 65.7565 76 65.7565 76C65.7341 76 65.718 75.9685 65.7078 75.9669C65.6896 75.9643 65.615 75.9783 65.5985 75.9783C65.5952 75.9778 65.5775 75.9553 65.5487 75.9629C65.5196 75.9706 65.5189 75.9902 65.5159 75.9909C65.4985 75.9946 65.4826 75.9603 65.4723 75.9593C65.4671 75.9587 65.4352 75.9772 65.426 75.9777C65.4168 75.9782 65.3967 75.9642 65.3676 75.9586C65.346 75.9545 65.3294 75.9665 65.326 75.9644C65.3238 75.9629 65.3241 75.9304 65.3203 75.9288C65.3147 75.9264 65.2889 75.934 65.2824 75.9329C65.2731 75.9314 65.2825 75.9209 65.2729 75.9223C65.2658 75.9233 65.1767 75.9639 65.153 75.9637C65.1124 75.9632 65.2057 75.9202 65.0457 75.9602C65.0446 75.9605 65.056 75.9702 65.055 75.9705C65.0255 75.9765 64.9802 75.9453 64.9882 75.9835C64.937 75.9124 64.9272 75.9746 64.8589 75.9641C64.8326 75.9601 64.8218 75.9325 64.8179 75.9324C64.7846 75.935 64.8104 75.9438 64.7941 75.9468C64.7849 75.9485 64.7497 75.9238 64.7269 75.9293C64.7151 75.9322 64.7193 75.9584 64.717 75.9595C64.6953 75.9698 64.6719 75.9571 64.6565 75.9594C64.6462 75.9609 64.6454 75.9767 64.6435 75.9771C64.6397 75.9778 64.598 75.9563 64.5833 75.9519C64.572 75.9485 64.5543 75.9612 64.5494 75.9589C64.52 75.9446 64.595 75.9142 64.4899 75.9435C64.4835 75.9453 64.4861 75.9563 64.4848 75.9567C64.455 75.9635 64.4524 75.9431 64.428 75.9395C64.386 75.9332 64.4094 75.9625 64.3799 75.9381C64.3524 75.9564 64.3535 75.9666 64.3612 75.988C64.3398 75.9288 64.231 75.9079 64.2337 75.9736C64.2354 75.9527 64.174 75.955 64.1729 75.9488C64.1723 75.9449 64.2334 75.9146 64.0964 75.9285C64.0793 75.9302 64.101 75.9486 64.066 75.9429C64.0749 75.8987 64.0437 75.9419 64.0391 75.942C63.9584 75.9414 64.0245 75.8334 64.0153 75.8148C64.0046 75.7933 63.941 75.7741 63.9409 75.7695C63.9409 75.754 63.9732 75.7668 63.9851 75.7634C63.9968 75.7599 63.935 75.7161 63.9384 75.7139C63.952 75.7054 63.9903 75.714 63.9922 75.7131C64.0157 75.7026 63.9857 75.6438 63.9946 75.6273C63.9698 75.6278 63.9678 75.6609 63.9279 75.6403C63.8815 75.6162 63.9909 75.6149 63.9957 75.6142C63.9947 75.5041 63.9936 75.3939 63.9926 75.2838C63.9344 75.2851 63.9783 75.3572 63.9706 75.3588C63.9252 75.3684 63.9261 75.2468 63.9466 75.2318C63.934 75.2432 63.9215 75.2545 63.9089 75.2658C63.842 75.2465 63.9289 75.2036 63.8994 75.1756C63.8898 75.1666 63.864 75.184 63.8622 75.1836C63.8362 75.1734 63.8562 75.1571 63.8911 75.1693C63.8577 75.1445 63.8946 75.1481 63.8974 75.1291C63.8975 75.1281 63.8705 75.1363 63.8593 75.1212C63.854 75.1142 63.854 75.0765 63.8303 75.0715C63.8204 75.0694 63.7157 75.0885 63.8058 75.0908C63.7619 75.1318 63.8469 75.1039 63.8448 75.1198C63.8443 75.1223 63.794 75.1167 63.8177 75.1567C63.727 75.1491 63.7948 75.103 63.7838 75.095C63.7612 75.0787 63.7144 75.146 63.7851 75.1583C63.7143 75.1525 63.7756 75.1631 63.7727 75.178C63.7695 75.1944 63.7484 75.1873 63.7483 75.1962C63.7478 75.2204 63.7978 75.2104 63.7527 75.2304C63.8922 75.2109 63.7711 75.2646 63.7346 75.2803C63.7275 75.2548 63.7204 75.2293 63.7133 75.2038C63.706 75.2053 63.6987 75.2068 63.6914 75.2082C63.6924 75.2015 63.6934 75.1948 63.6945 75.1881C63.7015 75.1891 63.7085 75.1902 63.7155 75.1913C63.6699 75.1567 63.7212 75.1482 63.7218 75.1454C63.7277 75.1091 63.7273 75.0671 63.7274 75.0303C63.7275 75.0248 63.6818 75.0286 63.7175 74.9884C63.7289 74.9756 63.7644 74.9877 63.7591 74.9732C63.6626 74.955 63.7396 74.9554 63.7397 74.95C63.7397 74.9345 63.7158 74.925 63.7155 74.9235C63.7118 74.9044 63.7158 74.8763 63.7122 74.8553C63.7119 74.8549 63.6822 74.8658 63.691 74.8522C63.6941 74.8474 63.8207 74.8043 63.7794 74.7667C63.7709 74.7765 63.7623 74.7863 63.7538 74.7961C63.7657 74.7846 63.7338 74.7039 63.7 74.7236C63.6793 74.7357 63.7608 74.7652 63.6824 74.7685C63.7059 74.7416 63.6707 74.5934 63.689 74.5818C63.6916 74.5803 63.717 74.5901 63.7203 74.5879C63.7228 74.5862 63.7167 74.5522 63.7265 74.5477C63.7323 74.545 63.7479 74.56 63.7571 74.5588C63.7636 74.5577 63.7745 74.5153 63.7426 74.5129C63.7554 74.5233 63.7443 74.5526 63.7174 74.5372C63.714 74.5353 63.7346 74.525 63.7304 74.5226C63.6913 74.5004 63.7006 74.5669 63.7003 74.5772C63.6597 74.5354 63.7076 74.4708 63.6811 74.4224C63.7077 74.4028 63.7217 74.4514 63.7437 74.4293C63.7893 74.3833 63.707 74.417 63.7036 74.4156C63.6768 74.4042 63.8204 74.3654 63.7111 74.3653C63.7276 74.3487 63.7414 74.3541 63.7271 74.3306C63.7195 74.3337 63.7119 74.3368 63.7044 74.3399C63.6411 74.3138 63.8008 74.2586 63.8129 74.2627C63.8455 74.2739 63.7947 74.3026 63.7959 74.3051C63.7977 74.3087 63.9086 74.3187 63.8095 74.3585C63.8838 74.3748 63.8597 74.2955 63.9104 74.3316C63.902 74.3072 63.9538 74.2069 63.9212 74.1925C63.9169 74.1908 63.8428 74.1988 63.8805 74.174C63.8985 74.1623 63.8993 74.1906 63.9162 74.1852C63.968 74.1687 63.9349 73.9435 63.9321 73.9007C63.9321 73.8979 63.9551 73.899 63.9549 73.8962C63.9542 73.8879 63.9199 73.8573 63.9305 73.8423C63.8879 73.8734 63.8846 73.813 63.8893 73.7977C63.8964 73.7744 63.9369 73.7758 63.9455 73.7657C63.9787 73.7269 63.8826 73.6668 63.9724 73.6367C63.8833 73.6383 64.0161 73.5845 64.0169 73.5601C64.0176 73.5409 63.9586 73.5131 63.9226 73.539C63.9267 73.5059 63.9101 73.4711 63.9047 73.44C63.9038 73.4349 63.9301 73.442 63.9278 73.4332C63.9273 73.4324 63.9015 73.4313 63.8988 73.4238C63.8763 73.3617 63.9312 73.3919 63.9473 73.3803C63.9564 73.3738 63.9609 73.369 63.9624 73.3655C63.9674 73.4017 63.9776 73.4434 63.9783 73.4546C64.0353 73.445 63.9673 73.3744 63.9827 73.3537C63.9832 73.353 64.0147 73.3555 64.0149 73.3548C64.0149 73.3547 64.0149 73.3547 64.0149 73.3547C64.0173 73.347 64.0057 73.2976 63.9682 73.3078C63.9582 73.3105 63.9582 73.3332 63.9616 73.3602C63.9546 73.3529 63.9194 73.3583 63.9179 73.357C63.9005 73.3414 63.9348 73.3032 63.9395 73.2896C63.9405 73.2865 63.9179 73.2867 63.9179 73.2862C63.923 73.2739 63.9874 73.2789 63.921 73.2663C64.0013 73.2439 63.9329 73.3082 63.9851 73.3036C64.0252 73.3002 64.0037 73.1575 63.9404 73.1579C63.9472 73.1574 63.9556 73.1555 63.9651 73.1514C63.9863 73.1425 63.9797 73.1028 63.968 73.096C63.9657 73.0948 63.9043 73.0953 63.9038 73.0938C63.9024 73.0903 63.9505 73.0417 63.9142 73.0236C63.9056 73.0334 63.897 73.0432 63.8884 73.053C63.8879 72.9938 63.8696 73.003 63.8512 73.0227C63.851 73.0237 63.8487 73.0246 63.8485 73.0256C63.8349 73.0408 63.8218 73.0604 63.817 73.0607C63.7985 73.0618 63.7882 72.9615 63.8452 72.9808C63.853 72.9835 63.8276 73.0299 63.8682 73.0069C63.8754 73.0029 63.8638 72.9731 63.8682 72.9715C63.898 72.9611 63.9376 73.0261 63.9799 73.0182C63.9396 73.0024 63.9609 72.9821 63.9505 72.964C63.9458 72.9558 63.915 72.9538 63.9144 72.9527C63.9063 72.9375 63.9386 72.9461 63.9378 72.941C63.9373 72.9383 63.8686 72.9083 63.9633 72.914C63.8936 72.8153 63.8937 72.8867 63.899 72.9472C63.8645 72.9281 63.8812 72.8906 63.8732 72.8738C63.8703 72.8677 63.8387 72.8713 63.8324 72.8611C63.8193 72.8401 63.8557 72.7399 63.8642 72.7138C63.8754 72.7298 63.9098 72.7251 63.9074 72.7128C63.905 72.7004 63.8591 72.7108 63.8541 72.7084C63.849 72.7058 63.8707 72.6477 63.8648 72.6381C63.8814 72.6818 63.9157 72.6719 63.9193 72.6348C63.9292 72.6402 63.9391 72.6455 63.949 72.6509C63.9351 72.6292 63.9875 72.5834 63.9719 72.5709C63.9694 72.5689 63.9405 72.576 63.9391 72.5749C63.9268 72.5638 63.9563 72.5263 63.9464 72.5246C63.9382 72.5231 63.914 72.5391 63.9021 72.5332C63.8996 72.5319 63.9386 72.5165 63.929 72.5013C63.9255 72.4957 63.8982 72.4991 63.8966 72.4976C63.8835 72.4858 63.9295 72.4928 63.9221 72.4712C63.9166 72.4553 63.8717 72.4435 63.8866 72.4216C63.8293 72.4935 63.8532 72.4331 63.8358 72.403C63.8331 72.3982 63.7835 72.4023 63.8076 72.3735C63.8972 72.4348 63.855 72.3561 63.856 72.3399C63.8563 72.3391 63.889 72.3388 63.8895 72.3309C63.8895 72.3302 63.8674 72.3312 63.8657 72.3238C63.8497 72.2542 63.8747 72.2987 63.8964 72.2855C63.9057 72.2798 63.8745 72.246 63.8737 72.2369C63.8737 72.2348 63.8966 72.2357 63.8957 72.2276C63.8941 72.2133 63.8696 72.2004 63.8677 72.1909C63.8676 72.1898 63.9038 72.1898 63.892 72.1718C63.8888 72.1668 63.8759 72.1611 63.8655 72.1683C63.8313 72.192 63.8905 72.2372 63.8563 72.264C63.8252 72.2886 63.8223 72.2113 63.8221 72.2072C63.822 72.2058 63.84 72.2209 63.8435 72.2055C63.8465 72.1924 63.7839 72.1685 63.7976 72.149C63.7986 72.1475 63.8516 72.1319 63.8547 72.1326C63.857 72.1333 63.8685 72.1572 63.8838 72.1537C63.8856 72.1533 63.8852 72.1381 63.8966 72.1361C63.9105 72.1337 64.047 72.1271 64.0504 72.1239C64.0589 72.1155 64.0278 72.1209 64.0299 72.1155C64.0345 72.104 64.0749 72.0638 64.0275 72.0625C64.0247 72.0692 64.0219 72.0758 64.0191 72.0824C64.0143 72.0455 63.9941 72.0613 63.9853 72.056C63.9757 72.0504 64.0172 72.052 64.0211 72.0396C64.022 72.0369 64.0133 71.9848 63.9959 71.9858C64.0236 72.0145 63.9723 72.0039 63.9713 72.0052C63.968 72.0102 63.9968 72.0167 63.9962 72.0234C63.9917 72.071 63.9462 72.023 63.9345 72.0343C63.9306 72.0381 63.9552 72.0458 63.9539 72.0475C63.9499 72.0528 63.9176 72.0529 63.9202 72.0565C63.9263 72.0647 63.9719 72.0551 63.9743 72.0557C64.0028 72.0631 63.9673 72.0922 63.9177 72.0741C63.8998 72.085 63.9601 72.0862 63.936 72.0948C63.8883 72.112 63.9005 72.0863 63.8926 72.0794C63.864 72.0544 63.8871 72.0471 63.8792 72.0118C63.8764 71.9991 63.8471 71.984 63.8455 71.9781C63.8445 71.9744 63.9464 71.9394 63.7869 71.9383C63.8024 71.9247 63.9075 71.9033 63.9027 71.8893C63.8983 71.8767 63.8419 71.8807 63.8397 71.8795C63.8362 71.8777 63.8407 71.8625 63.8327 71.8573C63.8233 71.8513 63.8018 71.8543 63.793 71.8447C63.7712 71.8208 63.8288 71.8215 63.8325 71.819C63.8758 71.7905 63.7939 71.803 63.7873 71.7967C63.7813 71.7908 63.8128 71.7084 63.7921 71.6911C63.8036 71.6981 63.8151 71.7052 63.8267 71.7123C63.8626 71.6996 63.804 71.6862 63.8684 71.686C63.7644 71.6834 63.8339 71.6574 63.8313 71.6495C63.8301 71.6465 63.8124 71.6467 63.8117 71.6428C63.8086 71.6278 63.8227 71.5937 63.8137 71.5855C63.775 71.5502 63.7106 71.6407 63.7067 71.6478C63.7079 71.6335 63.6846 71.5528 63.6346 71.5899C63.6269 71.5957 63.6734 71.6058 63.6752 71.609C63.6872 71.6308 63.6455 71.6137 63.6415 71.6154C63.6351 71.6183 63.6755 71.6326 63.6707 71.6364C63.6691 71.6377 63.6314 71.6296 63.6306 71.6503C63.5939 71.6401 63.6238 71.5817 63.6152 71.574C63.6121 71.5713 63.5339 71.5884 63.6099 71.5384C63.6026 71.539 63.5953 71.5396 63.5881 71.5402C63.5851 71.5123 63.5821 71.4845 63.5791 71.4566C63.5958 71.4597 63.6295 71.4753 63.6223 71.4556C63.6182 71.4443 63.5809 71.4527 63.5798 71.4516C63.5696 71.4415 63.582 71.2614 63.5778 71.2265C63.5765 71.2147 63.5465 71.1816 63.546 71.1791C63.543 71.164 63.5625 71.1106 63.5582 71.0999C63.5555 71.0933 63.5244 71.0996 63.5258 71.0937C63.5272 71.0881 63.5573 71.0939 63.5586 71.0922C63.5695 71.0786 63.53 70.9754 63.5584 70.9509C63.5499 70.9658 63.6101 71.0406 63.6313 71.0391C63.6342 71.0388 63.6571 71.0206 63.6459 71.0169C63.672 71.0107 63.5926 70.9894 63.6082 70.9778C63.61 70.9765 63.6545 70.9817 63.6626 70.961C63.6654 70.9539 63.6307 70.9353 63.6696 70.9166C63.6509 70.8894 63.7086 70.7468 63.6608 70.737C63.6582 70.7367 63.6418 70.7568 63.6221 70.7432C63.596 70.7252 63.684 70.7414 63.6915 70.7204C63.6927 70.7172 63.6838 70.6587 63.6784 70.6568C63.629 70.6391 63.609 70.6902 63.6033 70.6895C63.5888 70.6877 63.5801 70.6452 63.5835 70.6435C63.587 70.6418 63.6524 70.6765 63.6276 70.6349C63.6198 70.6396 63.612 70.6444 63.6042 70.6492C63.589 70.6296 63.6342 70.6277 63.637 70.623C63.6457 70.6082 63.577 70.5923 63.6619 70.5687C63.6844 70.5624 63.7094 70.5728 63.7128 70.572C63.7431 70.5645 63.662 70.5549 63.7225 70.5437C63.727 70.5428 63.7632 70.5691 63.7633 70.5232C63.7575 70.5263 63.7517 70.5295 63.7459 70.5326C63.733 70.5262 63.7253 70.4797 63.7283 70.4735C63.7373 70.4552 63.7789 70.4711 63.7739 70.4528C63.7169 70.4645 63.7094 70.4087 63.7586 70.4119C63.6969 70.4041 63.7445 70.3567 63.7459 70.3344C63.7468 70.3204 63.7199 70.2917 63.723 70.2872C63.7269 70.2818 63.769 70.2834 63.7783 70.2736C63.781 70.2708 63.7502 70.2415 63.7937 70.2158C63.8021 70.2109 63.8735 70.2004 63.8913 70.2097C63.9218 70.2255 63.8643 70.2555 63.9065 70.2551C63.9516 70.2546 63.9248 70.2143 63.9307 70.2034C63.9579 70.1533 64.0059 70.1822 64.0204 70.1809C64.0557 70.1776 64.0546 70.1502 64.0578 70.1491C64.0719 70.1443 64.0998 70.1637 64.1213 70.164C64.1493 70.1644 64.1999 70.138 64.2094 70.144C64.2228 70.1526 64.1806 70.1768 64.1826 70.1784C64.2098 70.1984 64.2746 70.171 64.3064 70.1634C64.3162 70.1611 64.3323 70.1702 64.3352 70.1683C64.3787 70.1393 64.2442 70.1622 64.2531 70.1429C64.2612 70.1257 64.3037 70.1478 64.3061 70.1472C64.3086 70.1463 64.311 70.1257 64.326 70.1225C64.3336 70.1209 64.4164 70.1745 64.4535 70.1722C64.4453 70.1551 64.4371 70.1381 64.4289 70.121C64.4773 70.1196 64.4417 70.1442 64.4467 70.1467C64.4567 70.1519 64.4812 70.1376 64.4965 70.1382C64.5062 70.1385 64.541 70.1553 64.5553 70.1402C64.5602 70.135 64.5263 70.124 64.561 70.1051C64.6052 70.171 64.6324 70.1253 64.6496 70.1234C64.6667 70.1215 64.7071 70.153 64.6999 70.1148C64.7941 70.1131 64.7297 70.1156 64.7463 70.1264C64.7666 70.1397 64.7976 70.109 64.7741 70.1576C64.8182 70.1548 64.8151 70.1158 64.8186 70.1137C64.8218 70.1119 64.8435 70.1206 64.8508 70.1175C64.936 70.0809 64.8971 70.1061 64.9515 70.0955C64.9564 70.0945 64.9766 70.0599 64.9845 70.0863C64.9989 70.1342 64.9364 70.1543 65.07 70.1624C65.128 70.1269 65.0418 70.0839 65.0403 70.0731C65.0382 70.0566 65.0655 70.0737 65.0731 70.0716C65.0756 70.0709 65.0733 70.0567 65.0755 70.0565C65.1774 70.0464 65.0772 70.1199 65.0949 70.143C65.1102 70.1368 65.1254 70.1306 65.1407 70.1244C65.1413 70.1328 65.1419 70.1412 65.1425 70.1496C65.1732 70.1095 65.1541 70.1482 65.2366 70.1582C65.2552 70.1605 65.2234 70.1341 65.2749 70.1642C65.2868 70.142 65.3037 70.1491 65.2804 70.129C65.3135 70.1295 65.3508 70.1747 65.3677 70.1925C65.4049 70.1296 65.2836 70.1654 65.3478 70.1111C65.3068 70.101 65.3148 70.1269 65.3081 70.1248C65.2838 70.1172 65.3223 70.0994 65.2372 70.0779C65.2232 70.0744 65.1802 70.0892 65.1823 70.0673C65.1826 70.0649 65.2193 70.051 65.222 70.0512C65.2508 70.053 65.24 70.0668 65.252 70.0674C65.2634 70.0679 65.2566 70.0525 65.2597 70.0525C65.2958 70.052 65.2735 70.0653 65.2848 70.0634C65.3094 70.0592 65.387 70.0038 65.3643 70.0761C65.3235 70.016 65.3244 70.0684 65.3401 70.0918C65.344 70.0978 65.3656 70.0993 65.3731 70.1078C65.3827 70.1187 65.3724 70.1315 65.3764 70.1372C65.3807 70.1433 65.4317 70.1087 65.4165 70.1587C65.4671 70.1332 65.4131 70.0883 65.4487 70.0633C65.5206 70.0129 65.536 70.0985 65.543 70.1074C65.5449 70.1098 65.574 70.1018 65.5758 70.1034C65.5785 70.106 65.565 70.1545 65.5891 70.1593C65.6132 70.1641 65.588 70.1415 65.6131 70.14C65.63 70.139 65.66 70.1976 65.6715 70.1659C65.6794 70.144 65.6115 70.1037 65.6845 70.0969C65.6906 70.1291 65.6966 70.1613 65.7027 70.1934C65.7304 70.1758 65.7582 70.1582 65.786 70.1406C65.7948 70.1767 65.7634 70.2079 65.8032 70.2422C65.8922 70.1598 65.8742 70.2689 65.885 70.2701C65.8915 70.2705 65.9638 70.2381 65.977 70.2329C66.0048 70.2616 66.0183 70.3489 66.1075 70.2979C66.0874 70.3071 66.1371 70.3296 66.1409 70.3293C66.1803 70.3264 66.1547 70.2775 66.1903 70.2855C66.2316 70.2947 66.1756 70.3077 66.18 70.3219C66.2034 70.395 66.4091 70.3749 66.3765 70.4482C66.3838 70.4467 66.3912 70.4453 66.3985 70.4438C66.3868 70.5234 66.3752 70.6031 66.3635 70.6827C66.4263 70.7139 66.4646 70.7968 66.4576 70.8375C66.4563 70.8457 66.4233 70.886 66.4175 70.889C66.4065 70.8946 66.4022 70.8637 66.3815 70.8777C66.3772 70.8806 66.3633 70.9488 66.3985 70.9439C66.4026 70.9363 66.3849 70.9124 66.3932 70.9084C66.4523 70.881 66.4051 71.0911 66.4289 71.1015C66.4403 71.0969 66.4517 71.0922 66.4631 71.0875C66.4575 71.1008 66.4519 71.1141 66.4463 71.1273ZM63.6236 70.518C63.5883 70.5101 63.6148 70.4901 63.6049 70.4783C63.5911 70.462 63.4553 70.4344 63.5914 70.4463C63.6021 70.4702 63.6129 70.4941 63.6236 70.518ZM63.5711 70.8675C63.59 70.8514 63.666 70.8639 63.6344 70.877C63.6308 70.8785 63.5456 70.8892 63.5711 70.8675ZM63.6071 70.6994C63.6081 70.7001 63.6061 70.7139 63.6049 70.7144C63.5744 70.7268 63.5806 70.6851 63.6071 70.6994ZM63.6461 71.5114C63.6428 71.4937 63.5737 71.5065 63.6022 71.5175C63.604 71.5182 63.6463 71.5126 63.6461 71.5114ZM63.648 71.4988C63.7098 71.4851 63.5844 71.4575 63.5971 71.4794C63.5983 71.4816 63.6449 71.4995 63.648 71.4988ZM63.6013 70.8103C63.625 70.8121 63.6135 70.8287 63.6079 70.8357C63.5862 70.8355 63.6039 70.8173 63.6013 70.8103ZM63.6079 71.2297C63.6265 71.2304 63.6255 71.1729 63.6009 71.169C63.6113 71.178 63.5911 71.229 63.6079 71.2297ZM63.634 71.3771C63.6373 71.3756 63.6324 71.3558 63.6159 71.3563C63.5943 71.366 63.6195 71.3836 63.634 71.3771ZM63.6329 71.6701C63.6371 71.6712 63.7418 71.6563 63.6729 71.6915C63.6628 71.6967 63.6354 71.6782 63.6317 71.6801C63.6243 71.6839 63.6209 71.687 63.6203 71.6894C63.6116 71.673 63.6075 71.656 63.6139 71.6543C63.6439 71.6466 63.6312 71.6696 63.6329 71.6701ZM63.7109 71.8239C63.728 71.8273 63.7189 71.8489 63.7119 71.8538C63.7105 71.8547 63.6657 71.851 63.669 71.8607C63.6718 71.8685 63.7178 71.8569 63.7104 71.8721C63.703 71.8874 63.6703 71.8669 63.6679 71.8682C63.6649 71.87 63.6855 71.8938 63.6588 71.8931C63.639 71.8925 63.6523 71.8671 63.6481 71.8608C63.6427 71.8527 63.6097 71.8625 63.6168 71.849C63.6213 71.8405 63.6793 71.8452 63.6822 71.8434C63.6846 71.8419 63.6512 71.8123 63.7108 71.824C63.7108 71.824 63.7109 71.8239 63.7109 71.8239ZM63.6229 71.6939C63.6209 71.6926 63.6199 71.6912 63.6203 71.6894C63.6211 71.6909 63.622 71.6924 63.6229 71.6939ZM63.6491 70.5643C63.6312 70.5727 63.6082 70.5479 63.6317 70.5386C63.6506 70.5384 63.6518 70.563 63.6491 70.5643ZM63.6701 71.7091C63.6556 71.7335 63.6356 71.7155 63.6229 71.6939C63.6338 71.7007 63.675 71.7009 63.6701 71.7091ZM63.6459 71.0169C63.6416 71.0179 63.6349 71.0185 63.6238 71.0186C63.6359 71.0159 63.6424 71.0157 63.6459 71.0169ZM63.6262 71.0737C63.6599 71.0932 63.6586 71.0536 63.6344 71.0539C63.6253 71.054 63.6248 71.073 63.6262 71.0737ZM63.6428 71.5341C63.6461 71.5323 63.7481 71.56 63.6716 71.5197C63.6596 71.5412 63.6485 71.5186 63.6395 71.5189C63.6139 71.5198 63.6385 71.5558 63.6274 71.5638C63.6734 71.5701 63.6319 71.5399 63.6428 71.5341C63.6428 71.5341 63.6428 71.5341 63.6428 71.5341ZM63.6862 72.1012C63.6593 72.0963 63.668 72.0808 63.6696 72.0703C63.6965 72.0752 63.6878 72.0907 63.6862 72.1012ZM63.6824 74.8389C63.6575 74.7672 63.7671 74.7579 63.7238 74.8235C63.7229 74.8248 63.6935 74.8433 63.6824 74.8389ZM63.7108 74.2237C63.7585 74.2169 63.7662 74.2393 63.7465 74.254C63.742 74.2573 63.6937 74.2696 63.6842 74.2555C63.7421 74.256 63.7642 74.2343 63.7108 74.2237ZM63.7007 71.7229C63.7325 71.73 63.7099 71.7518 63.7051 71.7633C63.6789 71.7563 63.6907 71.733 63.7007 71.7229ZM63.7395 74.6033C63.7431 74.5958 63.7016 74.5907 63.6981 74.592C63.6823 74.5978 63.7159 74.612 63.7395 74.6033ZM63.7056 71.6523C63.7247 71.6513 63.743 71.6803 63.6959 71.6823C63.6993 71.6761 63.6937 71.653 63.7056 71.6523ZM63.7005 72.0814C63.7102 72.077 63.7275 72.1002 63.7179 72.1073C63.6977 72.1067 63.6942 72.0844 63.7005 72.0814ZM63.7254 74.4817C63.729 74.4749 63.7301 74.458 63.7133 74.4561C63.6923 74.4538 63.6995 74.4786 63.7254 74.4817ZM63.7617 75.7407C63.7541 75.7415 63.6998 75.7154 63.7135 75.7037C63.7398 75.6816 63.767 75.7398 63.7617 75.7407ZM63.7609 74.6749C63.7214 74.6962 63.7597 74.6725 63.7181 74.6734C63.7166 74.6878 63.7145 74.7235 63.7554 74.699C63.7634 74.6942 63.7582 74.6816 63.7609 74.6749ZM63.7749 74.6552C63.7614 74.6529 63.7189 74.6375 63.7219 74.6508C63.7234 74.657 63.7706 74.6669 63.7749 74.6552ZM63.7432 75.5785C63.78 75.5593 63.7602 75.647 63.7538 75.6495C63.7504 75.6509 63.7472 75.6517 63.7445 75.6522C63.7561 75.6555 63.7582 75.672 63.7287 75.6739C63.7311 75.669 63.7286 75.6554 63.7318 75.6538C63.7332 75.6532 63.7345 75.6527 63.7359 75.6523C63.7102 75.6465 63.7362 75.5821 63.7432 75.5785ZM63.7811 75.4332C63.8354 75.4551 63.743 75.459 63.7401 75.4571C63.7023 75.4332 63.7704 75.4488 63.7736 75.4481C63.7789 75.4464 63.7473 75.4295 63.7811 75.4333C63.7811 75.4332 63.7811 75.4332 63.7811 75.4332ZM63.7584 75.5487C63.7596 75.5496 63.7567 75.568 63.7553 75.5687C63.7242 75.5838 63.7322 75.5318 63.7584 75.5487ZM63.7756 71.9399C63.7664 71.953 63.7324 71.9401 63.7446 71.9314C63.7458 71.9307 63.7837 71.9283 63.7756 71.9399ZM63.7657 74.6447C63.7721 74.6416 63.7963 74.5636 63.745 74.5683C63.7511 74.5749 63.7246 74.6636 63.7657 74.6447ZM63.7782 74.0616C63.7778 74.0754 63.7293 74.0604 63.7474 74.0531C63.7541 74.0503 63.7782 74.0582 63.7782 74.0616ZM63.7496 71.6133C63.723 71.599 63.8122 71.602 63.7816 71.6143C63.7804 71.6148 63.7506 71.6139 63.7496 71.6133ZM63.7503 74.1716C63.721 74.1241 63.8745 74.1353 63.8226 74.197C63.8158 74.1951 63.809 74.1932 63.8021 74.1912C63.7791 74.2624 63.7913 74.1961 63.7827 74.1787C63.7795 74.172 63.7538 74.1776 63.7501 74.1716C63.7502 74.1716 63.7503 74.1716 63.7503 74.1716ZM63.7811 73.9893C63.89 73.9436 63.8191 74.0308 63.8333 74.0559C63.7883 74.0316 63.7951 74 63.749 74.043C63.7401 73.9802 63.7835 74.0063 63.7871 74.0038C63.7912 74.0008 63.7764 73.9912 63.7811 73.9893ZM63.7818 74.1098C63.785 74.1125 63.7628 74.1324 63.7664 74.1395C63.7292 74.1295 63.7602 74.0923 63.7818 74.1098ZM63.7558 75.2809C63.785 75.2826 63.8064 75.2866 63.7955 75.3023C63.7809 75.2975 63.7683 75.2875 63.7558 75.2809ZM63.7771 70.5029C63.7791 70.4921 63.7901 70.4706 63.7595 70.4772C63.7569 70.4779 63.7598 70.5029 63.7771 70.5029ZM63.7893 74.4181C63.7929 74.4158 63.7953 74.3563 63.7631 74.3768C63.7534 74.383 63.7576 74.4372 63.7893 74.4181ZM63.7857 74.7262C63.786 74.7212 63.7805 74.701 63.7736 74.7005C63.7497 74.6992 63.7628 74.724 63.7857 74.7262ZM63.8069 70.4483C63.8099 70.4469 63.8046 70.4139 63.7904 70.4175C63.7637 70.4244 63.7965 70.4532 63.8069 70.4483ZM63.8439 71.9877C63.845 71.9905 63.8133 71.9942 63.8129 71.9951C63.8125 71.9974 63.8247 72.0479 63.784 72.0286C63.7772 72.0254 63.7928 71.9526 63.7968 71.9432C63.8403 71.9395 63.7989 71.9706 63.8034 71.9782C63.8043 71.9795 63.8406 71.9803 63.8437 71.9877C63.8438 71.9877 63.8438 71.9877 63.8439 71.9877ZM63.7866 75.3627C63.8142 75.365 63.8325 75.4244 63.799 75.4237C63.7949 75.4034 63.7907 75.3831 63.7866 75.3627ZM63.7912 75.3325C63.8107 75.3199 63.8172 75.3496 63.8085 75.3583C63.79 75.3584 63.7883 75.3344 63.7912 75.3325ZM63.8889 74.6134C63.8822 74.6075 63.8418 74.6258 63.834 74.6217C63.8291 74.6191 63.8442 74.6057 63.8316 74.6015C63.8276 74.6003 63.7897 74.6139 63.7913 74.6178C63.7935 74.6234 63.8234 74.618 63.8236 74.6241C63.8242 74.6444 63.8029 74.6623 63.8034 74.6813C63.8035 74.683 63.8246 74.6697 63.8243 74.6844C63.8243 74.6866 63.7929 74.7002 63.7976 74.7177C63.8948 74.7564 63.7993 74.7847 63.8344 74.8338C63.8435 74.832 63.8681 74.7953 63.869 74.7931C63.885 74.7521 63.8867 74.6787 63.8869 74.6357C63.887 74.6247 63.8664 74.63 63.8657 74.6253C63.8651 74.6215 63.9032 74.626 63.8889 74.6134ZM63.7981 70.5087C63.8362 70.5035 63.8121 70.4854 63.814 70.4739C63.7797 70.4779 63.8065 70.4974 63.7981 70.5087ZM63.8206 75.0657C63.8192 75.0599 63.8306 75.042 63.8192 75.0405C63.8042 75.0386 63.7948 75.0645 63.8206 75.0657ZM63.8331 72.2728C63.8341 72.2734 63.8321 72.2873 63.8309 72.2878C63.8004 72.3003 63.8066 72.2585 63.8331 72.2728ZM63.8258 72.606C63.8305 72.6165 63.8423 72.6272 63.8115 72.6307C63.8162 72.624 63.8043 72.6047 63.8258 72.606ZM63.8267 73.0656C63.8671 73.0635 63.8409 73.0953 63.8373 73.1013C63.8193 73.099 63.7975 73.0672 63.8267 73.0656ZM63.8827 75.2786C63.8803 75.298 63.9415 75.2939 63.9138 75.3063C63.9092 75.3083 63.7816 75.3148 63.8294 75.2934C63.838 75.2896 63.8683 75.3046 63.8827 75.2786ZM63.8214 74.2071C63.8481 74.212 63.8402 74.2275 63.838 74.2379C63.8182 74.2356 63.8233 74.2145 63.8214 74.2071ZM63.8375 70.3887C63.8752 70.3796 63.8472 70.3374 63.8223 70.3479C63.819 70.3494 63.8389 70.3828 63.8375 70.3887ZM63.8226 71.7723C63.8524 71.7896 63.8616 71.7537 63.8325 71.7424C63.8344 71.7475 63.8207 71.7711 63.8226 71.7723ZM63.8486 72.9552C63.8499 72.9561 63.847 72.9744 63.8455 72.9753C63.8145 72.9903 63.8224 72.9383 63.8486 72.9552ZM63.8748 72.4964C63.8993 72.503 63.8796 72.5466 63.8551 72.5563C63.8193 72.5469 63.8443 72.4882 63.8748 72.4964ZM63.8653 75.1986C63.8666 75.2125 63.859 75.2257 63.8485 75.2384C63.8279 75.2357 63.8499 75.2001 63.8653 75.1986ZM63.8512 73.0227C63.851 73.0237 63.8487 73.0246 63.8485 73.0256C63.8493 73.0246 63.8503 73.0236 63.8512 73.0227ZM63.8798 74.8883C63.8879 74.8767 63.8502 74.8791 63.849 74.8798C63.8368 74.8886 63.8706 74.9015 63.8798 74.8883ZM63.8541 70.4954C63.8882 70.4914 63.8618 70.4718 63.8699 70.4606C63.843 70.4638 63.8506 70.4863 63.8541 70.4954ZM63.8508 73.9404C63.8878 73.9258 63.9307 73.9852 63.9069 73.9977C63.8841 73.9986 63.8458 73.9425 63.8508 73.9404ZM63.8737 71.7185C63.9004 71.7173 63.8682 71.6924 63.8556 71.6977C63.8476 71.701 63.8572 71.7192 63.8737 71.7185ZM63.8913 74.0275C63.8995 74.0331 63.8731 74.0461 63.8571 74.0415C63.8365 74.0357 63.889 74.0261 63.8913 74.0275ZM63.9127 74.5282C63.9168 74.5258 63.8894 74.493 63.8622 74.5065C63.8433 74.5159 63.8819 74.5174 63.882 74.5196C63.8819 74.5221 63.8346 74.5748 63.9127 74.5282ZM63.8741 73.6077C63.8844 73.6201 63.8725 73.6351 63.8732 73.648C63.8567 73.6427 63.8522 73.613 63.8741 73.6077ZM63.8809 71.8146C63.8917 71.8116 63.8982 71.7297 63.8649 71.7763C63.8631 71.779 63.8482 71.8238 63.8809 71.8146ZM63.8827 75.2786C63.883 75.2762 63.8843 75.2733 63.8869 75.2701C63.8859 75.2733 63.8841 75.2761 63.8827 75.2786ZM63.8867 75.0579C63.9062 75.0624 63.9114 75.0398 63.901 75.0332C63.8773 75.0311 63.884 75.0573 63.8867 75.0579ZM63.9003 73.649C63.9114 73.6565 63.8995 73.67 63.9008 73.6793C63.8828 73.6777 63.8819 73.6522 63.9003 73.649ZM63.9206 73.1247C63.9099 73.1396 63.9148 73.1578 63.9369 73.1581C63.9335 73.1584 63.9298 73.1591 63.9261 73.1603C63.9225 73.1615 63.9327 73.1774 63.9252 73.1843C63.8804 73.2256 63.8989 73.0248 63.9613 73.1412C63.9477 73.1357 63.9342 73.1302 63.9206 73.1247ZM63.9268 72.4375C63.9537 72.4291 63.92 72.4055 63.9094 72.4117C63.9022 72.4159 63.8998 72.4459 63.9268 72.4375ZM63.9428 72.7613C63.9476 72.7588 63.9287 72.7358 63.9146 72.7352C63.8996 72.7484 63.9205 72.7728 63.9428 72.7613ZM63.9583 72.3728C63.9624 72.3676 63.919 72.3608 63.9171 72.3614C63.9013 72.3668 63.9342 72.3817 63.9583 72.3728ZM63.9995 75.2384C64.012 75.2305 63.9806 75.2054 63.9519 75.2C63.9575 75.199 63.9647 75.1962 63.9733 75.1912C63.9733 75.1912 63.9733 75.1913 63.9733 75.1913C63.9849 75.1845 63.9976 74.982 63.9424 75.1178C63.9406 75.1221 63.9663 75.1163 63.9618 75.1336C63.9615 75.1347 63.9405 75.1353 63.9395 75.1388C63.9373 75.147 63.924 75.1902 63.9409 75.1989C63.937 75.199 63.9333 75.1996 63.93 75.2008C63.8997 75.2114 63.99 75.2444 63.9995 75.2384ZM63.9466 72.8069C63.9544 72.8023 63.947 72.7876 63.9285 72.7861C63.9194 72.7934 63.9285 72.8177 63.9466 72.8069ZM63.9569 71.8121C63.9721 71.8027 63.9436 71.7788 63.9285 71.786C63.9192 71.7904 63.9394 71.823 63.9569 71.8121ZM63.9367 72.6601C63.9148 72.7142 63.9385 72.673 63.9657 72.6813C63.956 72.6742 63.9464 72.6672 63.9367 72.6601ZM63.9294 75.4887C63.9357 75.4801 63.9892 75.4902 63.9602 75.4997C63.9509 75.5027 63.926 75.4935 63.9294 75.4887ZM63.9461 75.8782C63.9936 75.8708 63.9657 75.9068 63.9331 75.8928C63.932 75.8921 63.9443 75.8787 63.9461 75.8782ZM63.9655 75.606C63.9331 75.6002 63.9293 75.5964 63.9373 75.5799C63.9464 75.6043 63.975 75.5816 63.9655 75.606ZM63.9404 73.1579C63.9391 73.158 63.9381 73.1581 63.9369 73.1581C63.9381 73.158 63.9392 73.1579 63.9404 73.1579ZM63.9499 72.322C63.9773 72.3152 63.9753 72.2962 63.9477 72.3019C63.9452 72.3024 63.9297 72.3192 63.9499 72.322ZM63.9519 75.2C63.947 75.2009 63.9438 75.2004 63.9409 75.1989C63.9446 75.1989 63.9481 75.1993 63.9519 75.2ZM63.9722 72.4239C63.9518 72.4232 63.9438 72.4521 63.9462 72.4532C63.9817 72.4698 63.9735 72.4358 63.9722 72.4239ZM63.9856 71.6211C63.9835 71.6196 63.9307 71.6292 63.9514 71.6351C63.9674 71.6397 63.9937 71.6267 63.9856 71.6211ZM63.9787 75.662C63.9786 75.6712 63.9786 75.6841 63.9536 75.6864C63.9574 75.6803 63.9603 75.6618 63.9787 75.662ZM63.9805 75.8641C63.951 75.8533 63.9511 75.8286 63.956 75.8128C63.9948 75.8126 63.9714 75.854 63.9805 75.8641ZM63.9851 75.2632C63.9866 75.2624 63.9982 75.2395 63.9722 75.2426C63.9342 75.2472 63.9709 75.2696 63.9851 75.2632ZM63.9576 71.6657C63.9755 71.6759 64.0305 71.6523 63.988 71.6415C63.9663 71.6359 63.9546 71.6639 63.9576 71.6657ZM63.9858 72.2627C63.9708 72.2492 63.944 72.2827 63.9712 72.2874C63.9733 72.2812 63.9911 72.2675 63.9858 72.2627ZM64.0133 72.7233C64.0916 72.6806 63.9487 72.7038 63.9613 72.7114C63.9631 72.7125 64.0114 72.7243 64.0133 72.7233ZM63.994 70.2828C63.9832 70.2768 63.9437 70.2993 63.9697 70.3022C63.9859 70.304 64.001 70.2867 63.994 70.2828ZM63.9624 73.3655C63.9621 73.3637 63.9619 73.3619 63.9616 73.3602C63.9629 73.3615 63.9633 73.3632 63.9624 73.3655ZM64.0907 72.1399C63.9801 72.1699 64.0654 72.1667 64.0649 72.1693C64.0637 72.175 64.0338 72.1881 64.0387 72.1987C64.0263 72.1865 64.0138 72.1744 64.0014 72.1622C63.9934 72.1718 63.9527 72.2553 63.9706 72.2571C63.9961 72.2596 63.9881 72.2333 63.9904 72.2325C63.9936 72.2314 64.0646 72.2273 64.0673 72.2249C64.0716 72.2209 64.0731 72.151 64.0907 72.1399ZM64.001 72.6341C63.9926 72.6409 63.9644 72.6429 63.9712 72.6461C63.9735 72.6471 64.0003 72.6473 64.0072 72.651C64.0051 72.6454 64.0031 72.6397 64.001 72.6341ZM63.9913 72.0861C64.0241 72.0776 64.0116 72.1157 64.008 72.1169C63.9857 72.1234 63.9645 72.093 63.9913 72.0861ZM63.9961 72.4095C63.998 72.4081 64.0082 72.3788 63.99 72.379C63.9761 72.3868 63.9721 72.4259 63.9961 72.4095ZM64.0091 72.6556C64.0059 72.6659 63.9789 72.6853 64.0193 72.6831C64.0193 72.6831 64.0193 72.6831 64.0193 72.683C64.0159 72.6739 64.0125 72.6647 64.0091 72.6556ZM64.0429 71.7008C64.1073 71.6817 64.026 71.6907 64.0052 71.7076C64.0341 71.7127 64.0325 71.7039 64.0429 71.7008ZM64.0909 71.6398C64.1025 71.6345 64.0898 71.5799 64.0557 71.5882C64.0436 71.5912 64.0742 71.6226 64.0719 71.624C64.0684 71.6262 64.0307 71.6162 64.0382 71.633C64.0509 71.632 64.087 71.6416 64.0909 71.6398ZM64.0841 71.685C64.1331 71.6661 64.0428 71.6618 64.0426 71.6761C64.0424 71.6816 64.0771 71.6877 64.0841 71.685ZM64.0764 71.7623C64.085 71.7555 64.0975 71.7374 64.0675 71.7249C64.0649 71.7416 64.0623 71.7583 64.0598 71.7751C64.0768 71.777 64.0689 71.7683 64.0764 71.7623C64.0764 71.7623 64.0764 71.7623 64.0764 71.7623ZM64.2118 75.9779C64.2374 75.9629 64.2472 75.9975 64.2409 75.999C64.22 76.0033 64.2003 75.9846 64.2118 75.9779ZM64.814 70.1653C64.8242 70.1612 64.8578 70.1584 64.8402 70.1492C64.8154 70.1585 64.7906 70.1677 64.7659 70.177C64.8226 70.1842 64.8028 70.1699 64.814 70.1653ZM65.0215 70.13C65.0229 70.1313 65.1102 70.1242 65.0519 70.141C65.0125 70.1525 64.9742 70.0904 65.0129 70.0792C65.0309 70.0916 65.0103 70.1187 65.0215 70.13ZM65.3994 70.0213C65.4064 70.0206 65.4166 70.0442 65.4117 70.0469C65.3858 70.0612 65.3621 70.0252 65.3994 70.0213ZM65.3828 70.0965C65.3997 70.0855 65.4107 70.1099 65.4009 70.1172C65.3846 70.118 65.3803 70.0982 65.3828 70.0965ZM65.4763 75.8256C65.5357 75.8136 65.4079 75.8029 65.4337 75.8213C65.4349 75.8222 65.4734 75.8261 65.4763 75.8256ZM65.4875 70.0443C65.4705 70.0554 65.4596 70.0309 65.4694 70.0236C65.4856 70.0229 65.49 70.0427 65.4875 70.0443ZM65.6177 75.8171C65.6604 75.8012 65.5171 75.8068 65.5113 75.8088C65.4885 75.817 65.5448 75.845 65.5587 75.8508C65.5372 75.8088 65.5976 75.8246 65.6177 75.8171ZM65.5316 75.7438C65.5163 75.7291 65.4871 75.7668 65.5271 75.774C65.5251 75.7666 65.5361 75.748 65.5316 75.7438ZM65.5776 75.6544C65.5827 75.6464 65.595 75.6229 65.5725 75.6189C65.5766 75.6276 65.5544 75.651 65.5776 75.6544ZM65.6452 75.6364C65.6758 75.624 65.5865 75.6211 65.6131 75.6353C65.6141 75.6359 65.6435 75.6369 65.6452 75.6364ZM65.6774 75.5668C65.7129 75.5586 65.6264 75.5494 65.6241 75.5625C65.6236 75.5665 65.6733 75.5676 65.6774 75.5668ZM65.7719 75.7972C65.7871 75.7856 65.7252 75.7706 65.7184 75.7955C65.7089 75.7867 65.6995 75.778 65.69 75.7693C65.6553 75.8018 65.7412 75.7994 65.7376 75.8088C65.7326 75.8218 65.6617 75.8208 65.6395 75.8182C65.6829 75.8289 65.6836 75.8744 65.6919 75.9007C65.7101 75.8776 65.7417 75.8401 65.7532 75.8173C65.7565 75.8108 65.7371 75.8044 65.7393 75.7989C65.7429 75.79 65.7709 75.7979 65.7719 75.7973C65.7719 75.7973 65.7719 75.7973 65.7719 75.7972ZM65.6787 75.4752C65.7189 75.4513 65.6321 75.4664 65.6475 75.4799C65.6487 75.4805 65.6777 75.4758 65.6787 75.4752ZM65.7514 70.0127C65.7151 70.0446 65.667 70.0214 65.74 70.0882C65.6883 70.0601 65.7028 70.0866 65.682 70.0811C65.6655 70.0767 65.6791 70.0603 65.6459 70.0698C65.6821 70.0573 65.6721 70.0027 65.6779 70.0002C65.6779 70.0003 65.6779 70.0003 65.6779 70.0003C65.6814 69.9988 65.7629 70.0025 65.7514 70.0127ZM65.8047 75.6543C65.91 75.6463 65.7428 75.6432 65.8301 75.6275C65.7033 75.6066 65.8301 75.6851 65.723 75.6946C65.7354 75.6094 65.6169 75.7509 65.7772 75.6914C65.719 75.7404 65.797 75.7075 65.8175 75.715C65.8392 75.7231 65.8156 75.7509 65.8548 75.7494C65.8548 75.7494 65.8548 75.7494 65.8548 75.7494C65.8521 75.7324 65.8493 75.7155 65.8466 75.6985C65.7619 75.7151 65.7873 75.6805 65.8563 75.6687C65.8391 75.6639 65.8219 75.6591 65.8047 75.6543ZM65.7252 75.7502C65.7271 75.7485 65.7153 75.7117 65.6983 75.714C65.6874 75.719 65.7004 75.7713 65.7252 75.7502ZM65.7437 75.9125C65.7439 75.8992 65.7604 75.8788 65.7285 75.8716C65.7283 75.8848 65.7117 75.9053 65.7437 75.9125ZM65.7497 75.2308C65.7235 75.2139 65.7158 75.2658 65.7468 75.2508C65.7483 75.2501 65.7509 75.2316 65.7497 75.2308ZM65.7887 75.6159C65.8209 75.5987 65.7184 75.6068 65.7451 75.6195C65.7467 75.6203 65.7873 75.6167 65.7887 75.6159ZM65.7638 70.0385C65.7889 70.0397 65.7713 70.086 65.7715 70.0942C65.7482 70.0895 65.735 70.0372 65.7638 70.0385ZM65.8376 75.9358C65.9279 75.9094 65.8236 75.8737 65.8259 75.8698C65.8282 75.8659 65.8677 75.872 65.8687 75.8711C65.871 75.8691 65.8676 75.8276 65.8649 75.8256C65.8628 75.8241 65.8073 75.8316 65.7898 75.8231C65.8213 75.8398 65.8016 75.9157 65.8078 75.9196C65.8127 75.9227 65.8709 75.8997 65.8376 75.9357C65.8376 75.9358 65.8376 75.9358 65.8376 75.9358ZM65.838 75.86C65.8147 75.8703 65.8118 75.8413 65.8204 75.8342C65.8396 75.8186 65.8407 75.8586 65.838 75.86ZM65.8594 75.79C65.8646 75.7867 65.8694 75.7567 65.8435 75.7542C65.8099 75.7684 65.8473 75.7976 65.8594 75.79ZM65.8559 75.4565C65.8526 75.4487 65.8725 75.4273 65.8499 75.4261C65.8532 75.4339 65.8333 75.4553 65.8559 75.4565ZM65.9612 70.1965C65.9801 70.1836 65.9879 70.2136 65.9788 70.2223C65.9637 70.2228 65.9596 70.1976 65.9612 70.1965ZM66.005 75.613C66.0119 75.6084 65.9947 75.5143 65.9841 75.5011C65.967 75.514 65.9657 75.6072 65.974 75.6115C65.9765 75.6127 66.0039 75.6136 66.005 75.613ZM66.0154 75.8163C66.0487 75.8249 66.0088 75.8306 66.0083 75.8317C66.0032 75.8423 66.0107 75.8644 65.9786 75.8596C65.9916 75.8408 65.9493 75.7992 66.0154 75.8163ZM66.0066 75.4498C65.9943 75.4179 65.9592 75.4792 65.994 75.4712C65.9961 75.4707 66.0079 75.4531 66.0066 75.4498ZM66.0147 75.6235C66.0416 75.6305 66.0184 75.7246 66.0183 75.7397C65.9687 75.7261 66.0064 75.7152 66.0039 75.6971C66.0031 75.6922 65.9825 75.6935 65.9825 75.693C65.9815 75.6845 66.0054 75.6908 66.0057 75.6856C66.0059 75.6823 65.9768 75.6136 66.0147 75.6235ZM66.0385 75.8212C66.0576 75.8265 66.0657 75.8852 66.0606 75.8876C66.0229 75.9053 66.0318 75.8258 66.0385 75.8212ZM66.0588 75.6148C66.1165 75.625 66.0779 75.6717 66.0491 75.6397C66.0465 75.6366 66.0715 75.6237 66.0588 75.6148ZM66.0616 75.4532C66.0633 75.4517 66.0748 75.4184 66.0564 75.4178C66.0493 75.4226 66.0429 75.4711 66.0616 75.4532ZM66.1236 75.4705C66.1232 75.4697 66.0878 75.4775 66.0923 75.4619C66.0927 75.4606 66.1325 75.4582 66.118 75.4385C66.115 75.4346 66.0887 75.4284 66.087 75.4288C66.0246 75.4493 66.1441 75.5108 66.1236 75.4705ZM66.0707 75.8223C66.0875 75.8192 66.1373 75.8268 66.1121 75.8337C66.1012 75.8366 66.0713 75.8311 66.0707 75.8223ZM66.0777 75.3477C66.1079 75.367 66.1136 75.3063 66.1059 75.3032C66.0871 75.3051 66.0747 75.3457 66.0777 75.3477ZM66.1945 70.2268C66.1945 70.2268 66.1945 70.2268 66.1945 70.2268C66.1877 70.243 66.1625 70.233 66.1617 70.2337C66.1248 70.2684 66.1817 70.2592 66.1885 70.2646C66.203 70.2763 66.1337 70.2744 66.1625 70.294C66.1201 70.2616 66.1378 70.2911 66.1132 70.292C66.0127 70.2956 66.1603 70.2488 66.1392 70.2327C66.1363 70.2304 66.1042 70.247 66.0951 70.2413C66.0655 70.2225 66.2207 70.1643 66.1945 70.2268ZM66.1165 75.839C66.146 75.8465 66.1174 75.9038 66.0931 75.8886C66.0892 75.8862 66.0735 75.8279 66.1165 75.839ZM66.1601 73.1631C66.1856 73.1769 66.2157 73.145 66.1958 73.1391C66.1859 73.1361 66.1489 73.1571 66.1601 73.1631ZM66.2694 72.9394C66.2642 72.9231 66.1576 72.9058 66.1742 72.9262C66.176 72.9283 66.2546 72.9413 66.2694 72.9394ZM66.2146 74.0136C66.2527 73.9965 66.182 73.9975 66.183 74.0101C66.1833 74.0145 66.2134 74.0141 66.2146 74.0136ZM66.2055 73.3617C66.208 73.3599 66.2034 73.3402 66.1872 73.3409C66.1774 73.3482 66.1885 73.3727 66.2055 73.3617ZM66.2247 74.019C66.212 74.0089 66.1608 74.0263 66.2108 74.0387C66.2067 74.0324 66.226 74.0201 66.2247 74.019ZM66.2152 75.5795C66.1861 75.5711 66.1949 75.5471 66.1899 75.5333C66.2276 75.5318 66.2084 75.5697 66.2152 75.5795ZM66.2265 73.0089C66.2 72.9934 66.1783 73.0265 66.2134 73.0235C66.2153 73.0231 66.2277 73.0095 66.2265 73.0089ZM66.2286 74.5647C66.2061 74.5534 66.1759 74.5892 66.2154 74.5794C66.217 74.5789 66.2298 74.5653 66.2286 74.5647ZM66.2156 74.7208C66.2231 74.7122 66.2208 74.6758 66.1989 74.69C66.1955 74.6922 66.195 74.7201 66.2156 74.7208ZM66.2156 70.2656C66.2542 70.261 66.245 70.2877 66.2383 70.2915C66.2355 70.293 66.1652 70.2716 66.2156 70.2656ZM66.2207 73.9027C66.2158 73.8938 66.225 73.8709 66.2048 73.8669C66.209 73.8777 66.1803 73.9056 66.2207 73.9027ZM66.2267 73.0795C66.2687 73.066 66.2646 73.0429 66.2097 73.0486C66.2134 73.0741 66.259 73.0455 66.2267 73.0795ZM66.2699 74.076C66.2731 74.0689 66.2204 74.0634 66.2179 74.0642C66.1943 74.0719 66.2494 74.083 66.2699 74.076ZM66.2265 73.5441C66.2491 73.5437 66.2389 73.521 66.2243 73.524C66.2195 73.525 66.2083 73.5444 66.2265 73.5441ZM66.228 75.282C66.2486 75.2716 66.2687 75.3034 66.2447 75.3128C66.2101 75.3174 66.2256 75.2833 66.228 75.282ZM66.2568 74.2725C66.2902 74.2735 66.2713 74.238 66.2436 74.252C66.2366 74.2555 66.2456 74.2721 66.2568 74.2725ZM66.2969 74.6125C66.257 74.5886 66.2287 74.6887 66.2784 74.6624C66.2819 74.6605 66.3002 74.6145 66.2969 74.6125ZM66.272 74.7758C66.2764 74.7717 66.3887 74.7737 66.3454 74.7908C66.3398 74.793 66.3101 74.7825 66.3033 74.7844C66.2994 74.7854 66.2836 74.8224 66.2862 74.8241C66.2892 74.826 66.3252 74.8238 66.3293 74.8257C66.3338 74.8277 66.3022 74.8505 66.3018 74.8624C66.3012 74.8849 66.3312 74.8873 66.3313 74.8892C66.3315 74.8945 66.3102 74.9036 66.3102 74.9144C66.3105 74.9693 66.3359 75.0532 66.2723 75.0966C66.2978 75.0579 66.2708 75.0211 66.2624 74.9826C66.325 74.9939 66.2142 74.9259 66.2864 74.9657C66.2708 74.9474 66.2582 74.7893 66.272 74.7759C66.272 74.7758 66.272 74.7758 66.272 74.7758ZM66.3009 72.8748C66.3393 72.8849 66.3306 72.8333 66.2862 72.829C66.2801 72.8358 66.2965 72.8736 66.3009 72.8748ZM66.3945 73.1127C66.4011 73.1175 66.4761 73.1221 66.438 73.1472C66.438 73.1472 66.438 73.1472 66.438 73.1473C66.4269 73.1546 66.4087 73.1462 66.4022 73.1476C66.3995 73.1481 66.3622 73.171 66.3562 73.152C66.347 73.1229 66.412 73.1492 66.4128 73.1338C66.4128 73.1319 66.3722 73.1026 66.3633 73.1043C66.3623 73.1045 66.3709 73.1133 66.3672 73.1147C66.3533 73.1202 66.3298 73.1176 66.3287 73.1183C66.3259 73.1209 66.3658 73.1671 66.3309 73.1739C66.3197 73.1761 66.2938 73.1001 66.2996 73.0971C66.3033 73.0953 66.3683 73.0961 66.3747 73.0941C66.3779 73.0931 66.3535 73.0626 66.3595 73.0586C66.3612 73.0574 66.3631 73.0566 66.3646 73.0559C66.3445 73.0605 66.346 73.0329 66.3686 73.0337C66.3776 73.0342 66.3724 73.0532 66.3708 73.0539C66.3702 73.0542 66.3693 73.0545 66.3686 73.0547C66.3932 73.0508 66.392 73.1153 66.4285 73.1013C66.4485 73.12 66.375 73.0987 66.3945 73.1127ZM66.4346 73.2026C66.4277 73.2007 66.4209 73.1987 66.4141 73.1968C66.4308 73.2295 66.3979 73.2673 66.3981 73.305C66.3981 73.3146 66.4399 73.3036 66.4285 73.3161C66.4194 73.3262 66.3806 73.3373 66.3719 73.3318C66.3698 73.3305 66.395 73.31 66.3924 73.2998C66.3848 73.2696 66.3489 73.2772 66.348 73.2754C66.3469 73.2735 66.3721 73.2545 66.371 73.2441C66.3681 73.218 66.3461 73.206 66.3749 73.1704C66.3985 73.1909 66.4498 73.1797 66.4346 73.2026ZM66.3582 74.4225C66.3808 74.4237 66.3607 74.4451 66.3641 74.4529C66.3414 74.4517 66.3615 74.4303 66.3582 74.4225ZM66.3875 71.231C66.3505 71.2245 66.3413 71.2738 66.3721 71.2608C66.379 71.2579 66.3872 71.2372 66.3875 71.231ZM66.365 71.4525C66.3752 71.4591 66.4019 71.4326 66.3732 71.4326C66.364 71.4326 66.3636 71.4517 66.365 71.4525ZM66.3981 73.6256C66.3993 73.6269 66.391 73.645 66.3892 73.6456C66.3498 73.6576 66.3726 73.5979 66.3981 73.6256ZM66.4106 71.7218C66.3863 71.6988 66.3758 71.768 66.4067 71.7468C66.4082 71.7458 66.4118 71.7229 66.4106 71.7218ZM66.4173 71.818C66.416 71.8124 66.4281 71.788 66.4168 71.7877C66.3986 71.7872 66.3861 71.8152 66.4173 71.818ZM66.4098 74.0807C66.4516 74.0781 66.42 74.1103 66.4252 74.1216C66.3835 74.1242 66.4151 74.0919 66.4098 74.0807ZM66.4406 73.8771C66.4735 74.0131 66.3843 73.9831 66.4203 73.8689C66.447 73.8688 66.4385 73.8685 66.4406 73.8771ZM66.4357 74.0513C66.4089 74.0463 66.4169 74.0309 66.419 74.0204C66.4376 74.0223 66.4309 74.0437 66.4357 74.0513ZM66.4448 71.1723C66.4786 71.1809 66.437 71.2186 66.423 71.2119C66.42 71.2104 66.4262 71.1692 66.4448 71.1723ZM66.4338 73.637C66.4744 73.6339 66.4579 73.6747 66.4488 73.6779C66.4126 73.6905 66.4428 73.6404 66.4338 73.637ZM66.4455 74.2738C66.4773 74.281 66.461 74.3015 66.4606 74.3147C66.4334 74.3087 66.445 74.285 66.4455 74.2738ZM66.4705 74.1787C66.4717 74.1795 66.4688 74.1979 66.4673 74.1987C66.4363 74.2138 66.4442 74.1618 66.4705 74.1787ZM66.4998 70.2042C66.5008 70.2049 66.4987 70.2188 66.4976 70.2193C66.467 70.2317 66.4733 70.1899 66.4998 70.2042Z" fill="black"/>
<path d="M19 104C17 107.833 12 122 17 125.5C22.5708 129.4 32.6666 121.167 37.4999 114.5" stroke="black" stroke-width="2"/>
<path d="M119.334 98.5946C116.584 93.9299 116.462 84.6115 116.845 80.8348C116.874 80.5532 117.136 80.3637 117.415 80.4109L137.328 83.7743C137.622 83.8239 137.808 84.1181 137.721 84.4032C136.003 90.0336 132.18 97.0848 127.793 100.019C126.044 101.188 124.206 101.703 122.375 101.213C121.115 100.875 120.118 99.9239 119.334 98.5946Z" fill="#E2C89E"/>
<path d="M119.334 98.5946C116.584 93.9299 116.462 84.6115 116.845 80.8348C116.874 80.5532 117.136 80.3637 117.415 80.4109L137.328 83.7743C137.622 83.8239 137.808 84.1181 137.721 84.4032C136.003 90.0336 132.18 97.0848 127.793 100.019M119.334 98.5946C120.118 99.9239 121.115 100.875 122.375 101.213C124.206 101.703 126.044 101.188 127.793 100.019M119.334 98.5946L120.576 95.4825L122.587 91.5586M127.793 100.019L128.138 96.5784L127.97 91.7287" stroke="black" stroke-width="2"/>
<mask id="mask1_159_104" style="mask-type:alpha" maskUnits="userSpaceOnUse" x="115" y="79" width="24" height="24">
<path d="M119.334 98.5946C116.584 93.9299 116.462 84.6115 116.845 80.8348C116.874 80.5532 117.136 80.3637 117.415 80.4109L137.328 83.7743C137.622 83.8239 137.808 84.1181 137.721 84.4032C136.003 90.0336 132.18 97.0848 127.793 100.019C126.044 101.188 124.206 101.703 122.375 101.213C121.115 100.875 120.118 99.9239 119.334 98.5946Z" fill="#E2C89E"/>
<path d="M119.334 98.5946C116.584 93.9299 116.462 84.6115 116.845 80.8348C116.874 80.5532 117.136 80.3637 117.415 80.4109L137.328 83.7743C137.622 83.8239 137.808 84.1181 137.721 84.4032C136.003 90.0336 132.18 97.0848 127.793 100.019M119.334 98.5946C120.118 99.9239 121.115 100.875 122.375 101.213C124.206 101.703 126.044 101.188 127.793 100.019M119.334 98.5946L120.576 95.4825L122.587 91.5586M127.793 100.019L128.138 96.5784L127.97 91.7287" stroke="black" stroke-width="2"/>
</mask>
<g mask="url(#mask1_159_104)">
<path d="M122.923 80.2954C118.028 86.1687 108.343 82.4599 111.688 77.1418C111.833 76.9113 112.038 76.7261 112.274 76.5902C121.413 71.3288 140.184 66.3674 144.923 87.2954C141.723 93.6954 133.923 94.2954 133.923 84.7954C128.923 92.2954 121.423 88.7954 122.923 80.2954Z" fill="white" stroke="black" stroke-width="2" stroke-linecap="round"/>
</g>
<path d="M111.923 76C107.923 81.5 117.923 85.5 122.923 79.5C121.423 88 128.923 91.5 133.923 84C133.923 93.5 141.723 92.9 144.923 86.5" stroke="black" stroke-width="2" stroke-linecap="round"/>
<ellipse cx="45.5" cy="70" rx="6.5" ry="3" fill="url(#paint0_radial_159_104)"/>
<ellipse cx="84.5" cy="70" rx="6.5" ry="3" fill="url(#paint1_radial_159_104)"/>
<path d="M77.5896 64.5039L73.8476 56.9808C73.6432 56.5698 73.7449 56.0723 74.0943 55.7745L80.077 50.6745C80.4127 50.3882 80.8964 50.3559 81.2673 50.5948L86.7636 54.1355C87.113 54.3606 87.2868 54.7784 87.2001 55.1848L85.9467 61.0603C85.8822 61.3627 85.6814 61.6183 85.4028 61.7525L82.1424 63.3237C81.6738 63.5495 81.1103 63.3783 80.8465 62.93L78.3664 58.716C78.1273 58.3097 78.2044 57.7916 78.5515 57.4726L80.7502 55.4515C81.1354 55.0974 81.7285 55.1001 82.1104 55.4577L83.2434 56.5186C83.647 56.8966 83.6673 57.5303 83.2887 57.9333L82.331 58.9527" stroke="black" stroke-width="2" stroke-linecap="round"/>
<path d="M39 56.0755L45.7433 50.5154C46.1077 50.2149 46.6327 50.2104 47.0023 50.5046L53.4363 55.6267C53.773 55.8947 53.9004 56.348 53.7528 56.7522L51.3452 63.3431C51.2011 63.7376 50.8259 64 50.4059 64H44.238C43.9226 64 43.6257 63.8512 43.4369 63.5986L41.1104 60.4849C40.8072 60.0791 40.8553 59.5107 41.2224 59.1617L44.9718 55.5962C45.3231 55.2622 45.8633 55.2282 46.2537 55.5156L48.8037 57.3926C49.2148 57.6952 49.332 58.259 49.0754 58.7004L48.204 60.2C47.9198 60.6889 47.287 60.8452 46.8079 60.5446L45.5789 59.7736" stroke="black" stroke-width="2" stroke-linecap="round"/>
<path d="M68.0287 73.9735C67.8644 73.1494 68.4417 71.6689 68.8486 70.7663C69.0054 70.4185 69.4686 70.3955 69.662 70.7245C70.178 71.6022 70.9635 73.0682 70.9988 73.9156C71.0004 73.9547 70.9958 73.9932 70.9846 74.0307C70.6294 75.2225 68.3212 75.4403 68.0287 73.9735Z" fill="#BEFFFF" stroke="black" stroke-width="0.7" stroke-linecap="round"/>
<defs>
<radialGradient id="paint0_radial_159_104" cx="0" cy="0" r="1" gradientUnits="userSpaceOnUse" gradientTransform="translate(45.5 70) rotate(90) scale(3 6.5)">
<stop stop-color="#E97979" stop-opacity="0.8"/>
<stop offset="1" stop-color="#E97979" stop-opacity="0"/>
</radialGradient>
<radialGradient id="paint1_radial_159_104" cx="0" cy="0" r="1" gradientUnits="userSpaceOnUse" gradientTransform="translate(84.5 70) rotate(90) scale(3 6.5)">
<stop stop-color="#E97979" stop-opacity="0.8"/>
<stop offset="1" stop-color="#E97979" stop-opacity="0"/>
</radialGradient>
</defs>
</svg>
