<svg width="141" height="213" viewBox="0 0 141 213" fill="none" xmlns="http://www.w3.org/2000/svg">
<path d="M71.5 29.5C105.811 29.5 133.5 55.9828 133.5 88.5C133.5 121.017 105.811 147.5 71.5 147.5C37.1891 147.5 9.5 121.017 9.5 88.5C9.5 55.9828 37.1891 29.5 71.5 29.5Z" fill="#FAF2E8" stroke="black" stroke-width="3"/>
<path d="M58.1447 66.428C60.3575 67.9751 61.9275 69.8687 62.717 71.6122C63.5221 73.3902 63.4186 74.7366 62.8504 75.5494C62.2821 76.362 61.0536 76.9209 59.1073 76.7753C57.1987 76.6325 54.8807 75.8091 52.6678 74.2619C50.4548 72.7147 48.8855 70.8205 48.096 69.0769C47.291 67.299 47.394 65.9533 47.9621 65.1405C48.5303 64.3278 49.7593 63.7682 51.7057 63.9138C53.6143 64.0566 55.9318 64.8809 58.1447 66.428Z" stroke="black" stroke-width="3"/>
<path d="M84.6019 66.3419C82.3683 67.9036 80.78 69.8113 79.9784 71.5654C79.1603 73.3559 79.2626 74.7036 79.8274 75.5114C80.3922 76.3192 81.6228 76.8782 83.5853 76.7245C85.508 76.574 87.8451 75.7374 90.0788 74.1758C92.3125 72.6142 93.9006 70.7064 94.7023 68.9523C95.5205 67.1618 95.4188 65.8137 94.8541 65.0058C94.2893 64.1979 93.0581 63.6395 91.0954 63.7932C89.1726 63.9438 86.8356 64.7803 84.6019 66.3419Z" stroke="black" stroke-width="3"/>
<circle cx="71" cy="105.583" r="7.5" stroke="black" stroke-width="3"/>
<circle cx="70.5" cy="106.083" r="6" stroke="black" stroke-width="3"/>
<path d="M85.0139 88.083C85.0138 86.583 85.7905 85.2794 87 84.583C88.2095 83.8866 89.5139 83.083 89.5139 83.083C93.1139 82.083 92.965 86.5993 91.5139 87.083L91.5138 87.083C90.0138 87.583 88.5138 88.083 85.0139 88.083Z" fill="black"/>
<path d="M95.0139 80.583L89.5139 83.083M89.5139 83.083C89.5139 83.083 88.2095 83.8866 87 84.583C85.7905 85.2794 85.0138 86.583 85.0139 88.083C88.5138 88.083 90.0138 87.583 91.5139 87.083C92.965 86.5993 93.1139 82.083 89.5139 83.083Z" stroke="black" stroke-width="3" stroke-linecap="round" stroke-linejoin="round"/>
<path d="M55.1538 83.5274C53.2308 83.5274 51.3077 81.583 51.3077 81.583L50.5385 83.9163C50.5385 83.9163 50.0266 86.2363 51.6923 86.6385C53.1532 86.9913 55.1538 86.2497 55.1538 86.2497V83.5274Z" fill="black"/>
<path d="M49 81.583C49.7692 81.583 51.3077 81.583 51.3077 81.583M51.3077 81.583C51.3077 81.583 53.2308 83.5274 55.1538 83.5274M51.3077 81.583L50.5385 83.9163C50.5385 83.9163 50.0266 86.2363 51.6923 86.6385C53.1532 86.9913 55.1538 86.2497 55.1538 86.2497M55.1538 83.5274C57.0769 84.3052 59 85.8608 59 85.8608M55.1538 83.5274C56.3555 85.6536 57.8462 88.583 57.8462 88.583M55.1538 83.5274C55.1538 84.4387 55.1538 86.2497 55.1538 86.2497M55.1538 88.1941V86.2497" stroke="black" stroke-width="3" stroke-linecap="round" stroke-linejoin="round"/>
<path d="M43 115C46.5 124.5 91.5 125.5 97 115" stroke="black" stroke-width="2.5" stroke-linecap="round"/>
<path d="M41.5383 99.4234C44.2836 99.0453 46.8009 99.2951 48.6383 99.9568C50.5259 100.637 51.4323 101.634 51.5634 102.585C51.6944 103.537 51.0912 104.742 49.4577 105.907C47.8675 107.04 45.5115 107.961 42.7661 108.339C40.0207 108.717 37.5035 108.468 35.666 107.806C33.7785 107.126 32.872 106.129 32.741 105.177C32.61 104.226 33.2131 103.021 34.8466 101.856C36.4369 100.722 38.7929 99.8015 41.5383 99.4234Z" stroke="black" stroke-width="2"/>
<path d="M100.258 99.8273C103.021 100.046 105.426 100.83 107.079 101.87C108.777 102.939 109.448 104.107 109.372 105.065C109.296 106.022 108.449 107.07 106.604 107.857C104.807 108.624 102.309 109.018 99.5462 108.799C96.7836 108.58 94.3784 107.796 92.7255 106.756C91.0275 105.688 90.3559 104.519 90.4319 103.562C90.5078 102.605 91.3553 101.557 93.2005 100.769C94.9968 100.003 97.4954 99.6081 100.258 99.8273Z" stroke="black" stroke-width="2"/>
<path d="M26.9974 3.41345C36.4974 6.41342 48.9974 25.0798 51.9974 32.4131C47.4241 33.6747 43.5968 35.2845 40.5 36.8973C33.7781 40.398 30.4974 43.9131 30.4974 43.9131C29.8751 120.351 25.2452 237.859 10.4974 205.414C-5.50262 170.214 4.99738 51.9132 10.4974 13.9136C12.5395 -0.195846 26.9974 3.41345 26.9974 3.41345Z" fill="#FAF2E8"/>
<path d="M30.4974 26.9142C30.4974 32.7185 30.5502 37.4232 30.4974 43.9131M30.4974 43.9131C29.8751 120.351 25.2452 237.859 10.4974 205.414C-5.50262 170.214 4.99738 51.9132 10.4974 13.9136C12.5395 -0.195846 26.9974 3.41345 26.9974 3.41345C36.4974 6.41342 48.9974 25.0798 51.9974 32.4131C47.4241 33.6747 43.5968 35.2845 40.5 36.8973M30.4974 43.9131C30.4974 43.9131 33.7781 40.398 40.5 36.8973M40.5 36.8973C39.6675 32.9315 36.9021 24.7 32.5 23.5" stroke="black" stroke-width="3"/>
<path d="M114 2.41345C104.5 5.41342 92 24.0798 89 31.4131C93.5733 32.6747 97.4005 34.2845 100.497 35.8973C107.219 39.398 110.5 42.9131 110.5 42.9131C111.122 119.351 115.752 236.859 130.5 204.414C146.5 169.214 136 50.9132 130.5 12.9136C128.458 -1.19585 114 2.41345 114 2.41345Z" fill="#FAF2E8"/>
<path d="M110.5 25.9142C110.5 31.7185 110.447 36.4232 110.5 42.9131M110.5 42.9131C111.122 119.351 115.752 236.859 130.5 204.414C146.5 169.214 136 50.9132 130.5 12.9136C128.458 -1.19585 114 2.41345 114 2.41345C104.5 5.41342 92 24.0798 89 31.4131C93.5733 32.6747 97.4005 34.2845 100.497 35.8973M110.5 42.9131C110.5 42.9131 107.219 39.398 100.497 35.8973M100.497 35.8973C101.33 31.9315 104.095 23.7 108.497 22.5" stroke="black" stroke-width="3"/>
</svg>
