<svg width="53" height="58" viewBox="0 0 53 58" fill="none" xmlns="http://www.w3.org/2000/svg">
<rect x="6.5" y="41.5" width="40" height="8" rx="1.5" fill="#D9D9D9" stroke="#9E9E9E"/>
<rect x="0.5" y="49.5" width="52" height="8" rx="1.5" fill="#D9D9D9" stroke="#9E9E9E"/>
<path d="M12 17.4846V41.5H41V17.4846C41 5.54616 35.0109 0.5 27.1304 0.5C17.9891 0.5 12 7.12308 12 17.4846Z" fill="#D9D9D9" stroke="#9E9E9E"/>
<path d="M24.3 27.99H22.04L20.2 24.56L19.77 24.3L20.04 23.76H20.48C20.8067 23.76 21.0633 23.65 21.25 23.43C21.4433 23.21 21.54 22.9033 21.54 22.51C21.54 22.0633 21.42 21.7 21.18 21.42C20.9467 21.1333 20.6033 20.99 20.15 20.99C19.8633 20.99 19.6 21.0733 19.36 21.24V26.95L20.49 27.26L20.13 27.99H16.44V27.35L17.38 26.54V21.15L16.26 20.85L16.62 20.13H18.43C18.9967 20.13 19.56 20.11 20.12 20.07C20.52 20.0433 20.8167 20.03 21.01 20.03C21.5367 20.03 22.0033 20.1233 22.41 20.31C22.8233 20.49 23.14 20.74 23.36 21.06C23.5867 21.3733 23.7 21.7267 23.7 22.12C23.7 22.58 23.5 23.01 23.1 23.41C22.7 23.8033 22.2033 24.1067 21.61 24.32L22.45 24.55L23.67 26.81L24.67 27.26L24.3 27.99ZM28.7238 28H25.0338V27.36L25.9738 26.55V21.17L24.8538 20.86L25.2138 20.14H28.9038V20.77L27.9538 21.59V26.96L29.0838 27.27L28.7238 28ZM33.8698 24.08C34.2032 24.08 34.4632 23.9567 34.6498 23.71C34.8432 23.4633 34.9398 23.1233 34.9398 22.69C34.9398 22.19 34.8198 21.7833 34.5798 21.47C34.3398 21.1567 33.9865 21 33.5198 21C33.2265 21 32.9532 21.09 32.6998 21.27V26.91L34.4898 27.27L34.1298 28H29.7798V27.36L30.7198 26.62V21.2L29.5998 20.86L29.9598 20.14H31.7698C32.3498 20.14 32.9198 20.12 33.4798 20.08C33.8798 20.0533 34.1798 20.04 34.3798 20.04C34.9132 20.04 35.3865 20.1433 35.7998 20.35C36.2132 20.55 36.5332 20.83 36.7598 21.19C36.9865 21.5433 37.0998 21.94 37.0998 22.38C37.0998 22.86 36.9098 23.3133 36.5298 23.74C36.1565 24.16 35.6832 24.4933 35.1098 24.74C34.5432 24.98 33.9898 25.0867 33.4498 25.06L33.0298 24.8L33.3898 24.08H33.8698Z" fill="#9E9E9E"/>
</svg>
