<svg width="64" height="85" viewBox="0 0 64 85" fill="none" xmlns="http://www.w3.org/2000/svg">
<rect x="0.5" y="71" width="63" height="13" rx="1.5" fill="#D9D9D9" stroke="#9E9E9E"/>
<path d="M9 25.5V71H54V25.5H47C43 25.5 42.5 22 43 17H20.5C21.5 23 18.5 25.5 16 25.5H9Z" fill="#D9D9D9" stroke="#9E9E9E"/>
<g filter="url(#filter0_d_63_15)">
<path d="M14 29.6111V65H49V29.6111H44.5C41.5 29.5 39.5 27 39.5 23H23.5C23.5 28 20.5 29.6111 18.5 29.6111H14Z" fill="#D9D9D9"/>
<path d="M14 29.6111V65H49V29.6111H44.5C41.5 29.5 39.5 27 39.5 23H23.5C23.5 28 20.5 29.6111 18.5 29.6111H14Z" stroke="#9E9E9E"/>
</g>
<path d="M29.5 9.5V17H34V9.5H37.5V5H34V1H29.5V5H26V9.5H29.5Z" fill="#D9D9D9" stroke="#9E9E9E"/>
<path d="M29.3 47.99H27.04L25.2 44.56L24.77 44.3L25.04 43.76H25.48C25.8067 43.76 26.0633 43.65 26.25 43.43C26.4433 43.21 26.54 42.9033 26.54 42.51C26.54 42.0633 26.42 41.7 26.18 41.42C25.9467 41.1333 25.6033 40.99 25.15 40.99C24.8633 40.99 24.6 41.0733 24.36 41.24V46.95L25.49 47.26L25.13 47.99H21.44V47.35L22.38 46.54V41.15L21.26 40.85L21.62 40.13H23.43C23.9967 40.13 24.56 40.11 25.12 40.07C25.52 40.0433 25.8167 40.03 26.01 40.03C26.5367 40.03 27.0033 40.1233 27.41 40.31C27.8233 40.49 28.14 40.74 28.36 41.06C28.5867 41.3733 28.7 41.7267 28.7 42.12C28.7 42.58 28.5 43.01 28.1 43.41C27.7 43.8033 27.2033 44.1067 26.61 44.32L27.45 44.55L28.67 46.81L29.67 47.26L29.3 47.99ZM33.7238 48H30.0338V47.36L30.9738 46.55V41.17L29.8538 40.86L30.2138 40.14H33.9038V40.77L32.9538 41.59V46.96L34.0838 47.27L33.7238 48ZM38.8698 44.08C39.2032 44.08 39.4632 43.9567 39.6498 43.71C39.8432 43.4633 39.9398 43.1233 39.9398 42.69C39.9398 42.19 39.8198 41.7833 39.5798 41.47C39.3398 41.1567 38.9865 41 38.5198 41C38.2265 41 37.9532 41.09 37.6998 41.27V46.91L39.4898 47.27L39.1298 48H34.7798V47.36L35.7198 46.62V41.2L34.5998 40.86L34.9598 40.14H36.7698C37.3498 40.14 37.9198 40.12 38.4798 40.08C38.8798 40.0533 39.1798 40.04 39.3798 40.04C39.9132 40.04 40.3865 40.1433 40.7998 40.35C41.2132 40.55 41.5332 40.83 41.7598 41.19C41.9865 41.5433 42.0998 41.94 42.0998 42.38C42.0998 42.86 41.9098 43.3133 41.5298 43.74C41.1565 44.16 40.6832 44.4933 40.1098 44.74C39.5432 44.98 38.9898 45.0867 38.4498 45.06L38.0298 44.8L38.3898 44.08H38.8698Z" fill="#9E9E9E"/>
<defs>
<filter id="filter0_d_63_15" x="9.5" y="22.5" width="44" height="51" filterUnits="userSpaceOnUse" color-interpolation-filters="sRGB">
<feFlood flood-opacity="0" result="BackgroundImageFix"/>
<feColorMatrix in="SourceAlpha" type="matrix" values="0 0 0 0 0 0 0 0 0 0 0 0 0 0 0 0 0 0 127 0" result="hardAlpha"/>
<feOffset dy="4"/>
<feGaussianBlur stdDeviation="2"/>
<feComposite in2="hardAlpha" operator="out"/>
<feColorMatrix type="matrix" values="0 0 0 0 1 0 0 0 0 1 0 0 0 0 1 0 0 0 0.25 0"/>
<feBlend mode="normal" in2="BackgroundImageFix" result="effect1_dropShadow_63_15"/>
<feBlend mode="normal" in="SourceGraphic" in2="effect1_dropShadow_63_15" result="shape"/>
</filter>
</defs>
</svg>
