<svg width="193" height="213" viewBox="0 0 193 213" fill="none" xmlns="http://www.w3.org/2000/svg">
<rect x="26.5" y="170.5" width="141" height="33" fill="#C06800" stroke="black"/>
<rect x="26.5" y="164.5" width="141" height="20" fill="#DB7800" stroke="black"/>
<g filter="url(#filter0_d_101_436)">
<rect x="26" y="194" width="142" height="10" fill="#DB7800"/>
<rect x="26.5" y="194.5" width="141" height="9" stroke="black"/>
</g>
<rect x="26.5" y="11.5" width="141" height="35" fill="#DB7800" stroke="black"/>
<g filter="url(#filter1_d_101_436)">
<path d="M9 47H52V6C52 2.68629 49.3137 0 46 0H15C11.6863 0 9 2.68629 9 6V47Z" fill="#FFC300"/>
<path d="M51.5 46.5V6C51.5 2.96243 49.0376 0.5 46 0.5H15C11.9624 0.5 9.5 2.96243 9.5 6V46.5H51.5Z" stroke="black"/>
</g>
<g filter="url(#filter2_d_101_436)">
<path d="M140 47H182V6C182 2.68629 179.314 0 176 0H146C142.686 0 140 2.68629 140 6V47Z" fill="#FFF400"/>
<path d="M181.5 46.5V6C181.5 2.96243 179.038 0.5 176 0.5H146C142.962 0.5 140.5 2.96243 140.5 6V46.5H181.5Z" stroke="black"/>
</g>
<g filter="url(#filter3_d_101_436)">
<path d="M9 164H52V205C52 208.314 49.3137 211 46 211H15C11.6863 211 9 208.314 9 205V164Z" fill="#F9A700"/>
<path d="M51.5 164.5V205C51.5 208.038 49.0376 210.5 46 210.5H15C11.9624 210.5 9.5 208.038 9.5 205V164.5H51.5Z" stroke="black"/>
</g>
<g filter="url(#filter4_d_101_436)">
<path d="M140 164H182V204C182 207.314 179.314 210 176 210H146C142.686 210 140 207.314 140 204V164Z" fill="#F9A700"/>
<path d="M181.5 164.5V204C181.5 207.038 179.038 209.5 176 209.5H146C142.962 209.5 140.5 207.038 140.5 204V164.5H181.5Z" stroke="black"/>
</g>
<g filter="url(#filter5_d_101_436)">
<rect x="9" y="62" width="173" height="107" fill="#FBCB31"/>
<rect x="9.5" y="62.5" width="172" height="106" stroke="black"/>
</g>
<rect x="22.5" y="62.5" width="145" height="90" fill="#975100" stroke="black"/>
<rect x="140.5" y="38.5" width="41" height="8" fill="#FFC300" stroke="black"/>
<rect x="9.5" y="73.5" width="16" height="27" fill="#F9A700" stroke="black"/>
<rect x="165.5" y="77.5" width="16" height="23" fill="#F9A700" stroke="black"/>
<rect x="22.5" y="58.5" width="145" height="55" fill="#794200" stroke="black"/>
<g filter="url(#filter6_d_101_436)">
<rect y="43" width="192" height="36" rx="6" fill="#FFF400"/>
<rect x="0.5" y="43.5" width="191" height="35" rx="5.5" stroke="black"/>
</g>
<path d="M191.5 73C191.5 76.0376 189.038 78.5 186 78.5H122.781C119.478 78.5 116.92 75.6087 117.322 72.3301L118.329 64.1221L191.5 48.6162V73Z" fill="#FFC300" stroke="black"/>
<g filter="url(#filter7_d_101_436)">
<rect x="69" y="38" width="52" height="47" rx="6" fill="#FFF400"/>
<rect x="69.5" y="38.5" width="51" height="46" rx="5.5" stroke="black"/>
</g>
<g filter="url(#filter8_d_101_436)">
<path d="M69 67.4054L121 54V79C121 82.3137 118.314 85 115 85H75C71.6863 85 69 82.3137 69 79V67.4054Z" fill="#FFC300"/>
<path d="M120.5 79C120.5 82.0376 118.038 84.5 115 84.5H75C71.9624 84.5 69.5 82.0376 69.5 79V67.793L120.5 54.6445V79Z" stroke="black"/>
</g>
<path d="M95 51.5C99.2346 51.5 102.5 54.3252 102.5 57.6221C102.5 58.6892 102.033 59.7212 101.256 60.6406C100.479 61.5599 99.4128 62.3407 98.2812 62.8906L97.7871 63.1309L98.0732 63.5996L101.273 68.8555L101.276 68.8623L101.28 68.8682C101.511 69.2237 101.488 69.6149 101.291 69.9316C101.091 70.2525 100.706 70.4999 100.204 70.5H91.2227C90.2501 70.4998 89.7705 69.6273 90.0771 68.9902C90.1186 68.9042 90.2085 68.7374 90.2666 68.5889L92.25 63.5195L92.4443 63.0234L91.9365 62.8604C89.5403 62.0952 87.5 60.5008 87.5 57.6221C87.5002 54.3252 90.7654 51.5 95 51.5Z" fill="#CB6F00" stroke="black"/>
<path d="M51.5 39V26L9.5 34.7941V39H51.5Z" fill="#FFF400" stroke="black"/>
<defs>
<filter id="filter0_d_101_436" x="26" y="194" width="142" height="12" filterUnits="userSpaceOnUse" color-interpolation-filters="sRGB">
<feFlood flood-opacity="0" result="BackgroundImageFix"/>
<feColorMatrix in="SourceAlpha" type="matrix" values="0 0 0 0 0 0 0 0 0 0 0 0 0 0 0 0 0 0 127 0" result="hardAlpha"/>
<feOffset dy="2"/>
<feComposite in2="hardAlpha" operator="out"/>
<feColorMatrix type="matrix" values="0 0 0 0 0 0 0 0 0 0 0 0 0 0 0 0 0 0 1 0"/>
<feBlend mode="normal" in2="BackgroundImageFix" result="effect1_dropShadow_101_436"/>
<feBlend mode="normal" in="SourceGraphic" in2="effect1_dropShadow_101_436" result="shape"/>
</filter>
<filter id="filter1_d_101_436" x="9" y="0" width="44" height="48" filterUnits="userSpaceOnUse" color-interpolation-filters="sRGB">
<feFlood flood-opacity="0" result="BackgroundImageFix"/>
<feColorMatrix in="SourceAlpha" type="matrix" values="0 0 0 0 0 0 0 0 0 0 0 0 0 0 0 0 0 0 127 0" result="hardAlpha"/>
<feOffset dx="1" dy="1"/>
<feComposite in2="hardAlpha" operator="out"/>
<feColorMatrix type="matrix" values="0 0 0 0 0 0 0 0 0 0 0 0 0 0 0 0 0 0 1 0"/>
<feBlend mode="normal" in2="BackgroundImageFix" result="effect1_dropShadow_101_436"/>
<feBlend mode="normal" in="SourceGraphic" in2="effect1_dropShadow_101_436" result="shape"/>
</filter>
<filter id="filter2_d_101_436" x="140" y="0" width="43" height="48" filterUnits="userSpaceOnUse" color-interpolation-filters="sRGB">
<feFlood flood-opacity="0" result="BackgroundImageFix"/>
<feColorMatrix in="SourceAlpha" type="matrix" values="0 0 0 0 0 0 0 0 0 0 0 0 0 0 0 0 0 0 127 0" result="hardAlpha"/>
<feOffset dx="1" dy="1"/>
<feComposite in2="hardAlpha" operator="out"/>
<feColorMatrix type="matrix" values="0 0 0 0 0 0 0 0 0 0 0 0 0 0 0 0 0 0 1 0"/>
<feBlend mode="normal" in2="BackgroundImageFix" result="effect1_dropShadow_101_436"/>
<feBlend mode="normal" in="SourceGraphic" in2="effect1_dropShadow_101_436" result="shape"/>
</filter>
<filter id="filter3_d_101_436" x="9" y="164" width="44" height="49" filterUnits="userSpaceOnUse" color-interpolation-filters="sRGB">
<feFlood flood-opacity="0" result="BackgroundImageFix"/>
<feColorMatrix in="SourceAlpha" type="matrix" values="0 0 0 0 0 0 0 0 0 0 0 0 0 0 0 0 0 0 127 0" result="hardAlpha"/>
<feOffset dx="1" dy="2"/>
<feComposite in2="hardAlpha" operator="out"/>
<feColorMatrix type="matrix" values="0 0 0 0 0 0 0 0 0 0 0 0 0 0 0 0 0 0 1 0"/>
<feBlend mode="normal" in2="BackgroundImageFix" result="effect1_dropShadow_101_436"/>
<feBlend mode="normal" in="SourceGraphic" in2="effect1_dropShadow_101_436" result="shape"/>
</filter>
<filter id="filter4_d_101_436" x="140" y="164" width="43" height="48" filterUnits="userSpaceOnUse" color-interpolation-filters="sRGB">
<feFlood flood-opacity="0" result="BackgroundImageFix"/>
<feColorMatrix in="SourceAlpha" type="matrix" values="0 0 0 0 0 0 0 0 0 0 0 0 0 0 0 0 0 0 127 0" result="hardAlpha"/>
<feOffset dx="1" dy="2"/>
<feComposite in2="hardAlpha" operator="out"/>
<feColorMatrix type="matrix" values="0 0 0 0 0 0 0 0 0 0 0 0 0 0 0 0 0 0 1 0"/>
<feBlend mode="normal" in2="BackgroundImageFix" result="effect1_dropShadow_101_436"/>
<feBlend mode="normal" in="SourceGraphic" in2="effect1_dropShadow_101_436" result="shape"/>
</filter>
<filter id="filter5_d_101_436" x="9" y="62" width="174" height="108.5" filterUnits="userSpaceOnUse" color-interpolation-filters="sRGB">
<feFlood flood-opacity="0" result="BackgroundImageFix"/>
<feColorMatrix in="SourceAlpha" type="matrix" values="0 0 0 0 0 0 0 0 0 0 0 0 0 0 0 0 0 0 127 0" result="hardAlpha"/>
<feOffset dx="1" dy="1.5"/>
<feComposite in2="hardAlpha" operator="out"/>
<feColorMatrix type="matrix" values="0 0 0 0 0 0 0 0 0 0 0 0 0 0 0 0 0 0 1 0"/>
<feBlend mode="normal" in2="BackgroundImageFix" result="effect1_dropShadow_101_436"/>
<feBlend mode="normal" in="SourceGraphic" in2="effect1_dropShadow_101_436" result="shape"/>
</filter>
<filter id="filter6_d_101_436" x="0" y="43" width="193" height="38" filterUnits="userSpaceOnUse" color-interpolation-filters="sRGB">
<feFlood flood-opacity="0" result="BackgroundImageFix"/>
<feColorMatrix in="SourceAlpha" type="matrix" values="0 0 0 0 0 0 0 0 0 0 0 0 0 0 0 0 0 0 127 0" result="hardAlpha"/>
<feOffset dx="1" dy="2"/>
<feComposite in2="hardAlpha" operator="out"/>
<feColorMatrix type="matrix" values="0 0 0 0 0 0 0 0 0 0 0 0 0 0 0 0 0 0 1 0"/>
<feBlend mode="normal" in2="BackgroundImageFix" result="effect1_dropShadow_101_436"/>
<feBlend mode="normal" in="SourceGraphic" in2="effect1_dropShadow_101_436" result="shape"/>
</filter>
<filter id="filter7_d_101_436" x="69" y="38" width="53" height="48" filterUnits="userSpaceOnUse" color-interpolation-filters="sRGB">
<feFlood flood-opacity="0" result="BackgroundImageFix"/>
<feColorMatrix in="SourceAlpha" type="matrix" values="0 0 0 0 0 0 0 0 0 0 0 0 0 0 0 0 0 0 127 0" result="hardAlpha"/>
<feOffset dx="1" dy="1"/>
<feComposite in2="hardAlpha" operator="out"/>
<feColorMatrix type="matrix" values="0 0 0 0 0 0 0 0 0 0 0 0 0 0 0 0 0 0 1 0"/>
<feBlend mode="normal" in2="BackgroundImageFix" result="effect1_dropShadow_101_436"/>
<feBlend mode="normal" in="SourceGraphic" in2="effect1_dropShadow_101_436" result="shape"/>
</filter>
<filter id="filter8_d_101_436" x="69" y="54" width="53" height="32" filterUnits="userSpaceOnUse" color-interpolation-filters="sRGB">
<feFlood flood-opacity="0" result="BackgroundImageFix"/>
<feColorMatrix in="SourceAlpha" type="matrix" values="0 0 0 0 0 0 0 0 0 0 0 0 0 0 0 0 0 0 127 0" result="hardAlpha"/>
<feOffset dx="1" dy="1"/>
<feComposite in2="hardAlpha" operator="out"/>
<feColorMatrix type="matrix" values="0 0 0 0 0 0 0 0 0 0 0 0 0 0 0 0 0 0 1 0"/>
<feBlend mode="normal" in2="BackgroundImageFix" result="effect1_dropShadow_101_436"/>
<feBlend mode="normal" in="SourceGraphic" in2="effect1_dropShadow_101_436" result="shape"/>
</filter>
</defs>
</svg>
