<svg width="220" height="201" viewBox="0 0 220 201" fill="none" xmlns="http://www.w3.org/2000/svg">
<path d="M20.5 187.5V16.5C20.5 15.3954 21.3954 14.5 22.5 14.5H195.5C196.605 14.5 197.5 15.3954 197.5 16.5V187.5C197.5 188.605 196.605 189.5 195.5 189.5H22.5C21.3954 189.5 20.5 188.605 20.5 187.5Z" fill="#626A7C"/>
<rect x="47.5" y="140" width="121" height="25" fill="#ACB4C7" fill-opacity="0.38" stroke="black"/>
<g filter="url(#filter0_d_98_303)">
<rect x="47" y="173.5" width="122" height="16" fill="#ACB4C7" fill-opacity="0.38" shape-rendering="crispEdges"/>
<rect x="47.5" y="174" width="121" height="15" stroke="black" shape-rendering="crispEdges"/>
</g>
<g filter="url(#filter1_d_98_303)">
<path d="M17 194.5V142.5H63V194.5C63 196.709 61.2091 198.5 59 198.5H21C18.7909 198.5 17 196.709 17 194.5Z" fill="#778197"/>
<path d="M17 194.5V142.5H63V194.5C63 196.709 61.2091 198.5 59 198.5H21C18.7909 198.5 17 196.709 17 194.5Z" stroke="black"/>
</g>
<path d="M58 111V98.5H161V111H58Z" fill="#A7B2C9" stroke="black"/>
<rect x="35.5" y="15" width="139" height="27" fill="#ACB4C7" fill-opacity="0.38" stroke="black"/>
<rect x="47.5" y="54" width="121" height="25" fill="#ACB4C7" fill-opacity="0.38" stroke="black"/>
<g filter="url(#filter2_d_98_303)">
<path d="M157 194.5V142.5H203V194.5C203 196.709 201.209 198.5 199 198.5H161C158.791 198.5 157 196.709 157 194.5Z" fill="#778197"/>
<path d="M157 194.5V142.5H203V194.5C203 196.709 201.209 198.5 199 198.5H161C158.791 198.5 157 196.709 157 194.5Z" stroke="black"/>
</g>
<g filter="url(#filter3_d_98_303)">
<path d="M12 109.5V60.5H58V109.5H12Z" fill="#778197"/>
<path d="M12 109.5V60.5H58V109.5H12Z" stroke="black"/>
</g>
<g filter="url(#filter4_d_98_303)">
<path d="M12 4.5V60.5H58V4.5C58 2.29086 56.2091 0.5 54 0.5H16C13.7909 0.5 12 2.29086 12 4.5Z" fill="#A7B2C9"/>
<path d="M12 4.5V60.5H58V4.5C58 2.29086 56.2091 0.5 54 0.5H16C13.7909 0.5 12 2.29086 12 4.5Z" stroke="black"/>
</g>
<path d="M57.5 26.5L12 36.5V60.5H57.5V26.5Z" fill="#BCC2D0" stroke="black"/>
<path d="M12 44.5V109.5H0.5V46.5C0.5 44.2909 2.29086 42.5 4.5 42.5H10C11.1046 42.5 12 43.3954 12 44.5Z" fill="#A7B2C9" stroke="black"/>
<g filter="url(#filter5_d_98_303)">
<path d="M207 44.5V109.5H218.5V46.5C218.5 44.2909 216.709 42.5 214.5 42.5H209C207.895 42.5 207 43.3954 207 44.5Z" fill="#A7B2C9"/>
<path d="M207 44.5V109.5H218.5V46.5C218.5 44.2909 216.709 42.5 214.5 42.5H209C207.895 42.5 207 43.3954 207 44.5Z" stroke="black"/>
</g>
<g filter="url(#filter6_d_98_303)">
<path d="M207 109.5V60.5H161V109.5H207Z" fill="#778197"/>
<path d="M207 109.5V60.5H161V109.5H207Z" stroke="black"/>
</g>
<g filter="url(#filter7_d_98_303)">
<path d="M207 4.5V60.5H161V4.5C161 2.29086 162.791 0.5 165 0.5H203C205.209 0.5 207 2.29086 207 4.5Z" fill="#A7B2C9"/>
<path d="M207 4.5V60.5H161V4.5C161 2.29086 162.791 0.5 165 0.5H203C205.209 0.5 207 2.29086 207 4.5Z" stroke="black"/>
</g>
<g filter="url(#filter8_di_98_303)">
<path d="M218.5 109.5H0.5V136.5C0.5 139.814 3.18629 142.5 6.5 142.5H212.5C215.814 142.5 218.5 139.814 218.5 136.5V109.5Z" fill="#778197"/>
<path d="M218.5 109.5H0.5V136.5C0.5 139.814 3.18629 142.5 6.5 142.5H212.5C215.814 142.5 218.5 139.814 218.5 136.5V109.5Z" stroke="black"/>
</g>
<g filter="url(#filter9_d_98_303)">
<rect x="81" y="91.5" width="56" height="48" rx="6" fill="#A7B2C9"/>
<rect x="81.5" y="92" width="55" height="47" rx="5.5" stroke="black"/>
</g>
<path d="M87 92H94.5V139H87C83.9624 139 81.5 136.538 81.5 133.5V97.5C81.5 94.4624 83.9624 92 87 92Z" fill="#BCC2D0" stroke="black"/>
<g filter="url(#filter10_d_98_303)">
<rect x="81" y="102.5" width="56" height="50" rx="6" fill="#778197"/>
<rect x="81.5" y="103" width="55" height="49" rx="5.5" stroke="black"/>
</g>
<path d="M108.196 115C113.047 115 116.892 118.547 116.892 122.82C116.891 125.671 115.19 128.188 112.61 129.559L112.192 129.78L112.392 130.21L115.443 136.816L115.454 136.84L115.468 136.862C116.061 137.862 115.34 139.127 114.178 139.127H103.854C102.742 139.127 102.032 137.966 102.495 136.991C102.544 136.889 102.616 136.745 102.67 136.595L104.971 130.169L105.141 129.694L104.665 129.528C103.289 129.048 101.997 128.297 101.053 127.212C100.116 126.135 99.5001 124.707 99.5 122.82C99.5 118.547 103.345 115 108.196 115Z" fill="#495163" stroke="black"/>
<g filter="url(#filter11_d_98_303)">
<path d="M161 39.5V18.5L207 3.5V23.5L161 39.5Z" fill="#BCC2D0"/>
<path d="M161 39.5V18.5L207 3.5V23.5L161 39.5Z" stroke="black"/>
</g>
<defs>
<filter id="filter0_d_98_303" x="47" y="173.5" width="122" height="18" filterUnits="userSpaceOnUse" color-interpolation-filters="sRGB">
<feFlood flood-opacity="0" result="BackgroundImageFix"/>
<feColorMatrix in="SourceAlpha" type="matrix" values="0 0 0 0 0 0 0 0 0 0 0 0 0 0 0 0 0 0 127 0" result="hardAlpha"/>
<feOffset dy="2"/>
<feComposite in2="hardAlpha" operator="out"/>
<feColorMatrix type="matrix" values="0 0 0 0 0 0 0 0 0 0 0 0 0 0 0 0 0 0 1 0"/>
<feBlend mode="normal" in2="BackgroundImageFix" result="effect1_dropShadow_98_303"/>
<feBlend mode="normal" in="SourceGraphic" in2="effect1_dropShadow_98_303" result="shape"/>
</filter>
<filter id="filter1_d_98_303" x="16.5" y="142" width="47.5" height="59" filterUnits="userSpaceOnUse" color-interpolation-filters="sRGB">
<feFlood flood-opacity="0" result="BackgroundImageFix"/>
<feColorMatrix in="SourceAlpha" type="matrix" values="0 0 0 0 0 0 0 0 0 0 0 0 0 0 0 0 0 0 127 0" result="hardAlpha"/>
<feOffset dx="0.5" dy="2"/>
<feComposite in2="hardAlpha" operator="out"/>
<feColorMatrix type="matrix" values="0 0 0 0 0 0 0 0 0 0 0 0 0 0 0 0 0 0 1 0"/>
<feBlend mode="normal" in2="BackgroundImageFix" result="effect1_dropShadow_98_303"/>
<feBlend mode="normal" in="SourceGraphic" in2="effect1_dropShadow_98_303" result="shape"/>
</filter>
<filter id="filter2_d_98_303" x="156.5" y="142" width="49" height="59" filterUnits="userSpaceOnUse" color-interpolation-filters="sRGB">
<feFlood flood-opacity="0" result="BackgroundImageFix"/>
<feColorMatrix in="SourceAlpha" type="matrix" values="0 0 0 0 0 0 0 0 0 0 0 0 0 0 0 0 0 0 127 0" result="hardAlpha"/>
<feOffset dx="2" dy="2"/>
<feComposite in2="hardAlpha" operator="out"/>
<feColorMatrix type="matrix" values="0 0 0 0 0 0 0 0 0 0 0 0 0 0 0 0 0 0 1 0"/>
<feBlend mode="normal" in2="BackgroundImageFix" result="effect1_dropShadow_98_303"/>
<feBlend mode="normal" in="SourceGraphic" in2="effect1_dropShadow_98_303" result="shape"/>
</filter>
<filter id="filter3_d_98_303" x="11.5" y="60" width="47.5" height="50" filterUnits="userSpaceOnUse" color-interpolation-filters="sRGB">
<feFlood flood-opacity="0" result="BackgroundImageFix"/>
<feColorMatrix in="SourceAlpha" type="matrix" values="0 0 0 0 0 0 0 0 0 0 0 0 0 0 0 0 0 0 127 0" result="hardAlpha"/>
<feOffset dx="0.5"/>
<feComposite in2="hardAlpha" operator="out"/>
<feColorMatrix type="matrix" values="0 0 0 0 0 0 0 0 0 0 0 0 0 0 0 0 0 0 1 0"/>
<feBlend mode="normal" in2="BackgroundImageFix" result="effect1_dropShadow_98_303"/>
<feBlend mode="normal" in="SourceGraphic" in2="effect1_dropShadow_98_303" result="shape"/>
</filter>
<filter id="filter4_d_98_303" x="11.5" y="0" width="47.5" height="61" filterUnits="userSpaceOnUse" color-interpolation-filters="sRGB">
<feFlood flood-opacity="0" result="BackgroundImageFix"/>
<feColorMatrix in="SourceAlpha" type="matrix" values="0 0 0 0 0 0 0 0 0 0 0 0 0 0 0 0 0 0 127 0" result="hardAlpha"/>
<feOffset dx="0.5"/>
<feComposite in2="hardAlpha" operator="out"/>
<feColorMatrix type="matrix" values="0 0 0 0 0 0 0 0 0 0 0 0 0 0 0 0 0 0 1 0"/>
<feBlend mode="normal" in2="BackgroundImageFix" result="effect1_dropShadow_98_303"/>
<feBlend mode="normal" in="SourceGraphic" in2="effect1_dropShadow_98_303" result="shape"/>
</filter>
<filter id="filter5_d_98_303" x="206.5" y="42" width="13.5" height="71" filterUnits="userSpaceOnUse" color-interpolation-filters="sRGB">
<feFlood flood-opacity="0" result="BackgroundImageFix"/>
<feColorMatrix in="SourceAlpha" type="matrix" values="0 0 0 0 0 0 0 0 0 0 0 0 0 0 0 0 0 0 127 0" result="hardAlpha"/>
<feOffset dx="1" dy="3"/>
<feComposite in2="hardAlpha" operator="out"/>
<feColorMatrix type="matrix" values="0 0 0 0 0 0 0 0 0 0 0 0 0 0 0 0 0 0 1 0"/>
<feBlend mode="normal" in2="BackgroundImageFix" result="effect1_dropShadow_98_303"/>
<feBlend mode="normal" in="SourceGraphic" in2="effect1_dropShadow_98_303" result="shape"/>
</filter>
<filter id="filter6_d_98_303" x="160.5" y="60" width="48" height="50" filterUnits="userSpaceOnUse" color-interpolation-filters="sRGB">
<feFlood flood-opacity="0" result="BackgroundImageFix"/>
<feColorMatrix in="SourceAlpha" type="matrix" values="0 0 0 0 0 0 0 0 0 0 0 0 0 0 0 0 0 0 127 0" result="hardAlpha"/>
<feOffset dx="1"/>
<feComposite in2="hardAlpha" operator="out"/>
<feColorMatrix type="matrix" values="0 0 0 0 0 0 0 0 0 0 0 0 0 0 0 0 0 0 1 0"/>
<feBlend mode="normal" in2="BackgroundImageFix" result="effect1_dropShadow_98_303"/>
<feBlend mode="normal" in="SourceGraphic" in2="effect1_dropShadow_98_303" result="shape"/>
</filter>
<filter id="filter7_d_98_303" x="160.5" y="0" width="48" height="61" filterUnits="userSpaceOnUse" color-interpolation-filters="sRGB">
<feFlood flood-opacity="0" result="BackgroundImageFix"/>
<feColorMatrix in="SourceAlpha" type="matrix" values="0 0 0 0 0 0 0 0 0 0 0 0 0 0 0 0 0 0 127 0" result="hardAlpha"/>
<feOffset dx="1"/>
<feComposite in2="hardAlpha" operator="out"/>
<feColorMatrix type="matrix" values="0 0 0 0 0 0 0 0 0 0 0 0 0 0 0 0 0 0 1 0"/>
<feBlend mode="normal" in2="BackgroundImageFix" result="effect1_dropShadow_98_303"/>
<feBlend mode="normal" in="SourceGraphic" in2="effect1_dropShadow_98_303" result="shape"/>
</filter>
<filter id="filter8_di_98_303" x="0" y="109" width="220" height="38" filterUnits="userSpaceOnUse" color-interpolation-filters="sRGB">
<feFlood flood-opacity="0" result="BackgroundImageFix"/>
<feColorMatrix in="SourceAlpha" type="matrix" values="0 0 0 0 0 0 0 0 0 0 0 0 0 0 0 0 0 0 127 0" result="hardAlpha"/>
<feOffset dx="1" dy="4"/>
<feComposite in2="hardAlpha" operator="out"/>
<feColorMatrix type="matrix" values="0 0 0 0 0 0 0 0 0 0 0 0 0 0 0 0 0 0 1 0"/>
<feBlend mode="normal" in2="BackgroundImageFix" result="effect1_dropShadow_98_303"/>
<feBlend mode="normal" in="SourceGraphic" in2="effect1_dropShadow_98_303" result="shape"/>
<feColorMatrix in="SourceAlpha" type="matrix" values="0 0 0 0 0 0 0 0 0 0 0 0 0 0 0 0 0 0 127 0" result="hardAlpha"/>
<feOffset dy="1"/>
<feComposite in2="hardAlpha" operator="arithmetic" k2="-1" k3="1"/>
<feColorMatrix type="matrix" values="0 0 0 0 1 0 0 0 0 1 0 0 0 0 1 0 0 0 0.25 0"/>
<feBlend mode="normal" in2="shape" result="effect2_innerShadow_98_303"/>
</filter>
<filter id="filter9_d_98_303" x="81" y="91.5" width="58" height="50" filterUnits="userSpaceOnUse" color-interpolation-filters="sRGB">
<feFlood flood-opacity="0" result="BackgroundImageFix"/>
<feColorMatrix in="SourceAlpha" type="matrix" values="0 0 0 0 0 0 0 0 0 0 0 0 0 0 0 0 0 0 127 0" result="hardAlpha"/>
<feOffset dx="2" dy="2"/>
<feComposite in2="hardAlpha" operator="out"/>
<feColorMatrix type="matrix" values="0 0 0 0 0 0 0 0 0 0 0 0 0 0 0 0 0 0 1 0"/>
<feBlend mode="normal" in2="BackgroundImageFix" result="effect1_dropShadow_98_303"/>
<feBlend mode="normal" in="SourceGraphic" in2="effect1_dropShadow_98_303" result="shape"/>
</filter>
<filter id="filter10_d_98_303" x="81" y="102.5" width="58" height="52" filterUnits="userSpaceOnUse" color-interpolation-filters="sRGB">
<feFlood flood-opacity="0" result="BackgroundImageFix"/>
<feColorMatrix in="SourceAlpha" type="matrix" values="0 0 0 0 0 0 0 0 0 0 0 0 0 0 0 0 0 0 127 0" result="hardAlpha"/>
<feOffset dx="2" dy="2"/>
<feComposite in2="hardAlpha" operator="out"/>
<feColorMatrix type="matrix" values="0 0 0 0 0 0 0 0 0 0 0 0 0 0 0 0 0 0 1 0"/>
<feBlend mode="normal" in2="BackgroundImageFix" result="effect1_dropShadow_98_303"/>
<feBlend mode="normal" in="SourceGraphic" in2="effect1_dropShadow_98_303" result="shape"/>
</filter>
<filter id="filter11_d_98_303" x="160.5" y="2.81104" width="47" height="37.3923" filterUnits="userSpaceOnUse" color-interpolation-filters="sRGB">
<feFlood flood-opacity="0" result="BackgroundImageFix"/>
<feColorMatrix in="SourceAlpha" type="matrix" values="0 0 0 0 0 0 0 0 0 0 0 0 0 0 0 0 0 0 127 0" result="hardAlpha"/>
<feOffset/>
<feComposite in2="hardAlpha" operator="out"/>
<feColorMatrix type="matrix" values="0 0 0 0 0 0 0 0 0 0 0 0 0 0 0 0 0 0 1 0"/>
<feBlend mode="normal" in2="BackgroundImageFix" result="effect1_dropShadow_98_303"/>
<feBlend mode="normal" in="SourceGraphic" in2="effect1_dropShadow_98_303" result="shape"/>
</filter>
</defs>
</svg>
