<svg width="115" height="122" viewBox="0 0 115 122" fill="none" xmlns="http://www.w3.org/2000/svg">
<path d="M114.075 120.936L11.0798 71.3408L1 60.2832L32.5608 31.5133L42.6406 42.5709L35.3648 28.9573L66.0345 0.999829L76.1142 12.0574L114.075 120.936Z" fill="#FAF2E8"/>
<path d="M114.075 120.936L11.0798 71.3408M114.075 120.936L70.4695 73.0996M114.075 120.936L76.1142 12.0574M11.0798 71.3408L1 60.2832L32.5608 31.5133L42.6406 42.5709M11.0798 71.3408L67.4018 69.7342M67.4018 69.7342L42.6406 42.5709M67.4018 69.7342L70.4695 73.0996M42.6406 42.5709L35.3648 28.9573L66.0345 0.999829L76.1142 12.0574M76.1142 12.0574L70.4695 73.0996" stroke="black"/>
</svg>
