<svg width="122" height="82" viewBox="0 0 122 82" fill="none" xmlns="http://www.w3.org/2000/svg">
<path d="M2.14276 81.1914L80.0281 0.942623L86.9406 20.8729L104.028 8.223L106.57 20.0357L118.801 27.3086L116.759 31.9808L99.271 39.4259L120.376 55.2866L89.8676 61.4276L87.6305 71.6866L2.14276 81.1914Z" fill="#FAF2E8"/>
<path d="M2.14276 81.1914L80.0281 0.942623L86.9406 20.8729M2.14276 81.1914L86.9406 20.8729M2.14276 81.1914L99.271 39.4259M2.14276 81.1914L89.8676 61.4276M2.14276 81.1914L87.6305 71.6866L89.8676 61.4276M2.14276 81.1914L118.801 27.3086M86.9406 20.8729L104.028 8.223L106.57 20.0357L118.801 27.3086M99.271 39.4259L116.759 31.9808L118.801 27.3086M99.271 39.4259L120.376 55.2866L89.8676 61.4276" stroke="black"/>
</svg>
