<svg width="17" height="18" viewBox="0 0 17 18" fill="none" xmlns="http://www.w3.org/2000/svg">
<path d="M11.0618 16.2785L6.71952 10.1429C4.70631 6.85436 4.36112 6.29048 4.15473 5.95335L3.84777 5.45193C3.32566 4.59906 2.54256 3.31985 2.44691 2.20602C2.35125 1.0921 4.057 0.0478333 4.57911 0.900707L9.27814 8.57658L12.7675 15.2342M11.0618 16.2785C11.3501 16.7495 11.9658 16.8976 12.4368 16.6092C12.9078 16.3208 13.0559 15.7053 12.7675 15.2342M11.0618 16.2785C10.7734 15.8074 10.9215 15.1918 11.3926 14.9034C11.8636 14.6151 12.4792 14.7632 12.7675 15.2342" stroke="black"/>
<path d="M5.52766 1.49252C5.09513 0.785979 4.17172 0.563849 3.46518 0.996383V0.996383C3.22966 1.14056 3.15562 1.44836 3.2998 1.68388L4.60508 3.81607C4.89344 4.2871 5.50904 4.43518 5.98008 4.14683V4.14683C6.45111 3.85847 6.59919 3.24287 6.31084 2.77184L5.52766 1.49252Z" fill="black"/>
<path d="M4.88667 3.54371C4.97878 3.37519 4.85438 3.17006 4.66237 3.17384L2.93793 3.20784C2.74531 3.21164 2.62919 3.4227 2.72909 3.58743L3.62625 5.06686C3.72615 5.23159 3.96698 5.22618 4.05938 5.05714L4.88667 3.54371Z" fill="black"/>
<circle cx="1.5" cy="1.5" r="1.125" transform="matrix(-0.852875 0.522115 0.522115 0.852875 4.31805 0.474258)" stroke="black" stroke-width="0.75"/>
<path d="M2.7358 14.67L8.68723 10.0787C11.5768 7.52556 12.0722 7.08778 12.3684 6.82605L12.809 6.43677C13.5584 5.77463 14.6824 4.78152 15.1006 3.74477C15.5189 2.70795 14.1947 1.20915 13.4453 1.87129L6.70082 7.8305L1.41153 13.1712M2.7358 14.67C2.32192 15.0357 1.68995 14.9966 1.32426 14.5827C0.958574 14.1689 0.997652 13.5369 1.41153 13.1712M2.7358 14.67C3.14967 14.3043 3.18872 13.6723 2.82303 13.2585C2.45734 12.8446 1.8254 12.8055 1.41153 13.1712" stroke="black"/>
<path d="M12.3648 2.15873C12.9856 1.6102 13.9336 1.66879 14.4821 2.2896V2.2896C14.665 2.49654 14.6454 2.81252 14.4385 2.99536L12.565 4.6507C12.1512 5.01639 11.5192 4.97733 11.1535 4.56345V4.56345C10.7878 4.14958 10.8269 3.51762 11.2408 3.15193L12.3648 2.15873Z" fill="black"/>
<path d="M12.3757 4.30771C12.3371 4.11959 12.5162 3.95999 12.6987 4.01994L14.3373 4.55843C14.5203 4.61858 14.5694 4.85442 14.4255 4.98259L13.1338 6.13365C12.9899 6.26182 12.7613 6.18599 12.7225 5.99727L12.3757 4.30771Z" fill="black"/>
<circle cx="13.6891" cy="3.6575" r="1.125" transform="rotate(48.5371 13.6891 3.6575)" stroke="black" stroke-width="0.75"/>
<path d="M2.7358 14.67L8.68723 10.0787C11.5768 7.52556 12.0722 7.08778 12.3684 6.82605L12.809 6.43677C13.5584 5.77463 14.6824 4.78152 15.1006 3.74477C15.5189 2.70795 14.1947 1.20915 13.4453 1.87129L6.70082 7.8305L1.41153 13.1712M2.7358 14.67C2.32192 15.0357 1.68995 14.9966 1.32426 14.5827C0.958574 14.1689 0.997652 13.5369 1.41153 13.1712M2.7358 14.67C3.14967 14.3043 3.18872 13.6723 2.82303 13.2585C2.45734 12.8446 1.8254 12.8055 1.41153 13.1712" stroke="black"/>
<path d="M12.3648 2.15873C12.9856 1.6102 13.9336 1.66879 14.4821 2.2896V2.2896C14.665 2.49654 14.6454 2.81252 14.4385 2.99536L12.565 4.6507C12.1512 5.01639 11.5192 4.97733 11.1535 4.56345V4.56345C10.7878 4.14958 10.8269 3.51762 11.2408 3.15193L12.3648 2.15873Z" fill="black"/>
<path d="M12.3757 4.30771C12.3371 4.11959 12.5162 3.95999 12.6987 4.01994L14.3373 4.55843C14.5203 4.61858 14.5694 4.85442 14.4255 4.98259L13.1338 6.13365C12.9899 6.26182 12.7613 6.18599 12.7225 5.99727L12.3757 4.30771Z" fill="black"/>
<circle cx="13.6891" cy="3.6575" r="1.125" transform="rotate(48.5371 13.6891 3.6575)" stroke="black" stroke-width="0.75"/>
</svg>
