<svg width="130" height="98" viewBox="0 0 130 98" fill="none" xmlns="http://www.w3.org/2000/svg">
<path d="M84.6228 95.7236C81.3768 93.7574 78.2068 88.1142 77.112 85.5406C77.0012 85.2801 77.1408 84.9854 77.409 84.8947L90.7715 80.3752C91.0539 80.2797 91.3567 80.4499 91.4132 80.7426C92.2055 84.8502 92.1648 90.4734 90.4214 93.7588C89.7175 95.0855 88.7359 96.0309 87.4194 96.3414C86.5134 96.5551 85.5649 96.2942 84.6228 95.7236Z" fill="#EEDCBE"/>
<path d="M84.6228 95.7236C81.3768 93.7574 78.2068 88.1142 77.112 85.5406C77.0012 85.2801 77.1408 84.9854 77.409 84.8947L90.7715 80.3752C91.0539 80.2797 91.3567 80.4499 91.4132 80.7426C92.2055 84.8502 92.1648 90.4734 90.4214 93.7588M84.6228 95.7236C85.5649 96.2942 86.5134 96.5551 87.4194 96.3414C88.7359 96.0309 89.7175 95.0855 90.4214 93.7588M84.6228 95.7236L84.3588 93.4118C84.3539 93.369 84.3545 93.3258 84.3607 93.2832L84.6228 91.4798M90.4214 93.7588L89.5153 91.5769C89.4888 91.5129 89.4492 91.4551 89.3991 91.4072L88.5056 90.5529" stroke="black"/>
<path d="M124.622 80.7263C120.952 81.6921 114.692 80.0465 112.081 79.0439C111.817 78.9424 111.702 78.6372 111.824 78.3814L117.867 65.6352C117.995 65.3659 118.327 65.2666 118.577 65.4295C122.08 67.7162 126.093 71.6554 127.242 75.1927C127.706 76.6211 127.703 77.984 127.011 79.146C126.535 79.9458 125.688 80.446 124.622 80.7263Z" fill="#EEDCBE"/>
<path d="M124.622 80.7263C120.952 81.6921 114.692 80.0465 112.081 79.0439C111.817 78.9424 111.702 78.6372 111.824 78.3814L117.867 65.6352C117.995 65.3659 118.327 65.2666 118.577 65.4295C122.08 67.7162 126.093 71.6554 127.242 75.1927M124.622 80.7263C125.688 80.446 126.535 79.9458 127.011 79.146C127.703 77.984 127.706 76.6211 127.242 75.1927M124.622 80.7263L122.784 79.3137C122.745 79.2842 122.711 79.2492 122.683 79.21L121.338 77.3485M127.242 75.1927L125.035 74.3231C124.976 74.3001 124.914 74.2883 124.851 74.2883L122.726 74.2883" stroke="black"/>
<path d="M5.06149 20.5272C11.7625 13.9574 16.2334 14.8546 19.0027 20.4064C19.3813 21.1655 19.3749 22.9999 18.9187 23.7151C18.0374 25.097 16.6935 27.2581 15.2701 29.6452C8.6574 40.7349 -3.82666 29.2413 5.06149 20.5272Z" fill="#E2C89E"/>
<path d="M15.2701 29.6452C8.6574 40.7349 -3.82666 29.2413 5.06149 20.5272C11.7625 13.9574 16.2334 14.8546 19.0027 20.4064C19.3813 21.1655 19.3749 22.9999 18.9187 23.7151C18.0374 25.097 16.6935 27.2581 15.2701 29.6452ZM15.2701 29.6452C15.3942 24.816 14.3733 19.3787 9.3393 24.0128C7.46227 26.0551 5.9523 29.0413 8.73883 30.0096" stroke="black" stroke-width="2" stroke-linecap="round"/>
<path d="M10.7332 86.6273C10.0217 82.8 12.2505 76.457 13.4223 74.0555C13.5059 73.8842 13.679 73.7821 13.8695 73.7888C18.9128 73.9665 28.0578 75.6596 26.7889 81.1774C26.7746 81.2397 26.747 81.3001 26.7092 81.3516C24.2105 84.7666 19.8063 88.7272 16.0595 89.6464C14.6009 90.0042 13.2419 89.9011 12.1338 89.1254C11.3712 88.5916 10.9345 87.7101 10.7332 86.6273Z" fill="#E2C89E"/>
<path d="M10.7332 86.6273C10.0217 82.8 12.2505 76.457 13.4223 74.0555C13.5059 73.8842 13.679 73.7821 13.8695 73.7888C18.9128 73.9665 28.0578 75.6596 26.7889 81.1774C26.7746 81.2397 26.747 81.3001 26.7092 81.3516C24.2105 84.7666 19.8063 88.7272 16.0595 89.6464M10.7332 86.6273C10.9345 87.7101 11.3712 88.5916 12.1338 89.1254C13.2419 89.9011 14.6009 90.0042 16.0595 89.6464M10.7332 86.6273L12.3257 84.8429L14.632 82.7016M16.0595 89.6464L17.1301 87.4231L18.2007 84.1291" stroke="black"/>
<path d="M14.9902 25.3017C15.1729 6.13687 32.9138 5.75373 42.1305 8.02862C42.3364 8.07945 42.552 7.98914 42.6732 7.81501C51.9341 -5.49727 65.9244 3.66605 72.1232 10.2633C72.3071 10.4591 72.6148 10.4698 72.8231 10.3002C83.2015 1.85451 90.6444 7.95565 93.3027 12.4071C93.4229 12.6085 93.6701 12.7036 93.8957 12.6392C113.545 7.0364 121.231 20.6011 119.114 29.5563C119.054 29.8092 119.193 30.0705 119.434 30.1684C132.287 35.3954 130.464 55.9986 122.805 60.3373C122.623 60.4404 122.516 60.6442 122.537 60.8524C124.282 78.6931 109.202 85.3457 97.051 80.6927C96.8496 80.6156 96.6169 80.676 96.4752 80.8386C85.7629 93.1369 68.6099 87.2439 60.9957 82.5491C60.7998 82.4283 60.5475 82.4618 60.3791 82.6186C47.1262 94.9625 31.9433 85.6495 25.8294 79.274C25.7409 79.1816 25.6198 79.1289 25.4921 79.1207C10.393 78.1473 7.6649 62.8451 8.19279 55.0768C8.20216 54.9389 8.1512 54.8033 8.05866 54.7006C-3.83777 41.5011 7.3854 30.0087 14.7396 25.7438C14.8956 25.6533 14.9885 25.482 14.9902 25.3017Z" fill="white" stroke="black" stroke-width="2" stroke-linecap="round"/>
<path d="M30.6608 22.3893C23.5233 26.3149 26.2339 32.4513 32.4452 33.0956C36.4425 33.5103 38.6172 31.1742 39.6597 28.3147C39.8661 27.7485 41.7173 27.6132 41.9677 28.1614C43.1363 30.7194 44.9898 33.0956 47.7909 33.0956C51.0879 33.0956 52.755 29.3525 53.4492 27.157C53.5973 26.6886 54.2963 26.6322 54.4848 27.0858C55.6591 29.9104 57.0694 33.0956 60.2817 33.0956C64.0785 33.0956 65.278 30.2406 66.3486 25.6012" stroke="black" stroke-width="2" stroke-linecap="round"/>
<path d="M20.3939 34.1662C23.3015 34.1662 24.8602 32.9818 25.8342 31.422C25.9885 31.175 26.3135 31.0866 26.5502 31.2563C29.1234 33.1002 32.2975 37.1721 27.1745 40.9469C22.5352 43.4451 20.3939 43.3261 16.8251 40.9469C14.3737 39.3127 12.9161 35.2896 12.8499 32.159C12.8405 31.7137 13.4769 31.4487 13.849 31.6936C15.3488 32.6806 18.2428 34.1662 20.3939 34.1662Z" fill="#F4C270" stroke="black"/>
<path d="M22.1264 38.4488C17.6862 39.673 14.2589 35.5716 13.0111 32.559C12.6867 31.7757 13.4972 31.3166 14.186 31.8109C18.6333 35.0021 21.9483 35.1235 25.0713 32.5747C25.6855 32.0734 26.6145 32.3446 26.5752 33.1364C26.4776 35.1038 25.4835 37.5232 22.1264 38.4488Z" fill="#B6750E" stroke="black" stroke-linecap="round"/>
<path d="M74.322 34.6963C71.3978 34.6963 69.838 33.4983 68.8651 31.9255C68.7181 31.6878 68.4109 31.5943 68.179 31.7503C66.0925 33.1537 63.5667 36.638 67.4782 41.4007C67.5188 41.4501 67.5716 41.4933 67.6279 41.5235C72.2075 43.9736 74.3442 43.8413 77.8908 41.477C80.3421 39.8427 81.7998 35.8196 81.866 32.6891C81.8754 32.2437 81.2389 31.9787 80.8668 32.2236C79.367 33.2106 76.4731 34.6963 74.322 34.6963Z" fill="#F4C270" stroke="black"/>
<path d="M72.9248 39.3357C76.2935 39.6052 79.4186 36.6237 81.1858 33.8081C81.714 32.9665 80.7635 32.288 79.919 32.8116C75.2579 35.7016 70.4125 35.3891 67.6059 34.3118C66.7487 33.9828 65.1717 34.6171 65.3512 35.5175C65.6847 37.19 67.2382 38.8808 72.9248 39.3357Z" fill="#B6750E" stroke="black" stroke-linecap="round"/>
<path d="M45.6801 19.8205C58.1806 19.8205 68.2338 29.4824 68.2338 41.3039C68.2337 53.1254 58.1806 62.7873 45.6801 62.7873C33.1797 62.7872 23.1264 53.1254 23.1264 41.3039C23.1264 29.4824 33.1796 19.8206 45.6801 19.8205Z" fill="#EEDCBE" stroke="black" stroke-width="2"/>
<mask id="mask0_159_103" style="mask-type:alpha" maskUnits="userSpaceOnUse" x="19" y="18" width="51" height="46">
<ellipse cx="44.9665" cy="40.9469" rx="24.9814" ry="22.8402" fill="#D9D9D9"/>
</mask>
<g mask="url(#mask0_159_103)">
<path d="M32.4456 33.0445C26.2339 32.3565 22.9619 26.9469 30.0998 22.7548C32.7371 21.2059 20.1073 16.3612 42.5905 14.9035C53.4318 14.2006 66.3509 21.5828 66.3509 25.0414C66.3509 28.5 67 33.5 62 33.5C57 33.5 55.6391 29.5043 54.5 27.5C54.3516 27.239 53.9947 27.3215 53.968 27.6206C53.7596 29.9598 52.5775 33.0445 47.7922 33.0445C42.9108 33.0445 41.7375 29.3172 41.3754 25.7578C41.3141 25.1545 40.3973 25.1185 40.2313 25.7018C39.1059 29.6557 36.6708 33.5126 32.4456 33.0445Z" fill="white" stroke="black" stroke-width="2" stroke-linecap="round"/>
</g>
<path d="M76.7985 20.6541C69.9527 13.9422 65.3901 14.8756 62.5687 20.5686C62.192 21.3286 62.1942 23.1536 62.6505 23.8686C63.5485 25.2757 64.9292 27.495 66.3922 29.9486C73.133 41.2532 85.8588 29.5369 76.7985 20.6541Z" fill="#E2C89E"/>
<path d="M66.3922 29.9486C73.133 41.2532 85.8588 29.5369 76.7985 20.6541C69.9527 13.9422 65.3901 14.8756 62.5687 20.5686C62.192 21.3286 62.1942 23.1536 62.6505 23.8686C63.5485 25.2757 64.9292 27.495 66.3922 29.9486ZM66.3922 29.9486C66.2657 25.0259 67.3064 19.4833 72.4379 24.2072C74.3513 26.289 75.8905 29.3331 73.05 30.3201" stroke="black" stroke-width="2" stroke-linecap="round"/>
<ellipse cx="32.2903" cy="41.7207" rx="2.89272" ry="3.28386" transform="rotate(-34.2579 32.2903 41.7207)" fill="black"/>
<ellipse cx="46.4643" cy="47.1604" rx="2.64064" ry="3.63609" transform="rotate(-90.064 46.4643 47.1604)" fill="black"/>
<path d="M45.41 49.8434C45.4126 49.846 45.4064 49.8567 45.4075 49.8613C45.3806 49.8561 45.4008 49.8338 45.41 49.8434ZM47.3582 50.3167C47.3516 50.3128 47.3449 50.309 47.3383 50.3052C47.334 50.3161 47.3389 50.3307 47.3326 50.3408C47.3315 50.3424 47.3123 50.3381 47.3115 50.342C47.3106 50.346 47.3368 50.3452 47.3397 50.3509C47.3427 50.3573 47.3244 50.3865 47.3249 50.3966C47.3267 50.4344 47.3416 50.4725 47.3307 50.5104C47.3113 50.4713 47.2916 50.5107 47.3 50.5217C47.3019 50.5241 47.3507 50.5237 47.3384 50.5629C47.3306 50.5879 47.2609 50.5648 47.2958 50.6065C47.3446 50.5745 47.3412 50.6059 47.3428 50.631C47.3431 50.6353 47.3358 50.6703 47.3379 50.6857C47.3387 50.691 47.3643 50.699 47.3649 50.706C47.3654 50.7108 47.3514 50.7145 47.3521 50.7216C47.3553 50.755 47.3563 50.7878 47.3516 50.8212C47.2859 50.8017 47.3236 50.8365 47.3205 50.8381C47.3027 50.8461 47.2976 50.81 47.2864 50.8243C47.2885 50.8442 47.2905 50.8641 47.2925 50.884C47.3006 50.8677 47.3478 50.9056 47.3263 50.9126C47.3844 50.9095 47.2758 51.0033 47.2952 51.0175C47.2993 51.0205 47.328 51.0011 47.3149 51.0462C47.3134 51.0511 47.2959 51.0492 47.2975 51.0518C47.2985 51.0533 47.3542 51.0626 47.3234 51.0725C47.3122 51.0762 47.2756 51.053 47.2903 51.1038C47.347 51.0836 47.321 51.1743 47.3068 51.1909C47.3144 51.1876 47.322 51.1843 47.3296 51.1809C47.3091 51.1974 47.3284 51.2004 47.3273 51.2041C47.3231 51.2191 47.3037 51.2397 47.3055 51.2536C47.3075 51.2699 47.3427 51.27 47.329 51.289C47.3368 51.2845 47.3446 51.28 47.3524 51.2755C47.3505 51.2886 47.3486 51.3018 47.3467 51.3149C47.3001 51.2845 47.3445 51.3215 47.3455 51.3239C47.3472 51.3278 47.3281 51.3222 47.3305 51.3287C47.3309 51.3294 47.3489 51.3284 47.3509 51.3384C47.355 51.3594 47.3324 51.3561 47.3327 51.3648C47.3328 51.3657 47.349 51.3628 47.3528 51.378C47.365 51.4263 47.3404 51.3778 47.3382 51.3759C47.3352 51.3735 47.2676 51.39 47.2916 51.3491C47.2839 51.3628 47.254 51.3642 47.2532 51.3657C47.2526 51.3671 47.2568 51.391 47.2579 51.3923C47.268 51.404 47.2885 51.3937 47.2922 51.396C47.2951 51.3978 47.2685 51.4266 47.33 51.4333C47.2732 51.447 47.2784 51.4254 47.2697 51.4023C47.2581 51.399 47.2467 51.4243 47.2468 51.4256C47.2469 51.4583 47.2936 51.4402 47.3234 51.4473C47.339 51.4511 47.3072 51.4644 47.3491 51.4521C47.3535 51.4817 47.3292 51.4638 47.3256 51.4657C47.3203 51.4686 47.3323 51.4789 47.3307 51.4802C47.3284 51.4821 47.3139 51.4755 47.3088 51.483C47.308 51.4843 47.333 51.4964 47.3449 51.4808C47.3414 51.5016 47.3626 51.4999 47.3198 51.507C47.4009 51.5213 47.2718 51.5174 47.2673 51.5231C47.2553 51.5381 47.319 51.5337 47.3221 51.5345C47.342 51.54 47.3201 51.5816 47.3293 51.5919C47.2834 51.5879 47.3288 51.5589 47.3199 51.5525C47.2903 51.5309 47.2969 51.5829 47.2393 51.5672C47.2551 51.5738 47.271 51.5803 47.2868 51.5869C47.2497 51.5989 47.2336 51.5819 47.2471 51.6143C47.2791 51.6196 47.2421 51.5913 47.2673 51.597C47.2821 51.6003 47.2852 51.6191 47.293 51.6195C47.3024 51.6199 47.2913 51.6029 47.3057 51.6056C47.3369 51.6114 47.3072 51.6734 47.2902 51.6262C47.2907 51.6394 47.2288 51.6461 47.2481 51.6575C47.2606 51.6649 47.3462 51.6234 47.3305 51.6857C47.3012 51.687 47.3219 51.6608 47.3196 51.6601C47.3164 51.6591 47.2504 51.6639 47.2471 51.6647C47.2364 51.6676 47.2717 51.7312 47.2386 51.7446C47.2767 51.7393 47.2454 51.7926 47.257 51.7985C47.2602 51.8 47.2836 51.7942 47.2861 51.7959C47.3008 51.8062 47.2591 51.8341 47.258 51.847C47.2568 51.8615 47.2769 51.8597 47.2769 51.8605C47.2758 51.8669 47.2621 51.8618 47.2621 51.8657C47.2622 51.8716 47.2594 51.912 47.2623 51.9141C47.2631 51.9146 47.2862 51.908 47.2906 51.9169C47.2913 51.9184 47.264 51.9174 47.2758 51.9435C47.29 51.975 47.3098 51.9217 47.3384 51.9348C47.2977 51.955 47.3381 51.9543 47.3349 51.9598C47.3337 51.9617 47.2994 51.9758 47.3016 51.9911C47.296 51.9801 47.2904 51.9691 47.2848 51.9581C47.2788 51.9689 47.2863 51.99 47.2795 51.9989C47.2762 52.0032 47.2479 51.9996 47.2487 52.0091C47.249 52.0111 47.3178 52.019 47.2869 51.9943C47.3115 51.9923 47.2955 52.0041 47.3024 52.0096C47.3035 52.0104 47.3445 52.0136 47.319 52.0206C47.3128 52.0223 47.1931 52.0041 47.2797 52.0511C47.2825 52.0526 47.2975 52.0473 47.3006 52.0488C47.3027 52.0498 47.2966 52.0618 47.2988 52.0632C47.301 52.0645 47.3174 52.0587 47.3206 52.0603C47.3372 52.0686 47.2723 52.0795 47.2773 52.0624C47.2693 52.0681 47.2612 52.0738 47.2532 52.0795C47.3021 52.0734 47.267 52.0885 47.2685 52.0964C47.2781 52.147 47.3099 52.1131 47.3263 52.1218C47.3528 52.1358 47.2691 52.1251 47.2942 52.1459C47.2966 52.1478 47.3321 52.1227 47.3121 52.1717C47.3107 52.1645 47.3093 52.1573 47.3079 52.15C47.2606 52.1542 47.3112 52.1762 47.3118 52.1778C47.3183 52.1971 47.3013 52.1841 47.3256 52.2127C47.3278 52.2152 47.3161 52.2208 47.322 52.2262C47.3459 52.2489 47.3365 52.1964 47.3556 52.1949C47.365 52.1943 47.3627 52.2507 47.3582 52.2527C47.3385 52.2609 47.3495 52.2271 47.325 52.2335C47.3163 52.2359 47.3342 52.3163 47.3246 52.3325C47.3135 52.3511 47.2494 52.3595 47.3215 52.3596C47.2508 52.3649 47.299 52.3695 47.2985 52.3719C47.292 52.4007 47.2913 52.4008 47.298 52.4255C47.2995 52.4309 47.278 52.4355 47.2817 52.4375C47.2839 52.4386 47.3068 52.4365 47.3139 52.442C47.3236 52.4496 47.3 52.4956 47.2873 52.499C47.2746 52.5024 47.2818 52.4796 47.2609 52.4837C47.2588 52.5002 47.264 52.516 47.2618 52.5326C47.2608 52.5395 47.2462 52.536 47.2459 52.539C47.2457 52.5402 47.2586 52.5641 47.264 52.5631C47.2765 52.5607 47.2681 52.4871 47.2936 52.5065C47.2986 52.5102 47.2649 52.5234 47.3058 52.5213C47.2966 52.5871 47.2873 52.6528 47.278 52.7186C47.2474 52.6808 47.2748 52.6383 47.2719 52.5987C47.2715 52.5933 47.2755 52.575 47.2548 52.5772C47.2495 52.6108 47.2602 52.6527 47.2468 52.685C47.2463 52.686 47.2277 52.6822 47.2248 52.6861C47.2193 52.6933 47.2493 52.7169 47.2415 52.7209C47.2397 52.7216 47.2152 52.7081 47.1996 52.7122C47.1597 52.7227 47.2482 52.7254 47.2471 52.7344C47.2463 52.7413 47.2035 52.7881 47.2305 52.7998C47.2593 52.8122 47.2472 52.7653 47.2708 52.7688C47.2945 52.8005 47.2692 52.8326 47.2721 52.8626C47.2722 52.8631 47.2907 52.8585 47.2933 52.8652C47.2978 52.8768 47.2716 52.8799 47.2674 52.8855C47.2629 52.8917 47.2667 52.9133 47.2571 52.9161C47.2559 52.9165 47.2299 52.9121 47.2292 52.9115C47.2185 52.9021 47.2522 52.8987 47.2526 52.8979C47.2539 52.8946 47.241 52.8915 47.2418 52.8885C47.243 52.8837 47.255 52.8811 47.256 52.8747C47.2568 52.8703 47.2339 52.8745 47.2349 52.8703C47.2354 52.8687 47.2878 52.8519 47.2343 52.8504C47.2174 52.8499 47.1958 52.9872 47.2093 53.0009C47.2157 52.9892 47.2221 52.9774 47.2286 52.9656C47.2129 52.9895 47.2556 53.0182 47.1924 53.0203C47.1873 53.1089 47.1821 53.1976 47.1769 53.2862C47.1715 53.3021 47.1309 53.2934 47.1427 53.3194C47.1557 53.3127 47.1686 53.306 47.1816 53.2993C47.1725 53.3126 47.1548 53.3718 47.1631 53.3813C47.1642 53.3826 47.201 53.3843 47.2042 53.3991C47.2069 53.4122 47.1794 53.4143 47.1741 53.4213C47.1698 53.4272 47.177 53.4338 47.1755 53.4355C47.1742 53.4369 47.1574 53.4374 47.1545 53.4406C47.1454 53.4508 47.1928 53.4426 47.1384 53.4527C47.1363 53.4502 47.1342 53.4478 47.1321 53.4453C47.1242 53.4576 47.0995 53.4744 47.0873 53.4563C47.0852 53.4532 47.1015 53.4558 47.1015 53.4535C47.0985 53.3626 47.0668 53.4352 47.0921 53.4671C47.0679 53.4752 47.0827 53.5211 47.0779 53.5226C47.071 53.5247 47.0517 53.5169 47.0351 53.5272C47.0316 53.5293 47.0451 53.5907 47.013 53.5686C47.0064 53.564 47.0133 53.5346 47.0124 53.5275C46.9612 53.5442 47.0345 53.5833 47.0326 53.5877C47.0247 53.6054 46.9883 53.5536 46.9823 53.5936C46.9778 53.6243 47.0119 53.5955 47.0265 53.6073C47.0347 53.6139 46.9971 53.6487 47.0458 53.6477C47.051 53.6596 47.0252 53.6527 47.0234 53.6541C47.0217 53.6556 47.0363 53.679 47.026 53.6866C47.0248 53.6876 46.9994 53.6847 46.9974 53.6856C46.9938 53.6875 46.9989 53.7101 47.001 53.711C47.0025 53.7116 47.0247 53.7062 47.0301 53.7084C47.0363 53.711 47.0311 53.7328 47.0374 53.734C47.047 53.7356 47.0407 53.7088 47.0655 53.7133C47.0592 53.7256 47.0758 53.7458 47.0957 53.754C47.09 53.752 47.0892 53.74 47.0912 53.7358C47.1276 53.7378 47.1271 53.7636 47.0983 53.7547C47.1138 53.7604 47.1219 53.7565 47.1365 53.7597C47.1402 53.7605 47.141 53.7685 47.1473 53.77C47.1485 53.7702 47.1622 53.762 47.1696 53.7636C47.1829 53.7666 47.1799 53.7908 47.1764 53.7927C47.1665 53.7983 47.1545 53.7786 47.1392 53.777C47.1369 53.7767 47.1068 53.7935 47.1042 53.7937C47.0757 53.7947 47.0962 53.7761 47.0706 53.7782C47.0652 53.7828 47.0598 53.7874 47.0544 53.792C47.0284 53.7743 47.0418 53.7414 47.0122 53.7329C47.021 53.7593 47.02 53.7868 46.9535 53.7868C46.9255 53.7867 46.9091 53.7754 46.902 53.7758C46.8766 53.7775 46.9042 53.7933 46.9029 53.7939C46.9013 53.7943 46.8998 53.7946 46.8983 53.7946C46.8983 53.7946 46.8983 53.7946 46.8983 53.7946C46.8834 53.7946 46.8727 53.7721 46.8659 53.7709C46.8538 53.769 46.804 53.7791 46.793 53.779C46.7908 53.7787 46.779 53.7627 46.7598 53.7681C46.7404 53.7735 46.74 53.7876 46.7379 53.7881C46.7263 53.7907 46.7157 53.7662 46.7089 53.7655C46.7054 53.7651 46.6841 53.7783 46.678 53.7786C46.6719 53.779 46.6585 53.769 46.6391 53.765C46.6247 53.7621 46.6136 53.7706 46.6114 53.7691C46.6099 53.7681 46.6101 53.7449 46.6076 53.7438C46.6038 53.7421 46.5866 53.7475 46.5823 53.7467C46.5761 53.7456 46.5823 53.7381 46.576 53.7391C46.5712 53.7398 46.5119 53.7688 46.496 53.7686C46.469 53.7683 46.5312 53.7376 46.4245 53.7662C46.4238 53.7664 46.4313 53.7733 46.4307 53.7735C46.4111 53.7778 46.3808 53.7555 46.3861 53.7828C46.352 53.732 46.3455 53.7765 46.2999 53.7689C46.2824 53.766 46.2752 53.7464 46.2726 53.7463C46.2504 53.7482 46.2676 53.7545 46.2567 53.7566C46.2506 53.7578 46.2272 53.7402 46.2119 53.7441C46.2041 53.7462 46.2069 53.7649 46.2053 53.7656C46.1909 53.773 46.1753 53.764 46.165 53.7656C46.1582 53.7667 46.1576 53.7779 46.1564 53.7782C46.1538 53.7787 46.126 53.7634 46.1162 53.7602C46.1087 53.7578 46.0969 53.7669 46.0936 53.7652C46.074 53.755 46.124 53.7333 46.054 53.7542C46.0497 53.7555 46.0514 53.7634 46.0505 53.7636C46.0307 53.7685 46.029 53.754 46.0127 53.7513C45.9847 53.7469 46.0003 53.7678 45.9806 53.7504C45.9623 53.7634 45.963 53.7707 45.9681 53.786C45.9539 53.7437 45.8814 53.7288 45.8832 53.7757C45.8843 53.7608 45.8434 53.7625 45.8426 53.758C45.8423 53.7552 45.883 53.7336 45.7916 53.7435C45.7802 53.7448 45.7947 53.7579 45.7714 53.7538C45.7773 53.7222 45.7565 53.7531 45.7534 53.7531C45.6996 53.7527 45.7437 53.6756 45.7375 53.6624C45.7304 53.647 45.688 53.6333 45.688 53.63C45.688 53.619 45.7095 53.6281 45.7174 53.6257C45.7252 53.6232 45.684 53.5919 45.6863 53.5904C45.6954 53.5843 45.7209 53.5904 45.7222 53.5898C45.7378 53.5823 45.7178 53.5403 45.7237 53.5286C45.7072 53.5289 45.7059 53.5525 45.6793 53.5378C45.6483 53.5206 45.7213 53.5197 45.7245 53.5192C45.7238 53.4406 45.7231 53.362 45.7224 53.2833C45.6836 53.2843 45.7129 53.3357 45.7078 53.3369C45.6775 53.3438 45.6781 53.2569 45.6918 53.2463C45.6834 53.2544 45.675 53.2625 45.6666 53.2705C45.622 53.2567 45.68 53.2262 45.6603 53.2062C45.6539 53.1997 45.6367 53.2121 45.6355 53.2118C45.6182 53.2046 45.6315 53.193 45.6548 53.2017C45.6325 53.1839 45.6571 53.1865 45.6589 53.1729C45.659 53.1722 45.641 53.1781 45.6335 53.1673C45.6301 53.1623 45.63 53.1354 45.6142 53.1318C45.6076 53.1303 45.5378 53.144 45.5979 53.1456C45.5686 53.1749 45.6253 53.155 45.6239 53.1663C45.6236 53.1681 45.59 53.1641 45.6058 53.1927C45.5453 53.1872 45.5906 53.1543 45.5832 53.1486C45.5682 53.137 45.5369 53.185 45.5841 53.1938C45.5369 53.1897 45.5777 53.1972 45.5758 53.2079C45.5737 53.2196 45.5596 53.2145 45.5596 53.2208C45.5592 53.2381 45.5925 53.231 45.5625 53.2452C45.6555 53.2313 45.5748 53.2697 45.5504 53.2809C45.5457 53.2627 45.541 53.2445 45.5362 53.2263C45.5314 53.2273 45.5265 53.2284 45.5216 53.2294C45.5223 53.2246 45.523 53.2198 45.5237 53.215C45.5283 53.2158 45.533 53.2166 45.5377 53.2173C45.5073 53.1926 45.5415 53.1866 45.5419 53.1846C45.5458 53.1586 45.5455 53.1287 45.5456 53.1025C45.5457 53.0985 45.5152 53.1012 45.539 53.0725C45.5466 53.0634 45.5703 53.072 45.5668 53.0617C45.5024 53.0487 45.5537 53.0489 45.5538 53.0451C45.5538 53.034 45.5379 53.0273 45.5377 53.0262C45.5352 53.0126 45.5379 52.9925 45.5355 52.9775C45.5353 52.9772 45.5155 52.9851 45.5213 52.9753C45.5234 52.9719 45.6078 52.9411 45.5803 52.9143C45.5746 52.9213 45.5689 52.9283 45.5632 52.9352C45.5712 52.927 45.5499 52.8695 45.5273 52.8835C45.5135 52.8922 45.5679 52.9132 45.5156 52.9155C45.5313 52.8964 45.5079 52.7906 45.52 52.7823C45.5217 52.7812 45.5387 52.7882 45.5409 52.7866C45.5425 52.7854 45.5385 52.7612 45.545 52.758C45.5489 52.7561 45.5593 52.7668 45.5654 52.7659C45.5698 52.7651 45.577 52.7349 45.5558 52.7331C45.5643 52.7406 45.5569 52.7615 45.5389 52.7505C45.5367 52.7491 45.5504 52.7418 45.5476 52.7401C45.5215 52.7242 45.5278 52.7717 45.5276 52.779C45.5005 52.7492 45.5324 52.7031 45.5148 52.6685C45.5325 52.6546 45.5418 52.6892 45.5565 52.6734C45.5869 52.6407 45.532 52.6647 45.5298 52.6637C45.5119 52.6556 45.6076 52.6278 45.5348 52.6278C45.5457 52.6159 45.5549 52.6198 45.5454 52.603C45.5404 52.6052 45.5353 52.6074 45.5303 52.6096C45.4881 52.591 45.5945 52.5516 45.6027 52.5546C45.6244 52.5625 45.5905 52.583 45.5913 52.5848C45.5925 52.5874 45.6664 52.5945 45.6003 52.6229C45.6499 52.6346 45.6338 52.5779 45.6676 52.6037C45.662 52.5863 45.6966 52.5147 45.6748 52.5044C45.672 52.5032 45.6226 52.5089 45.6477 52.4913C45.6597 52.4829 45.6602 52.5031 45.6715 52.4993C45.706 52.4874 45.6839 52.3267 45.6821 52.2962C45.6821 52.2942 45.6974 52.2949 45.6973 52.293C45.6968 52.287 45.674 52.2652 45.681 52.2545C45.6526 52.2767 45.6504 52.2336 45.6536 52.2226C45.6583 52.206 45.6853 52.207 45.691 52.1998C45.7132 52.1722 45.6491 52.1292 45.709 52.1077C45.6495 52.1089 45.7381 52.0705 45.7386 52.053C45.7391 52.0394 45.6997 52.0195 45.6758 52.038C45.6785 52.0144 45.6674 51.9895 45.6638 51.9674C45.6632 51.9637 45.6808 51.9687 45.6792 51.9625C45.6789 51.9619 45.6617 51.9611 45.6599 51.9558C45.6449 51.9115 45.6815 51.933 45.6923 51.9248C45.6983 51.9201 45.7013 51.9167 45.7023 51.9142C45.7056 51.94 45.7124 51.9698 45.7129 51.9777C45.7509 51.9709 45.7056 51.9205 45.7158 51.9058C45.7162 51.9052 45.7372 51.907 45.7373 51.9065C45.7373 51.9065 45.7373 51.9065 45.7373 51.9065C45.7389 51.9009 45.7312 51.8657 45.7062 51.873C45.6995 51.8749 45.6995 51.8911 45.7018 51.9104C45.6971 51.9052 45.6736 51.909 45.6726 51.9081C45.661 51.897 45.6839 51.8697 45.687 51.86C45.6877 51.8578 45.6726 51.8579 45.6726 51.8576C45.676 51.8488 45.719 51.8524 45.6747 51.8433C45.7282 51.8274 45.6826 51.8732 45.7174 51.87C45.7442 51.8675 45.7298 51.7657 45.6876 51.766C45.6921 51.7657 45.6977 51.7643 45.7041 51.7614C45.7182 51.755 45.7138 51.7267 45.706 51.7218C45.7045 51.721 45.6636 51.7213 45.6632 51.7203C45.6623 51.7177 45.6944 51.6831 45.6702 51.6701C45.6644 51.6771 45.6587 51.6841 45.6529 51.6911C45.6526 51.6489 45.6404 51.6554 45.6282 51.6695C45.6281 51.6702 45.6265 51.6709 45.6263 51.6715C45.6173 51.6824 45.6086 51.6964 45.6053 51.6966C45.593 51.6974 45.5862 51.6258 45.6241 51.6396C45.6293 51.6415 45.6124 51.6746 45.6395 51.6582C45.6443 51.6554 45.6365 51.6341 45.6395 51.633C45.6594 51.6255 45.6858 51.672 45.714 51.6663C45.6871 51.655 45.7013 51.6405 45.6943 51.6276C45.6912 51.6217 45.6707 51.6203 45.6703 51.6196C45.6649 51.6087 45.6864 51.6148 45.6859 51.6112C45.6855 51.6092 45.6397 51.5879 45.7029 51.5919C45.6564 51.5215 45.6565 51.5724 45.66 51.6156C45.637 51.602 45.6482 51.5752 45.6428 51.5632C45.6409 51.5589 45.6198 51.5614 45.6156 51.5542C45.6069 51.5392 45.6311 51.4676 45.6368 51.449C45.6443 51.4605 45.6672 51.4571 45.6656 51.4483C45.664 51.4394 45.6334 51.4469 45.6301 51.4451C45.6267 51.4433 45.6412 51.4019 45.6372 51.395C45.6483 51.4262 45.6712 51.4191 45.6736 51.3926C45.6802 51.3965 45.6868 51.4003 45.6934 51.4041C45.6841 51.3886 45.719 51.356 45.7086 51.347C45.7069 51.3456 45.6877 51.3506 45.6868 51.3499C45.6786 51.342 45.6982 51.3152 45.6916 51.314C45.6862 51.3129 45.67 51.3243 45.6621 51.3201C45.6604 51.3192 45.6864 51.3082 45.68 51.2973C45.6777 51.2933 45.6595 51.2957 45.6584 51.2947C45.6497 51.2863 45.6803 51.2913 45.6754 51.2758C45.6718 51.2645 45.6418 51.2561 45.6517 51.2405C45.6135 51.2918 45.6295 51.2486 45.6179 51.2272C45.6161 51.2237 45.583 51.2267 45.5991 51.2061C45.6589 51.2499 45.6307 51.1937 45.6313 51.1822C45.6315 51.1815 45.6533 51.1813 45.6537 51.1757C45.6537 51.1752 45.6389 51.1759 45.6378 51.1707C45.6272 51.121 45.6438 51.1527 45.6583 51.1433C45.6645 51.1393 45.6437 51.1151 45.6432 51.1086C45.6431 51.1071 45.6584 51.1078 45.6578 51.102C45.6567 51.0917 45.6404 51.0826 45.6392 51.0758C45.6391 51.075 45.6632 51.075 45.6554 51.0622C45.6532 51.0586 45.6446 51.0545 45.6377 51.0596C45.6149 51.0766 45.6544 51.1088 45.6316 51.128C45.6108 51.1455 45.6089 51.0903 45.6088 51.0875C45.6087 51.0864 45.6207 51.0972 45.623 51.0862C45.625 51.0769 45.5833 51.0598 45.5924 51.0459C45.5931 51.0448 45.6284 51.0337 45.6305 51.0342C45.632 51.0346 45.6397 51.0517 45.6499 51.0493C45.6511 51.049 45.6508 51.0381 45.6584 51.0367C45.6677 51.0349 45.7587 51.0303 45.761 51.0279C45.7666 51.022 45.7459 51.0259 45.7473 51.022C45.7504 51.0138 45.7773 50.9851 45.7457 50.9842C45.7439 50.9889 45.742 50.9936 45.7401 50.9984C45.7369 50.972 45.7234 50.9833 45.7175 50.9795C45.7111 50.9755 45.7388 50.9766 45.7414 50.9678C45.742 50.9658 45.7362 50.9287 45.7246 50.9294C45.7431 50.9499 45.7089 50.9423 45.7082 50.9433C45.706 50.9468 45.7252 50.9514 45.7248 50.9563C45.7218 50.9902 45.6915 50.956 45.6837 50.964C45.6811 50.9668 45.6975 50.9723 45.6966 50.9734C45.6939 50.9772 45.6724 50.9773 45.6742 50.9798C45.6782 50.9857 45.7086 50.9788 45.7102 50.9793C45.7292 50.9846 45.7056 51.0053 45.6725 50.9924C45.6606 51.0002 45.7008 51.0011 45.6847 51.0072C45.6529 51.0194 45.661 51.0011 45.6558 50.9962C45.6367 50.9784 45.6521 50.9731 45.6468 50.9479C45.645 50.9389 45.6255 50.9281 45.6244 50.9239C45.6237 50.9213 45.6916 50.8963 45.5853 50.8955C45.5956 50.8858 45.6657 50.8705 45.6625 50.8605C45.6595 50.8515 45.6219 50.8544 45.6205 50.8535C45.6182 50.8522 45.6212 50.8414 45.6158 50.8377C45.6096 50.8334 45.5952 50.8355 45.5893 50.8287C45.5748 50.8117 45.6132 50.8121 45.6157 50.8104C45.6446 50.79 45.5899 50.7989 45.5856 50.7944C45.5815 50.7902 45.6026 50.7314 45.5887 50.719C45.5964 50.7241 45.6041 50.7291 45.6118 50.7342C45.6358 50.7251 45.5967 50.7156 45.6396 50.7154C45.5703 50.7136 45.6166 50.695 45.6149 50.6894C45.6141 50.6872 45.6023 50.6874 45.6018 50.6846C45.5997 50.6738 45.6091 50.6496 45.6031 50.6437C45.5773 50.6185 45.5344 50.6831 45.5318 50.6881C45.5326 50.678 45.5171 50.6204 45.4837 50.6468C45.4786 50.6509 45.5096 50.6582 45.5109 50.6605C45.5188 50.676 45.491 50.6638 45.4884 50.665C45.4841 50.6671 45.511 50.6773 45.5078 50.68C45.5068 50.6809 45.4816 50.6751 45.4811 50.69C45.4567 50.6827 45.4765 50.641 45.4708 50.6355C45.4688 50.6336 45.4166 50.6458 45.4673 50.6101C45.4624 50.6105 45.4576 50.6109 45.4527 50.6113C45.4507 50.5915 45.4488 50.5716 45.4468 50.5517C45.4579 50.5539 45.4803 50.565 45.4756 50.551C45.4728 50.5429 45.448 50.5489 45.4472 50.5481C45.4404 50.5409 45.4487 50.4124 45.4459 50.3875C45.445 50.379 45.425 50.3554 45.4247 50.3536C45.4227 50.3428 45.4357 50.3047 45.4328 50.2971C45.431 50.2924 45.4103 50.2969 45.4112 50.2926C45.4122 50.2887 45.4322 50.2928 45.4331 50.2916C45.4404 50.2819 45.414 50.2082 45.433 50.1907C45.4273 50.2014 45.4674 50.2548 45.4816 50.2537C45.4835 50.2535 45.4988 50.2405 45.4913 50.2378C45.5087 50.2334 45.4558 50.2182 45.4662 50.21C45.4674 50.209 45.497 50.2127 45.5024 50.198C45.5043 50.1929 45.4811 50.1796 45.5071 50.1662C45.4946 50.1469 45.5331 50.0451 45.5012 50.0381C45.4995 50.0379 45.4885 50.0522 45.4754 50.0425C45.458 50.0296 45.5167 50.0412 45.5217 50.0262C45.5225 50.0239 45.5166 49.9822 45.5129 49.9808C45.48 49.9682 45.4667 50.0047 45.4629 50.0041C45.4532 50.0029 45.4474 49.9726 45.4497 49.9713C45.4521 49.9701 45.4956 49.9949 45.4791 49.9652C45.4739 49.9686 45.4687 49.972 45.4635 49.9754C45.4533 49.9614 45.4835 49.9601 45.4853 49.9567C45.4912 49.9462 45.4454 49.9348 45.5019 49.9179C45.517 49.9135 45.5336 49.9209 45.5359 49.9203C45.5561 49.9149 45.502 49.9081 45.5423 49.9001C45.5454 49.8995 45.5695 49.9182 45.5696 49.8854C45.5657 49.8877 45.5618 49.8899 45.558 49.8922C45.5493 49.8876 45.5442 49.8544 45.5463 49.85C45.5522 49.8369 45.58 49.8483 45.5766 49.8352C45.5386 49.8436 45.5337 49.8038 45.5664 49.806C45.5253 49.8005 45.557 49.7666 45.558 49.7507C45.5586 49.7407 45.5406 49.7202 45.5427 49.717C45.5453 49.7131 45.5733 49.7143 45.5796 49.7073C45.5814 49.7053 45.5608 49.6844 45.5898 49.6661C45.5954 49.6625 45.643 49.6551 45.6549 49.6617C45.6752 49.673 45.6369 49.6944 45.665 49.6941C45.6951 49.6938 45.6772 49.665 45.6811 49.6572C45.6993 49.6214 45.7313 49.6421 45.741 49.6412C45.7645 49.6388 45.7638 49.6192 45.7659 49.6184C45.7753 49.615 45.7939 49.6289 45.8082 49.6291C45.8269 49.6294 45.8606 49.6105 45.8669 49.6148C45.8759 49.6209 45.8478 49.6382 45.8491 49.6393C45.8673 49.6536 45.9104 49.634 45.9316 49.6286C45.9382 49.627 45.9489 49.6335 45.9508 49.6322C45.9799 49.6115 45.8901 49.6278 45.8961 49.614C45.9015 49.6017 45.9298 49.6175 45.9314 49.6171C45.9331 49.6165 45.9347 49.6018 45.9447 49.5995C45.9497 49.5983 46.0049 49.6365 46.0297 49.6349C46.0242 49.6228 46.0188 49.6106 46.0133 49.5984C46.0456 49.5974 46.0218 49.615 46.0252 49.6168C46.0318 49.6204 46.0482 49.6102 46.0584 49.6107C46.0648 49.6109 46.088 49.6229 46.0975 49.6121C46.1008 49.6084 46.0782 49.6006 46.1013 49.5871C46.1308 49.6341 46.149 49.6015 46.1604 49.6001C46.1718 49.5987 46.1987 49.6212 46.194 49.5939C46.2568 49.5928 46.2138 49.5945 46.2249 49.6023C46.2384 49.6118 46.2591 49.5898 46.2434 49.6245C46.2728 49.6225 46.2707 49.5947 46.2731 49.5932C46.2752 49.5919 46.2897 49.5981 46.2946 49.5959C46.3514 49.5698 46.3254 49.5877 46.3617 49.5802C46.365 49.5795 46.3784 49.5548 46.3837 49.5736C46.3933 49.6078 46.3516 49.6222 46.4407 49.6279C46.4794 49.6026 46.4219 49.5719 46.4209 49.5642C46.4195 49.5524 46.4377 49.5646 46.4428 49.5632C46.4444 49.5626 46.4429 49.5525 46.4444 49.5524C46.5123 49.5451 46.4455 49.5976 46.4573 49.6141C46.4675 49.6097 46.4776 49.6052 46.4878 49.6008C46.4882 49.6068 46.4886 49.6128 46.489 49.6188C46.5095 49.5902 46.4968 49.6178 46.5518 49.625C46.5641 49.6266 46.5429 49.6078 46.5773 49.6292C46.5852 49.6134 46.5965 49.6184 46.581 49.6041C46.603 49.6045 46.6279 49.6367 46.6392 49.6494C46.664 49.6045 46.5831 49.6301 46.6259 49.5913C46.5986 49.5841 46.6039 49.6026 46.5994 49.6011C46.5832 49.5957 46.6089 49.583 46.5521 49.5677C46.5428 49.5652 46.5141 49.5757 46.5155 49.5601C46.5157 49.5584 46.5402 49.5484 46.542 49.5485C46.5612 49.5499 46.554 49.5597 46.562 49.5601C46.5696 49.5605 46.5651 49.5495 46.5672 49.5495C46.5912 49.5491 46.5764 49.5587 46.5839 49.5573C46.6003 49.5543 46.652 49.5147 46.6369 49.5664C46.6097 49.5235 46.6103 49.5609 46.6208 49.5776C46.6234 49.5818 46.6377 49.5829 46.6427 49.589C46.6492 49.5968 46.6423 49.6059 46.6449 49.6099C46.6478 49.6143 46.6818 49.5896 46.6717 49.6253C46.7054 49.6071 46.6694 49.575 46.6931 49.5572C46.7411 49.5212 46.7514 49.5823 46.756 49.5887C46.7573 49.5904 46.7767 49.5847 46.7779 49.5858C46.7797 49.5877 46.7707 49.6223 46.7868 49.6258C46.8028 49.6292 46.786 49.6131 46.8028 49.612C46.814 49.6113 46.834 49.6531 46.8417 49.6304C46.847 49.6148 46.8017 49.5861 46.8504 49.5812C46.8544 49.6042 46.8584 49.6271 46.8625 49.6501C46.881 49.6375 46.8995 49.625 46.918 49.6124C46.9239 49.6382 46.903 49.6604 46.9295 49.6849C46.9888 49.6261 46.9768 49.704 46.9841 49.7048C46.9884 49.7051 47.0365 49.682 47.0453 49.6783C47.0639 49.6988 47.0729 49.7611 47.1324 49.7246C47.1189 49.7312 47.1521 49.7473 47.1546 49.7471C47.1809 49.745 47.1638 49.7101 47.1875 49.7158C47.2151 49.7224 47.1777 49.7316 47.1807 49.7418C47.1963 49.7939 47.3334 49.7796 47.3117 49.8319C47.3166 49.8309 47.3215 49.8298 47.3263 49.8288C47.3186 49.8856 47.3108 49.9425 47.303 49.9993C47.3449 50.0215 47.3704 50.0807 47.3658 50.1098C47.3649 50.1156 47.3429 50.1444 47.339 50.1465C47.3317 50.1506 47.3288 50.1285 47.315 50.1385C47.3122 50.1406 47.3029 50.1892 47.3263 50.1857C47.3291 50.1803 47.3173 50.1632 47.3228 50.1604C47.3622 50.1408 47.3307 50.2908 47.3466 50.2982C47.3542 50.2949 47.3618 50.2916 47.3694 50.2883C47.3657 50.2977 47.362 50.3072 47.3582 50.3167ZM45.4764 49.8818C45.4529 49.8761 45.4706 49.8618 45.464 49.8534C45.4547 49.8418 45.3642 49.8221 45.4549 49.8306C45.4621 49.8476 45.4693 49.8647 45.4764 49.8818ZM45.4414 50.1312C45.454 50.1197 45.5047 50.1286 45.4836 50.138C45.4812 50.139 45.4244 50.1467 45.4414 50.1312ZM45.4654 50.0112C45.4661 50.0117 45.4648 50.0216 45.464 50.0219C45.4436 50.0308 45.4478 50.001 45.4654 50.0112ZM45.4914 50.5908C45.4893 50.5782 45.4432 50.5873 45.4621 50.5952C45.4633 50.5956 45.4915 50.5916 45.4914 50.5908ZM45.4927 50.5818C45.5339 50.572 45.4503 50.5523 45.4587 50.568C45.4596 50.5695 45.4907 50.5823 45.4927 50.5818ZM45.4615 50.0904C45.4773 50.0917 45.4697 50.1035 45.4659 50.1085C45.4515 50.1084 45.4633 50.0953 45.4615 50.0904ZM45.4659 50.3897C45.4784 50.3902 45.4777 50.3492 45.4613 50.3464C45.4682 50.3529 45.4548 50.3892 45.4659 50.3897ZM45.4834 50.4949C45.4855 50.4939 45.4823 50.4797 45.4713 50.4801C45.4569 50.487 45.4737 50.4996 45.4834 50.4949ZM45.4827 50.7041C45.4854 50.7048 45.5552 50.6942 45.5093 50.7194C45.5025 50.7231 45.4843 50.7099 45.4818 50.7112C45.4769 50.7139 45.4746 50.7161 45.4742 50.7179C45.4684 50.7061 45.4657 50.694 45.47 50.6928C45.49 50.6873 45.4815 50.7037 45.4827 50.7041ZM45.5347 50.8139C45.546 50.8163 45.54 50.8317 45.5353 50.8352C45.5344 50.8358 45.5045 50.8332 45.5067 50.8401C45.5085 50.8457 45.5392 50.8374 45.5343 50.8482C45.5294 50.8592 45.5075 50.8445 45.506 50.8455C45.5039 50.8468 45.5177 50.8637 45.4999 50.8632C45.4867 50.8628 45.4956 50.8446 45.4928 50.8402C45.4892 50.8344 45.4672 50.8414 45.4719 50.8318C45.4749 50.8257 45.5135 50.8291 45.5155 50.8278C45.5171 50.8267 45.4948 50.8056 45.5345 50.8139C45.5346 50.8139 45.5346 50.8139 45.5347 50.8139ZM45.4759 50.721C45.4746 50.7201 45.4739 50.7191 45.4742 50.7179C45.4748 50.7189 45.4754 50.72 45.4759 50.721ZM45.4934 49.9148C45.4815 49.9208 45.4662 49.9031 45.4818 49.8964C45.4944 49.8963 45.4953 49.9139 45.4934 49.9148ZM45.5074 50.7319C45.4977 50.7493 45.4844 50.7365 45.4759 50.721C45.4832 50.7259 45.5107 50.726 45.5074 50.7319ZM45.4913 50.2378C45.4884 50.2386 45.4839 50.239 45.4765 50.2391C45.4846 50.2371 45.489 50.237 45.4913 50.2378ZM45.4781 50.2784C45.5006 50.2923 45.4997 50.2641 45.4836 50.2642C45.4775 50.2643 45.4772 50.2779 45.4781 50.2784ZM45.4892 50.607C45.4914 50.6057 45.5594 50.6255 45.5084 50.5968C45.5004 50.6121 45.493 50.5959 45.487 50.5961C45.4699 50.5968 45.4864 50.6225 45.479 50.6282C45.5096 50.6327 45.482 50.6112 45.4892 50.607C45.4892 50.607 45.4892 50.607 45.4892 50.607ZM45.5182 51.0118C45.5002 51.0083 45.506 50.9972 45.5071 50.9897C45.525 50.9932 45.5192 51.0043 45.5182 51.0118ZM45.5156 52.9658C45.499 52.9147 45.5721 52.908 45.5432 52.9548C45.5426 52.9558 45.523 52.9689 45.5156 52.9658ZM45.5345 52.5267C45.5664 52.5219 45.5715 52.5378 45.5583 52.5483C45.5554 52.5507 45.5231 52.5594 45.5168 52.5494C45.5554 52.5498 45.5702 52.5343 45.5345 52.5267ZM45.5278 50.7417C45.549 50.7468 45.5339 50.7624 45.5307 50.7706C45.5133 50.7656 45.5212 50.749 45.5278 50.7417ZM45.5537 52.7977C45.5561 52.7923 45.5284 52.7886 45.5261 52.7896C45.5155 52.7937 45.5379 52.8038 45.5537 52.7977ZM45.5311 50.6914C45.5438 50.6907 45.556 50.7113 45.5246 50.7128C45.5269 50.7083 45.5232 50.6919 45.5311 50.6914ZM45.5277 50.9977C45.5341 50.9945 45.5457 51.0111 45.5393 51.0161C45.5258 51.0157 45.5235 50.9998 45.5277 50.9977ZM45.5443 52.7109C45.5467 52.706 45.5474 52.694 45.5362 52.6926C45.5222 52.691 45.527 52.7087 45.5443 52.7109ZM45.5685 53.6095C45.5634 53.6101 45.5272 53.5914 45.5364 53.5831C45.5539 53.5673 45.572 53.6088 45.5685 53.6095ZM45.568 52.8487C45.5416 52.864 45.5672 52.8471 45.5394 52.8477C45.5384 52.858 45.537 52.8835 45.5643 52.8659C45.5696 52.8625 45.5662 52.8535 45.568 52.8487ZM45.5773 52.8347C45.5683 52.8331 45.54 52.8221 45.542 52.8316C45.543 52.836 45.5744 52.843 45.5773 52.8347ZM45.5561 53.4937C45.5807 53.48 45.5675 53.5426 45.5632 53.5444C45.5609 53.5454 45.5588 53.546 45.557 53.5463C45.5648 53.5486 45.5662 53.5605 45.5465 53.5618C45.5481 53.5583 45.5464 53.5486 45.5486 53.5475C45.5495 53.547 45.5504 53.5466 45.5513 53.5464C45.5342 53.5422 45.5515 53.4963 45.5561 53.4937ZM45.5814 53.39C45.6176 53.4056 45.556 53.4084 45.5541 53.407C45.5289 53.39 45.5743 53.4011 45.5764 53.4006C45.5799 53.3994 45.5589 53.3873 45.5814 53.39C45.5814 53.39 45.5814 53.39 45.5814 53.39ZM45.5663 53.4724C45.5671 53.4731 45.5652 53.4862 45.5642 53.4867C45.5435 53.4975 45.5488 53.4604 45.5663 53.4724ZM45.5777 50.8966C45.5716 50.906 45.549 50.8968 45.5571 50.8906C45.5579 50.8901 45.5832 50.8883 45.5777 50.8966ZM45.5712 52.8272C45.5754 52.825 45.5916 52.7693 45.5574 52.7727C45.5614 52.7774 45.5438 52.8407 45.5712 52.8272ZM45.5795 52.411C45.5792 52.4209 45.5469 52.4102 45.5589 52.4049C45.5634 52.403 45.5795 52.4086 45.5795 52.411ZM45.5604 50.6635C45.5427 50.6533 45.6022 50.6554 45.5818 50.6643C45.581 50.6646 45.5611 50.6639 45.5604 50.6635ZM45.5609 52.4895C45.5413 52.4556 45.6437 52.4636 45.6091 52.5077C45.6046 52.5063 45.6 52.5049 45.5954 52.5035C45.5801 52.5544 45.5882 52.507 45.5825 52.4946C45.5803 52.4898 45.5633 52.4938 45.5608 52.4895C45.5608 52.4895 45.5609 52.4895 45.5609 52.4895ZM45.5814 52.3594C45.654 52.3268 45.6067 52.3891 45.6162 52.4069C45.5862 52.3896 45.5907 52.3671 45.56 52.3977C45.5541 52.3529 45.583 52.3716 45.5854 52.3698C45.5881 52.3676 45.5783 52.3608 45.5814 52.3594ZM45.5819 52.4454C45.584 52.4473 45.5692 52.4615 45.5716 52.4666C45.5468 52.4595 45.5675 52.4329 45.5819 52.4454ZM45.5646 53.2813C45.584 53.2825 45.5983 53.2854 45.5911 53.2966C45.5813 53.2931 45.5729 53.286 45.5646 53.2813ZM45.5787 49.871C45.5801 49.8633 45.5874 49.8479 45.567 49.8526C45.5653 49.8531 45.5673 49.871 45.5787 49.871ZM45.5869 52.6655C45.5893 52.6638 45.5909 52.6214 45.5694 52.636C45.563 52.6404 45.5657 52.6791 45.5869 52.6655ZM45.5845 52.8853C45.5847 52.8818 45.581 52.8674 45.5764 52.867C45.5605 52.8661 45.5692 52.8838 45.5845 52.8853ZM45.5986 49.832C45.6006 49.831 45.5971 49.8074 45.5876 49.81C45.5698 49.8149 45.5917 49.8355 45.5986 49.832ZM45.6233 50.9308C45.624 50.9328 45.6029 50.9354 45.6027 50.936C45.6023 50.9376 45.6105 50.9737 45.5834 50.9599C45.5788 50.9576 45.5892 50.9057 45.5919 50.899C45.6209 50.8964 45.5933 50.9185 45.5963 50.9239C45.5969 50.9249 45.6211 50.9255 45.6232 50.9308C45.6232 50.9308 45.6232 50.9308 45.6233 50.9308ZM45.5851 53.3397C45.6035 53.3413 45.6157 53.3837 45.5934 53.3832C45.5906 53.3687 45.5878 53.3542 45.5851 53.3397ZM45.5881 53.3182C45.6012 53.3091 45.6055 53.3303 45.5997 53.3365C45.5873 53.3366 45.5862 53.3195 45.5881 53.3182ZM45.6533 52.8049C45.6488 52.8006 45.6219 52.8137 45.6167 52.8108C45.6134 52.8089 45.6235 52.7994 45.6151 52.7964C45.6124 52.7955 45.5872 52.8052 45.5882 52.808C45.5897 52.812 45.6096 52.8081 45.6097 52.8125C45.6102 52.827 45.596 52.8398 45.5963 52.8533C45.5964 52.8546 45.6104 52.8451 45.6102 52.8555C45.6102 52.8571 45.5893 52.8668 45.5924 52.8793C45.6572 52.9069 45.5936 52.9272 45.6169 52.9622C45.623 52.9609 45.6394 52.9347 45.64 52.9331C45.6507 52.9039 45.6518 52.8514 45.652 52.8208C45.652 52.8129 45.6383 52.8167 45.6378 52.8134C45.6374 52.8107 45.6628 52.8139 45.6533 52.8049ZM45.5928 49.8751C45.6181 49.8714 45.6021 49.8585 45.6034 49.8502C45.5805 49.8532 45.5984 49.867 45.5928 49.8751ZM45.6078 53.1277C45.6068 53.1236 45.6144 53.1108 45.6068 53.1097C45.5968 53.1083 45.5905 53.1268 45.6078 53.1277ZM45.6161 51.1342C45.6168 51.1346 45.6154 51.1446 45.6146 51.145C45.5943 51.1538 45.5984 51.124 45.6161 51.1342ZM45.6112 51.3721C45.6143 51.3796 45.6223 51.3872 45.6017 51.3897C45.6048 51.3849 45.5969 51.3712 45.6112 51.3721ZM45.6118 51.7001C45.6388 51.6986 45.6213 51.7213 45.6189 51.7256C45.6069 51.724 45.5924 51.7013 45.6118 51.7001ZM45.6492 53.2797C45.6476 53.2935 45.6884 53.2906 45.6699 53.2994C45.6668 53.3009 45.5818 53.3055 45.6136 53.2902C45.6194 53.2875 45.6396 53.2982 45.6492 53.2797ZM45.6083 52.5148C45.6261 52.5184 45.6208 52.5294 45.6194 52.5369C45.6061 52.5352 45.6095 52.5201 45.6083 52.5148ZM45.619 49.7894C45.6442 49.7829 45.6255 49.7529 45.6089 49.7603C45.6067 49.7614 45.62 49.7852 45.619 49.7894ZM45.6091 50.777C45.6289 50.7894 45.6351 50.7637 45.6157 50.7557C45.617 50.7593 45.6078 50.7762 45.6091 50.777ZM45.6265 51.6213C45.6273 51.6219 45.6254 51.635 45.6244 51.6356C45.6037 51.6464 45.609 51.6093 45.6265 51.6213ZM45.6439 51.2939C45.6602 51.2986 45.6471 51.3296 45.6307 51.3366C45.6069 51.3299 45.6235 51.288 45.6439 51.2939ZM45.6376 53.2226C45.6384 53.2325 45.6334 53.2419 45.6263 53.251C45.6126 53.249 45.6273 53.2236 45.6376 53.2226ZM45.6282 51.6695C45.6281 51.6702 45.6265 51.6709 45.6263 51.6715C45.6269 51.6708 45.6276 51.6701 45.6282 51.6695ZM45.6472 53.0011C45.6526 52.9928 45.6275 52.9945 45.6267 52.995C45.6186 53.0013 45.6411 53.0105 45.6472 53.0011ZM45.6301 49.8656C45.6528 49.8627 45.6352 49.8488 45.6406 49.8408C45.6227 49.8431 45.6277 49.8591 45.6301 49.8656ZM45.6279 52.3245C45.6525 52.3141 45.6811 52.3565 45.6653 52.3654C45.6501 52.366 45.6246 52.326 45.6279 52.3245ZM45.6432 50.7386C45.661 50.7378 45.6395 50.72 45.6311 50.7237C45.6257 50.7261 45.6321 50.7391 45.6432 50.7386ZM45.6549 52.3867C45.6603 52.3907 45.6428 52.4 45.6321 52.3967C45.6184 52.3925 45.6533 52.3857 45.6549 52.3867ZM45.6692 52.7441C45.6719 52.7423 45.6536 52.7189 45.6355 52.7286C45.6229 52.7353 45.6486 52.7364 45.6487 52.7379C45.6486 52.7397 45.6171 52.7773 45.6692 52.7441ZM45.6434 52.087C45.6503 52.0959 45.6423 52.1066 45.6428 52.1158C45.6318 52.112 45.6288 52.0908 45.6434 52.087ZM45.6479 50.8072C45.6551 50.8051 45.6595 50.7466 45.6373 50.7798C45.6361 50.7818 45.6261 50.8137 45.6479 50.8072ZM45.6492 53.2797C45.6494 53.2779 45.6502 53.2759 45.652 53.2736C45.6513 53.2759 45.6501 53.2779 45.6492 53.2797ZM45.6518 53.1221C45.6648 53.1253 45.6683 53.1092 45.6614 53.1045C45.6455 53.103 45.65 53.1217 45.6518 53.1221ZM45.6609 52.1165C45.6683 52.1218 45.6604 52.1315 45.6612 52.1381C45.6492 52.137 45.6486 52.1188 45.6609 52.1165ZM45.6744 51.7423C45.6673 51.7529 45.6706 51.7659 45.6853 51.7661C45.683 51.7663 45.6805 51.7669 45.6781 51.7677C45.6757 51.7686 45.6825 51.7799 45.6775 51.7848C45.6476 51.8143 45.6599 51.671 45.7015 51.7541C45.6925 51.7501 45.6835 51.7462 45.6744 51.7423ZM45.6786 51.2518C45.6965 51.2458 45.674 51.229 45.667 51.2334C45.6621 51.2364 45.6605 51.2578 45.6786 51.2518ZM45.6892 51.4829C45.6924 51.4811 45.6798 51.4647 45.6704 51.4643C45.6605 51.4737 45.6743 51.4911 45.6892 51.4829ZM45.6996 51.2056C45.7023 51.2019 45.6734 51.1971 45.6721 51.1975C45.6616 51.2013 45.6835 51.212 45.6996 51.2056ZM45.727 53.2509C45.7353 53.2453 45.7144 53.2274 45.6953 53.2235C45.699 53.2228 45.7038 53.2209 45.7096 53.2173C45.7096 53.2173 45.7096 53.2173 45.7096 53.2173C45.7173 53.2125 45.7257 53.068 45.689 53.1649C45.6878 53.1679 45.7049 53.1638 45.7019 53.1762C45.7017 53.177 45.6877 53.1774 45.687 53.1799C45.6855 53.1857 45.6767 53.2166 45.688 53.2228C45.6854 53.2228 45.6829 53.2232 45.6807 53.2241C45.6605 53.2317 45.7207 53.2553 45.727 53.2509ZM45.6918 51.5155C45.6969 51.5122 45.692 51.5017 45.6797 51.5006C45.6736 51.5058 45.6797 51.5231 45.6918 51.5155ZM45.6986 50.8054C45.7088 50.7987 45.6898 50.7816 45.6797 50.7868C45.6735 50.7899 45.6869 50.8132 45.6986 50.8054ZM45.6852 51.4107C45.6706 51.4493 45.6864 51.4199 45.7045 51.4258C45.698 51.4208 45.6916 51.4157 45.6852 51.4107ZM45.6803 53.4296C45.6845 53.4235 45.7202 53.4307 45.7008 53.4375C45.6946 53.4396 45.678 53.4331 45.6803 53.4296ZM45.6914 53.7076C45.7231 53.7024 45.7045 53.728 45.6827 53.718C45.682 53.7176 45.6902 53.708 45.6914 53.7076ZM45.7043 53.5134C45.6828 53.5092 45.6802 53.5065 45.6855 53.4947C45.6916 53.5121 45.7107 53.496 45.7043 53.5134ZM45.6876 51.766C45.6867 51.7661 45.6861 51.7661 45.6853 51.7661C45.6861 51.766 45.6868 51.766 45.6876 51.766ZM45.694 51.1693C45.7122 51.1645 45.7109 51.151 45.6925 51.155C45.6908 51.1554 45.6805 51.1674 45.694 51.1693ZM45.6953 53.2235C45.692 53.2242 45.6899 53.2239 45.688 53.2228C45.6904 53.2227 45.6927 53.223 45.6953 53.2235ZM45.7089 51.2421C45.6952 51.2416 45.6899 51.2622 45.6915 51.263C45.7152 51.2749 45.7097 51.2506 45.7089 51.2421ZM45.7178 50.6691C45.7163 50.668 45.6812 50.6749 45.6949 50.6791C45.7056 50.6824 45.7232 50.6731 45.7178 50.6691ZM45.7131 53.5533C45.7131 53.5599 45.7131 53.5691 45.6964 53.5707C45.699 53.5664 45.7009 53.5532 45.7131 53.5533ZM45.7143 53.6976C45.6947 53.6899 45.6948 53.6722 45.698 53.661C45.7239 53.6608 45.7083 53.6903 45.7143 53.6976ZM45.7174 53.2686C45.7185 53.2681 45.7262 53.2517 45.7089 53.254C45.6835 53.2572 45.708 53.2733 45.7174 53.2686ZM45.6991 50.7009C45.711 50.7082 45.7477 50.6914 45.7194 50.6836C45.7049 50.6797 45.6971 50.6997 45.6991 50.7009ZM45.7179 51.1271C45.7079 51.1174 45.69 51.1413 45.7081 51.1447C45.7096 51.1402 45.7214 51.1305 45.7179 51.1271ZM45.7362 51.4558C45.7884 51.4253 45.6932 51.4419 45.7015 51.4473C45.7027 51.4481 45.735 51.4565 45.7362 51.4558ZM45.7234 49.7139C45.7161 49.7096 45.6898 49.7257 45.7071 49.7277C45.718 49.729 45.728 49.7167 45.7234 49.7139ZM45.7023 51.9142C45.7021 51.9129 45.7019 51.9116 45.7018 51.9104C45.7026 51.9113 45.7029 51.9126 45.7023 51.9142ZM45.7878 51.0394C45.7141 51.0608 45.7709 51.0585 45.7706 51.0604C45.7698 51.0644 45.7499 51.0738 45.7532 51.0814C45.7449 51.0727 45.7366 51.064 45.7283 51.0553C45.7229 51.0622 45.6958 51.1218 45.7078 51.123C45.7248 51.1248 45.7194 51.1061 45.7209 51.1055C45.7231 51.1047 45.7704 51.1018 45.7722 51.1C45.7751 51.0972 45.7761 51.0473 45.7878 51.0394ZM45.728 51.3921C45.7224 51.397 45.7036 51.3984 45.7081 51.4007C45.7097 51.4014 45.7275 51.4016 45.7322 51.4042C45.7308 51.4002 45.7294 51.3961 45.728 51.3921ZM45.7216 51.001C45.7434 50.9949 45.7351 51.0221 45.7327 51.023C45.7178 51.0276 45.7037 51.0059 45.7216 51.001ZM45.7247 51.2318C45.726 51.2308 45.7328 51.2099 45.7207 51.2101C45.7115 51.2156 45.7088 51.2435 45.7247 51.2318ZM45.7334 51.4075C45.7313 51.4148 45.7133 51.4287 45.7402 51.4271C45.7402 51.4271 45.7402 51.4271 45.7402 51.4271C45.738 51.4205 45.7357 51.414 45.7334 51.4075ZM45.756 50.726C45.7989 50.7124 45.7447 50.7188 45.7308 50.7308C45.7501 50.7345 45.749 50.7282 45.756 50.726ZM45.788 50.6824C45.7957 50.6787 45.7872 50.6397 45.7645 50.6456C45.7564 50.6477 45.7768 50.6701 45.7753 50.6712C45.7729 50.6727 45.7478 50.6656 45.7528 50.6776C45.7613 50.6769 45.7854 50.6837 45.788 50.6824ZM45.7834 50.7147C45.8161 50.7012 45.7559 50.6982 45.7557 50.7083C45.7556 50.7123 45.7787 50.7166 45.7834 50.7147ZM45.7783 50.7699C45.784 50.765 45.7923 50.7521 45.7723 50.7432C45.7706 50.7551 45.7689 50.7671 45.7672 50.779C45.7785 50.7804 45.7733 50.7742 45.7783 50.7699C45.7783 50.7699 45.7783 50.7699 45.7783 50.7699ZM45.8685 53.7788C45.8856 53.768 45.8921 53.7928 45.8879 53.7938C45.874 53.7969 45.8609 53.7836 45.8685 53.7788ZM46.27 49.63C46.2768 49.627 46.2992 49.6251 46.2875 49.6185C46.271 49.6251 46.2544 49.6317 46.2379 49.6383C46.2758 49.6435 46.2625 49.6333 46.27 49.63ZM46.4083 49.6048C46.4093 49.6057 46.4675 49.6006 46.4286 49.6127C46.4024 49.6208 46.3768 49.5766 46.4026 49.5686C46.4146 49.5774 46.4009 49.5968 46.4083 49.6048ZM46.6603 49.5272C46.6649 49.5267 46.6718 49.5435 46.6685 49.5455C46.6512 49.5557 46.6354 49.53 46.6603 49.5272ZM46.6492 49.5809C46.6605 49.573 46.6678 49.5905 46.6613 49.5957C46.6505 49.5962 46.6476 49.5821 46.6492 49.5809ZM46.7116 53.67C46.7511 53.6615 46.666 53.6539 46.6831 53.667C46.6839 53.6676 46.7096 53.6704 46.7116 53.67ZM46.719 49.5437C46.7077 49.5516 46.7004 49.5341 46.7069 49.5289C46.7178 49.5284 46.7207 49.5425 46.719 49.5437ZM46.8058 53.664C46.8343 53.6527 46.7387 53.6567 46.7349 53.6581C46.7197 53.6639 46.7572 53.684 46.7665 53.688C46.7522 53.6581 46.7924 53.6694 46.8058 53.664ZM46.7484 53.6117C46.7383 53.6012 46.7188 53.6281 46.7454 53.6332C46.7441 53.628 46.7514 53.6147 46.7484 53.6117ZM46.7791 53.5479C46.7825 53.5422 46.7907 53.5254 46.7757 53.5226C46.7784 53.5287 46.7636 53.5455 46.7791 53.5479ZM46.8241 53.5351C46.8446 53.5262 46.785 53.5241 46.8028 53.5343C46.8035 53.5347 46.823 53.5354 46.8241 53.5351ZM46.8456 53.4853C46.8693 53.4795 46.8116 53.4729 46.8101 53.4823C46.8097 53.4851 46.8429 53.486 46.8456 53.4853ZM46.9086 53.6498C46.9188 53.6415 46.8775 53.6308 46.873 53.6486C46.8667 53.6423 46.8603 53.6361 46.854 53.6299C46.8309 53.6531 46.8881 53.6514 46.8858 53.6581C46.8824 53.6674 46.8352 53.6667 46.8203 53.6648C46.8493 53.6724 46.8498 53.7049 46.8553 53.7237C46.8674 53.7072 46.8885 53.6804 46.8962 53.6641C46.8984 53.6595 46.8854 53.655 46.8869 53.651C46.8893 53.6447 46.9079 53.6503 46.9086 53.6499C46.9086 53.6499 46.9086 53.6498 46.9086 53.6498ZM46.8465 53.42C46.8733 53.4029 46.8154 53.4137 46.8257 53.4234C46.8265 53.4238 46.8458 53.4204 46.8465 53.42ZM46.8949 49.5211C46.8707 49.5438 46.8387 49.5273 46.8874 49.5749C46.8529 49.5549 46.8626 49.5738 46.8487 49.5699C46.8377 49.5668 46.8468 49.555 46.8246 49.5619C46.8487 49.5529 46.8421 49.5139 46.846 49.5122C46.846 49.5122 46.846 49.5122 46.846 49.5122C46.8483 49.5112 46.9026 49.5138 46.8949 49.5211ZM46.9305 53.5478C47.0007 53.5421 46.8892 53.5399 46.9474 53.5287C46.8629 53.5138 46.9474 53.5698 46.876 53.5766C46.8843 53.5158 46.8053 53.6168 46.9121 53.5743C46.8734 53.6093 46.9254 53.5858 46.939 53.5912C46.9535 53.5969 46.9377 53.6167 46.9639 53.6157C46.9639 53.6157 46.9639 53.6157 46.9639 53.6157C46.9621 53.6036 46.9602 53.5915 46.9584 53.5794C46.902 53.5912 46.9189 53.5665 46.9649 53.5581C46.9534 53.5547 46.9419 53.5512 46.9305 53.5478ZM46.8775 53.6163C46.8788 53.6151 46.8709 53.5888 46.8595 53.5905C46.8523 53.594 46.861 53.6313 46.8775 53.6163ZM46.8898 53.7321C46.8899 53.7226 46.901 53.708 46.8797 53.7029C46.8795 53.7123 46.8685 53.7269 46.8898 53.7321ZM46.8938 53.2455C46.8764 53.2335 46.8712 53.2705 46.8919 53.2598C46.8929 53.2593 46.8947 53.2461 46.8938 53.2455ZM46.9198 53.5204C46.9413 53.5081 46.873 53.5139 46.8908 53.523C46.8918 53.5235 46.9189 53.5209 46.9198 53.5204ZM46.9032 49.5395C46.92 49.5403 46.9082 49.5734 46.9084 49.5793C46.8928 49.5759 46.884 49.5386 46.9032 49.5395ZM46.9524 53.7487C47.0126 53.7299 46.9431 53.7044 46.9446 53.7016C46.9462 53.6988 46.9725 53.7032 46.9732 53.7026C46.9747 53.7011 46.9725 53.6715 46.9706 53.67C46.9692 53.669 46.9322 53.6744 46.9206 53.6683C46.9416 53.6802 46.9284 53.7344 46.9325 53.7372C46.9358 53.7393 46.9746 53.7229 46.9524 53.7487C46.9524 53.7487 46.9524 53.7487 46.9524 53.7487ZM46.9527 53.6946C46.9372 53.702 46.9352 53.6813 46.941 53.6762C46.9538 53.6651 46.9545 53.6937 46.9527 53.6946ZM46.967 53.6447C46.9704 53.6423 46.9736 53.6209 46.9563 53.6191C46.934 53.6292 46.9589 53.6501 46.967 53.6447ZM46.9646 53.4066C46.9624 53.4011 46.9757 53.3858 46.9606 53.3849C46.9628 53.3905 46.9496 53.4058 46.9646 53.4066ZM47.0348 49.6523C47.0475 49.6431 47.0526 49.6645 47.0466 49.6707C47.0365 49.671 47.0338 49.6531 47.0348 49.6523ZM47.064 53.5183C47.0686 53.515 47.0572 53.4479 47.0501 53.4385C47.0387 53.4477 47.0378 53.5142 47.0434 53.5172C47.045 53.5181 47.0633 53.5187 47.064 53.5183ZM47.071 53.6635C47.0932 53.6696 47.0665 53.6736 47.0662 53.6744C47.0628 53.682 47.0678 53.6978 47.0464 53.6943C47.0551 53.6809 47.0269 53.6512 47.071 53.6635ZM47.0651 53.4019C47.0569 53.3791 47.0335 53.4228 47.0567 53.4171C47.0581 53.4167 47.066 53.4042 47.0651 53.4019ZM47.0705 53.5258C47.0884 53.5308 47.0729 53.598 47.0729 53.6087C47.0398 53.5991 47.065 53.5913 47.0633 53.5783C47.0628 53.5748 47.049 53.5758 47.049 53.5754C47.0484 53.5693 47.0643 53.5739 47.0645 53.5701C47.0646 53.5678 47.0452 53.5187 47.0705 53.5258ZM47.0863 53.667C47.0991 53.6707 47.1045 53.7126 47.1011 53.7143C47.076 53.7269 47.0819 53.6702 47.0863 53.667ZM47.0999 53.5196C47.1384 53.5269 47.1126 53.5602 47.0934 53.5374C47.0917 53.5352 47.1084 53.526 47.0999 53.5196ZM47.1017 53.4043C47.1029 53.4032 47.1105 53.3794 47.0983 53.379C47.0936 53.3824 47.0893 53.4171 47.1017 53.4043ZM47.1431 53.4166C47.1428 53.416 47.1193 53.4216 47.1222 53.4105C47.1225 53.4095 47.149 53.4078 47.1393 53.3938C47.1373 53.391 47.1198 53.3866 47.1187 53.3869C47.0771 53.4015 47.1568 53.4454 47.1431 53.4166ZM47.1078 53.6677C47.119 53.6655 47.1522 53.6709 47.1354 53.6758C47.1282 53.6779 47.1082 53.674 47.1078 53.6677ZM47.1125 53.329C47.1326 53.3428 47.1364 53.2994 47.1313 53.2972C47.1187 53.2986 47.1105 53.3276 47.1125 53.329ZM47.1904 49.6739C47.1904 49.6739 47.1904 49.6739 47.1904 49.6739C47.1858 49.6855 47.169 49.6783 47.1685 49.6788C47.1439 49.7036 47.1818 49.697 47.1863 49.7009C47.196 49.7092 47.1499 49.7079 47.169 49.7219C47.1407 49.6987 47.1526 49.7198 47.1362 49.7204C47.0691 49.723 47.1675 49.6896 47.1535 49.6781C47.1515 49.6765 47.1302 49.6884 47.1241 49.6842C47.1044 49.6708 47.2078 49.6293 47.1904 49.6739ZM47.1384 53.6796C47.158 53.685 47.1389 53.7259 47.1227 53.7151C47.1201 53.7133 47.1097 53.6717 47.1384 53.6796ZM47.1674 51.7697C47.1844 51.7795 47.2045 51.7568 47.1912 51.7525C47.1846 51.7505 47.1599 51.7654 47.1674 51.7697ZM47.2403 51.61C47.2368 51.5984 47.1658 51.5861 47.1768 51.6006C47.178 51.6021 47.2304 51.6114 47.2403 51.61ZM47.2038 52.3768C47.2292 52.3646 47.182 52.3653 47.1827 52.3742C47.1829 52.3774 47.203 52.3771 47.2038 52.3768ZM47.1977 51.9114C47.1993 51.9102 47.1963 51.8961 47.1855 51.8966C47.179 51.9018 47.1864 51.9193 47.1977 51.9114ZM47.2105 52.3806C47.202 52.3734 47.1679 52.3858 47.2012 52.3947C47.1985 52.3902 47.2114 52.3814 47.2105 52.3806ZM47.2042 53.4945C47.1848 53.4884 47.1906 53.4713 47.1873 53.4614C47.2124 53.4604 47.1996 53.4874 47.2042 53.4945ZM47.2117 51.6596C47.194 51.6486 47.1796 51.6722 47.2029 51.6701C47.2042 51.6698 47.2125 51.66 47.2117 51.6596ZM47.2131 52.7701C47.1981 52.7621 47.178 52.7876 47.2043 52.7806C47.2053 52.7802 47.2139 52.7705 47.2131 52.7701ZM47.2044 52.8815C47.2094 52.8754 47.2079 52.8494 47.1933 52.8595C47.191 52.8611 47.1907 52.881 47.2044 52.8815ZM47.2044 49.7016C47.2302 49.6983 47.224 49.7174 47.2195 49.7201C47.2177 49.7212 47.1709 49.7059 47.2044 49.7016ZM47.2078 52.2976C47.2046 52.2913 47.2107 52.2749 47.1972 52.272C47.2 52.2797 47.1809 52.2996 47.2078 52.2976ZM47.2118 51.71C47.2399 51.7004 47.2371 51.6839 47.2005 51.688C47.2029 51.7062 47.2334 51.6858 47.2118 51.71ZM47.2407 52.4213C47.2428 52.4162 47.2076 52.4123 47.206 52.4129C47.1902 52.4184 47.227 52.4263 47.2407 52.4213ZM47.2117 52.0416C47.2267 52.0414 47.2199 52.0251 47.2103 52.0273C47.207 52.028 47.1996 52.0419 47.2117 52.0416ZM47.2127 53.2821C47.2264 53.2747 47.2398 53.2973 47.2238 53.3041C47.2007 53.3073 47.2111 53.283 47.2127 53.2821ZM47.2319 52.5615C47.2542 52.5623 47.2416 52.5369 47.2231 52.5469C47.2184 52.5494 47.2244 52.5613 47.2319 52.5615ZM47.2586 52.8042C47.232 52.7872 47.2131 52.8586 47.2463 52.8398C47.2486 52.8385 47.2608 52.8057 47.2586 52.8042ZM47.242 52.9208C47.2449 52.9178 47.3198 52.9193 47.2909 52.9314C47.2872 52.933 47.2674 52.9256 47.2629 52.9269C47.2603 52.9277 47.2498 52.9541 47.2515 52.9553C47.2535 52.9566 47.2775 52.955 47.2802 52.9564C47.2832 52.9579 47.2621 52.9741 47.2619 52.9826C47.2615 52.9986 47.2815 53.0004 47.2815 53.0017C47.2817 53.0055 47.2675 53.012 47.2675 53.0197C47.2677 53.0589 47.2846 53.1187 47.2422 53.1498C47.2593 53.1222 47.2412 53.0958 47.2356 53.0684C47.2774 53.0764 47.2035 53.0279 47.2516 53.0563C47.2412 53.0432 47.2328 52.9304 47.242 52.9208C47.242 52.9208 47.242 52.9208 47.242 52.9208ZM47.2613 51.564C47.2869 51.5711 47.2811 51.5343 47.2515 51.5312C47.2474 51.5361 47.2584 51.5631 47.2613 51.564ZM47.3237 51.7338C47.3281 51.7372 47.3781 51.7404 47.3527 51.7583C47.3527 51.7584 47.3527 51.7584 47.3527 51.7584C47.3453 51.7636 47.3331 51.7577 47.3288 51.7586C47.327 51.759 47.3021 51.7753 47.2981 51.7617C47.292 51.741 47.3353 51.7598 47.3359 51.7488C47.3359 51.7474 47.3089 51.7265 47.3029 51.7277C47.3022 51.7279 47.3079 51.7341 47.3055 51.7352C47.2962 51.7391 47.2806 51.7372 47.2798 51.7377C47.2779 51.7396 47.3045 51.7726 47.2813 51.7774C47.2738 51.779 47.2565 51.7247 47.2604 51.7226C47.2629 51.7213 47.3062 51.7218 47.3105 51.7205C47.3126 51.7198 47.2964 51.6979 47.3003 51.6951C47.3015 51.6943 47.3027 51.6937 47.3038 51.6932C47.2904 51.6965 47.2913 51.6767 47.3065 51.6774C47.3124 51.6777 47.309 51.6913 47.3079 51.6918C47.3075 51.692 47.3069 51.6922 47.3065 51.6923C47.3228 51.6895 47.3221 51.7356 47.3464 51.7256C47.3597 51.739 47.3107 51.7237 47.3237 51.7338ZM47.3504 51.7979C47.3458 51.7965 47.3413 51.7951 47.3367 51.7938C47.3479 51.8171 47.3259 51.8441 47.3261 51.871C47.3261 51.8778 47.354 51.87 47.3464 51.8789C47.3403 51.8861 47.3144 51.894 47.3086 51.8901C47.3072 51.8892 47.324 51.8746 47.3223 51.8673C47.3172 51.8457 47.2933 51.8511 47.2927 51.8499C47.292 51.8485 47.3088 51.8349 47.308 51.8275C47.3061 51.8089 47.2914 51.8003 47.3106 51.7749C47.3264 51.7896 47.3606 51.7815 47.3504 51.7979ZM47.2995 52.6686C47.3145 52.6695 47.3012 52.6848 47.3034 52.6903C47.2883 52.6894 47.3017 52.6741 47.2995 52.6686ZM47.319 50.3907C47.2943 50.386 47.2882 50.4212 47.3088 50.4119C47.3133 50.4099 47.3188 50.3951 47.319 50.3907ZM47.304 50.5488C47.3108 50.5535 47.3286 50.5345 47.3095 50.5346C47.3034 50.5346 47.3031 50.5482 47.304 50.5488ZM47.3261 52.0998C47.3269 52.1007 47.3214 52.1137 47.3201 52.1141C47.2939 52.1227 47.3091 52.0801 47.3261 52.0998ZM47.3344 50.741C47.3182 50.7245 47.3112 50.7739 47.3318 50.7588C47.3328 50.7581 47.3352 50.7417 47.3344 50.741ZM47.3389 50.8096C47.3381 50.8057 47.3461 50.7882 47.3386 50.788C47.3264 50.7876 47.3181 50.8076 47.3389 50.8096ZM47.3339 52.4247C47.3617 52.4228 47.3407 52.4458 47.3442 52.4538C47.3163 52.4557 47.3374 52.4327 47.3339 52.4247ZM47.3544 52.2793C47.3764 52.3764 47.3169 52.355 47.3409 52.2735C47.3587 52.2734 47.353 52.2732 47.3544 52.2793ZM47.3511 52.4036C47.3333 52.4001 47.3386 52.3891 47.34 52.3816C47.3524 52.383 47.3479 52.3983 47.3511 52.4036ZM47.3572 50.3488C47.3797 50.3549 47.352 50.3818 47.3427 50.377C47.3407 50.3759 47.3449 50.3465 47.3572 50.3488ZM47.3499 52.108C47.377 52.1057 47.3659 52.1349 47.3599 52.1371C47.3358 52.1461 47.3559 52.1103 47.3499 52.108ZM47.3577 52.5625C47.3789 52.5676 47.368 52.5823 47.3677 52.5917C47.3496 52.5874 47.3573 52.5705 47.3577 52.5625ZM47.3743 52.4946C47.3751 52.4952 47.3732 52.5083 47.3722 52.5089C47.3516 52.5196 47.3569 52.4825 47.3743 52.4946ZM47.3939 49.6578C47.3945 49.6582 47.3932 49.6682 47.3924 49.6685C47.372 49.6774 47.3762 49.6476 47.3939 49.6578Z" fill="black"/>
<path d="M13.5613 73.7797C12.1338 76.5157 8.56503 86.6273 12.1338 89.1254C16.11 91.9087 23.3159 86.0325 26.7657 81.2741" stroke="black"/>
<path d="M56.3866 42.9636C57.3383 41.5361 59.884 39.1093 62.4535 40.8223" stroke="black" stroke-width="2" stroke-linecap="round"/>
<path d="M85.1755 69.9216C83.2481 66.6524 83.1294 60.1809 83.3843 57.3957C83.4101 57.1138 83.6726 56.9204 83.9517 56.9675L97.8609 59.3168C98.1548 59.3665 98.3409 59.6598 98.2519 59.9443C97.004 63.9371 94.3046 68.8702 91.213 70.9379C89.9646 71.7728 88.6523 72.1405 87.3458 71.7904C86.4466 71.5494 85.7349 70.8704 85.1755 69.9216Z" fill="#E2C89E"/>
<path d="M85.1755 69.9216C83.2481 66.6524 83.1294 60.1809 83.3843 57.3957C83.4101 57.1138 83.6726 56.9204 83.9517 56.9675L97.8609 59.3168C98.1548 59.3665 98.3409 59.6598 98.2519 59.9443C97.004 63.9371 94.3046 68.8702 91.213 70.9379M85.1755 69.9216C85.7349 70.8704 86.4466 71.5494 87.3458 71.7904C88.6523 72.1405 89.9646 71.7728 91.213 70.9379M85.1755 69.9216L86.062 67.7003L87.4973 64.8996M91.213 70.9379L91.459 68.4825L91.3391 65.021" stroke="black"/>
<mask id="mask1_159_103" style="mask-type:alpha" maskUnits="userSpaceOnUse" x="82" y="55" width="18" height="18">
<path d="M85.1755 69.9215C83.2481 66.6523 83.1294 60.1808 83.3843 57.3956C83.4101 57.1137 83.6726 56.9203 83.9517 56.9675L97.8609 59.3168C98.1548 59.3664 98.3409 59.6597 98.2519 59.9443C97.004 63.9371 94.3046 68.8702 91.213 70.9378C89.9646 71.7727 88.6523 72.1404 87.3458 71.7903C86.4466 71.5494 85.7349 70.8703 85.1755 69.9215Z" fill="#E2C89E"/>
<path d="M85.1755 69.9215C83.2481 66.6523 83.1294 60.1808 83.3843 57.3956C83.4101 57.1137 83.6726 56.9203 83.9517 56.9675L97.8609 59.3168C98.1548 59.3664 98.3409 59.6597 98.2519 59.9443C97.004 63.9371 94.3046 68.8702 91.213 70.9378M85.1755 69.9215C85.7349 70.8703 86.4466 71.5494 87.3458 71.7903C88.6523 72.1404 89.9646 71.7727 91.213 70.9378M85.1755 69.9215L86.062 67.7002L87.4973 64.8995M91.213 70.9378L91.459 68.4825L91.3391 65.021" stroke="black" stroke-width="2"/>
</mask>
<g mask="url(#mask1_159_103)">
<path d="M87.7366 56.8604C84.2734 61.0162 77.4496 58.4506 79.6578 54.7078C79.7961 54.4732 80.0019 54.2918 80.2386 54.1571C86.7983 50.424 100.075 46.997 103.439 61.8567C101.155 66.4247 95.5879 66.853 95.5879 60.0723C92.0191 65.4255 86.666 62.9273 87.7366 56.8604Z" fill="white" stroke="black" stroke-linecap="round"/>
</g>
<path d="M79.8585 54.3C77.0035 58.2256 84.141 61.0807 87.7098 56.7981C86.6392 62.8651 91.9923 65.3632 95.5611 60.01C95.5611 66.7907 101.128 66.3625 103.412 61.7944" stroke="black" stroke-linecap="round"/>
<ellipse cx="32.4758" cy="49.512" rx="4.63941" ry="2.14127" fill="url(#paint0_radial_159_103)"/>
<ellipse cx="60.3123" cy="49.512" rx="4.63941" ry="2.14127" fill="url(#paint1_radial_159_103)"/>
<defs>
<radialGradient id="paint0_radial_159_103" cx="0" cy="0" r="1" gradientUnits="userSpaceOnUse" gradientTransform="translate(32.4758 49.512) rotate(90) scale(2.14127 4.63941)">
<stop stop-color="#E97979" stop-opacity="0.8"/>
<stop offset="1" stop-color="#E97979" stop-opacity="0"/>
</radialGradient>
<radialGradient id="paint1_radial_159_103" cx="0" cy="0" r="1" gradientUnits="userSpaceOnUse" gradientTransform="translate(60.3123 49.512) rotate(90) scale(2.14127 4.63941)">
<stop stop-color="#E97979" stop-opacity="0.8"/>
<stop offset="1" stop-color="#E97979" stop-opacity="0"/>
</radialGradient>
</defs>
</svg>
