<svg width="57" height="23" viewBox="0 0 57 23" fill="none" xmlns="http://www.w3.org/2000/svg">
<path d="M9.71481 2.60844C11.8348 2.1592 18.4371 9.83547 20.776 9.97267C20.8191 9.9752 20.8596 9.96902 20.9012 9.95739C22.1524 9.60786 23.0718 8.81241 23.833 8.50997C24.6679 8.17823 25.6387 7.41738 26.4802 8.00203C26.5222 8.03118 26.5597 8.07027 26.5832 8.11566C27.2209 9.34949 22.4609 10.8398 25.4017 11.6744C25.9429 11.828 26.7124 11.5498 27.4214 11.1936C27.8922 10.957 30.0923 8.86708 30.3987 8.43844C31.7428 6.55818 33.856 3.96099 34.9413 3.53146C34.9814 3.51558 35.0157 3.49948 35.0522 3.47652C36.6631 2.46498 42.8266 0.462781 45.2241 1.13522C46.6428 1.5331 33.6368 7.6875 32.5482 10.4666C32.5362 10.4972 32.5209 10.5281 32.5058 10.5573C31.6543 12.2121 39.9026 10.0714 44 9.51001C46.2817 9.19739 47.696 9.74788 45.2241 10.7678C42.8416 11.6588 37.1987 11.9886 36.5543 13.842C36.532 13.9063 36.4977 13.9682 36.4725 14.0314C36.0569 15.0741 42.8801 15.0741 45.2241 15.0741C45.9921 15.0741 55.4115 16.2955 55.9073 17.5292C55.9178 17.5553 55.9272 17.5836 55.9373 17.6098C56.7872 19.8038 46.5507 17.4604 44 17.01C41.4494 16.5596 33.1069 13.974 32.5419 16.3871C32.5349 16.4173 32.5314 16.4503 32.5342 16.4812C32.6383 17.6059 36.4744 17.5423 36.9891 19.7836C36.9966 19.8163 37 19.8509 37 19.8846C36.9982 21.0347 36.9273 21.8716 35.6694 21.9869C32.7032 22.2589 32.2113 19.2566 30.5 18.01C29.2414 17.2826 27.669 17.4861 26.3355 17.7315C25.9395 17.8044 25.7509 18.3575 25.7771 18.7592C25.8057 19.1967 25.6134 19.6363 25.1165 19.8338C24.5556 20.0566 24.8219 21.5942 23.8821 21.7533C23.8512 21.7586 23.8194 21.7656 23.7887 21.7724L23.7852 21.7732C23.1557 21.9124 23.1073 20.6618 22.5145 20.5256C22.445 20.5097 22.3725 20.532 22.3049 20.5547C21.584 20.7963 23.3232 18.8916 21.6494 18.0761C21.5546 18.0299 21.4442 18.0227 21.3433 18.0532C19.4793 18.6155 19.0889 20.5137 17.7008 20.5137C16.3147 20.5137 18.3782 18.1483 19.5944 17.193C19.6616 17.1402 19.7175 17.0736 19.7443 16.9925C19.9516 16.3661 19.6954 15.5917 19.2135 15.1482C19.1582 15.0974 19.09 15.0645 19.0158 15.0531C17.3682 14.7987 13.8939 16.6808 12.5 18.01C11.2165 19.2339 4.63799 21.5563 3.15486 19.3805C1.67174 17.2046 11.2835 15.0741 13.1374 15.0741C14.3014 15.0741 16.7555 14.5149 17.5215 13.2274C17.654 13.0048 17.5134 12.7389 17.2708 12.6479C15.7891 12.092 15.4418 11.9279 14.5 12.51C13.7049 13.0014 13 13.01 12 12.8076C11.5448 12.7155 9.86088 11.5299 12 10.51C14.1391 9.49006 14.4209 10.7678 16.1322 10.7678C16.9698 10.7678 17.217 10.6557 17.4223 10.3921C17.5924 10.1736 17.5135 9.84984 17.2829 9.69643L15.5 8.50997C14.5 8.00997 11.5 6.38966 10 5.50997C8.5 4.63029 9.40028 2.67509 9.71481 2.60844Z" fill="#EE6164" stroke="#EE6164" stroke-linecap="round"/>
<circle cx="27.5" cy="3.5" r="1.5" fill="#EE6164"/>
<ellipse cx="8" cy="10.5" rx="1" ry="0.5" fill="#EE6164"/>
<ellipse cx="48.5" cy="7" rx="1.5" ry="1" fill="#EE6164"/>
<circle cx="20.5" cy="22.5" r="0.5" fill="#EE6164"/>
<circle cx="0.5" cy="17.5" r="0.5" fill="#EE6164"/>
<circle cx="53.5" cy="20.5" r="0.5" fill="#EE6164"/>
</svg>
