<svg width="35" height="18" viewBox="0 0 35 18" fill="none" xmlns="http://www.w3.org/2000/svg">
<path d="M5.89961 2.24289C7.17466 1.89909 11.1195 7.71378 12.5751 7.92875C12.6288 7.93669 12.681 7.92641 12.7319 7.90738C13.4719 7.63049 14.019 7.03284 14.4733 6.80316C14.9748 6.54962 15.557 5.97172 16.0641 6.39619C16.1017 6.42764 16.1326 6.46813 16.1495 6.51413C16.4992 7.46446 13.6498 8.60699 15.4259 9.24839C15.4472 9.25606 15.469 9.26233 15.4913 9.26729C16.0298 9.38676 18.7255 6.27628 19.0115 5.8046C19.7621 4.56639 20.6612 3.2688 21.1898 2.97179C21.2326 2.94773 21.2723 2.92443 21.3111 2.89432C22.326 2.10682 26.0197 0.589132 27.4637 1.10449C28.3247 1.41173 20.4379 6.16106 19.7673 8.31063C19.759 8.33715 19.7485 8.36402 19.7383 8.38985C19.2352 9.65988 24.2351 8.00918 26.7203 7.57591C28.106 7.33435 28.9649 7.75972 27.4637 8.54784C26.0198 9.23492 22.6041 9.49015 22.2012 10.9146C22.1854 10.9701 22.1612 11.0241 22.1461 11.0798C21.9313 11.8755 26.0462 11.8755 27.4637 11.8755C27.9349 11.8755 33.7684 12.8387 33.959 13.802C34.5652 15.5534 28.2792 13.7216 26.7203 13.3714C25.1718 13.0234 20.1076 11.0263 19.7623 12.8887C19.7579 12.9127 19.7556 12.9392 19.7575 12.9635C19.822 13.8316 22.1491 13.7833 22.4625 15.5133C22.4673 15.5394 22.4694 15.5669 22.4694 15.5934C22.4682 16.4818 22.425 17.1281 21.6613 17.2172C19.86 17.4273 19.5613 15.1074 18.5221 14.1441C17.8187 13.6269 16.954 13.7187 16.1895 13.8845C15.8321 13.9619 15.6593 14.435 15.6556 14.8007C15.6523 15.112 15.5314 15.4125 15.2527 15.5534C14.9181 15.7225 15.0683 16.8722 14.5325 17.0292L14.5237 17.0318C14.4879 17.0423 14.4514 17.0531 14.4147 17.0583C14.0821 17.1059 14.0289 16.3004 13.7342 16.116C13.6598 16.0694 13.5709 16.1263 13.4831 16.1267C13.2321 16.1278 14.0503 14.871 13.2318 14.253C13.1266 14.1736 12.9843 14.1634 12.8644 14.2181C11.815 14.6964 11.5677 16.0788 10.7494 16.0788C9.91629 16.0788 11.1351 14.2885 11.8763 13.5359C11.9319 13.4795 11.9772 13.4131 11.9958 13.3361C12.107 12.8747 11.968 12.3159 11.7011 11.9734C11.6486 11.906 11.5731 11.8604 11.4884 11.8496C10.4659 11.7189 8.42106 13.1369 7.591 14.1441C6.81158 15.0898 2.81656 16.8844 1.91588 15.2031C1.01521 13.5218 6.85225 11.8755 7.97808 11.8755C8.67322 11.8755 10.1261 11.4575 10.6165 10.4975C10.7223 10.2903 10.5998 10.054 10.3899 9.95363C9.5721 9.5624 9.35607 9.46112 8.80556 9.89407C8.32271 10.2738 7.89464 10.2804 7.28736 10.1241C7.01094 10.0529 5.98832 9.13674 7.28736 8.34862C8.58641 7.5605 8.75751 8.54784 9.79674 8.54784C10.2784 8.54784 10.4386 8.47019 10.5601 8.28901C10.6907 8.09414 10.6219 7.82691 10.4428 7.6753L9.41284 6.80316C8.80556 6.4168 6.98372 5.16474 6.0728 4.48498C5.16188 3.80522 5.70861 2.29439 5.89961 2.24289Z" fill="#EE6164" stroke="#EE6164" stroke-linecap="round"/>
<ellipse cx="16.7002" cy="2.9318" rx="0.910921" ry="1.15909" fill="#EE6164"/>
<ellipse cx="4.85826" cy="8.34095" rx="0.60728" ry="0.386364" fill="#EE6164"/>
<ellipse cx="29.4531" cy="5.63637" rx="0.910921" ry="0.772727" fill="#EE6164"/>
<ellipse cx="12.4492" cy="17.6137" rx="0.30364" ry="0.386364" fill="#EE6164"/>
<ellipse cx="0.30364" cy="13.75" rx="0.30364" ry="0.386364" fill="#EE6164"/>
<ellipse cx="32.4895" cy="16.0681" rx="0.30364" ry="0.386364" fill="#EE6164"/>
</svg>
