<svg width="46" height="77" viewBox="0 0 46 77" fill="none" xmlns="http://www.w3.org/2000/svg">
<path d="M37 27C23.5 27 19 22 19 0C19 21 17 26.5 0 26.5C17 26.5 19 37.5 19 53C19 36.5 20 27 37 27Z" fill="black" stroke="black"/>
<path d="M46 62.283C39.0676 62.283 36.7568 59.4528 36.7568 47C36.7568 58.8868 35.7297 62 27 62C35.7297 62 36.7568 68.2264 36.7568 77C36.7568 67.6604 37.2703 62.283 46 62.283Z" fill="black" stroke="black"/>
<path d="M13 56.1698C8.98649 56.1698 7.64865 54.4717 7.64865 47C7.64865 54.1321 7.05406 56 2 56C7.05406 56 7.64865 59.7358 7.64865 65C7.64865 59.3962 7.94595 56.1698 13 56.1698Z" fill="black" stroke="black"/>
</svg>
