<svg width="189" height="109" viewBox="0 0 189 109" fill="none" xmlns="http://www.w3.org/2000/svg">
<path d="M8.00006 1H1.00006V8C10 8 11.5 17 1.00006 21V28C11.0001 28 8.00006 41 1.00006 41V48C10.0001 48 8.00006 61 1.00006 61V68C10.5001 68 8.00006 81 1.00006 81V88C14.5001 88 8.00006 101 1.00006 101V108H8.00006C8.00006 100.5 22.5001 101.5 21.0001 108H28.0001C29.0001 101 41.0001 102.5 41.0001 108H48.0001C48.0001 101.5 61.0001 102 61.0001 108H68.0001C68.0001 99 81.0001 101 81.0001 108H88.0001C88.0001 100 101 101 101 108H108C108 100 121 100 121 108H128C128 100 141 101 141 108H148C148 101 161 101 161 108H168C169 101 181 101 181 108H188V101C179 101 179 88 188 88V81C179 81 179 68 188 68V61C179 61 179 48 188 48V41C179 41 179 28 188 28V21C179 21 179 8 188 8V1H181C181 9.5 168 9 168 1H161C161 8 148 8 148 1H141C141 8 128 9.5 128 1H121C121 9.5 108 10 108 1H101C101 9 88.0001 9.5 88.0001 1H81.0001C81.0001 8 68.0001 8 68.0001 1H61.0001C61.0001 8 48.0001 10 48.0001 1H41.0001C41.0001 8 28.0001 9.5 28.0001 1H21.0001C21.0001 9.5 8.00006 8.83954 8.00006 1Z" fill="white" stroke="black"/>
</svg>
