<svg width="120" height="127" viewBox="0 0 120 127" fill="none" xmlns="http://www.w3.org/2000/svg">
<path d="M23 59C23 61.2091 21.2091 63 19 63C16.7909 63 15 61.2091 15 59C15 56.7909 16.7909 55 19 55C21.2091 55 23 56.7909 23 59Z" fill="black"/>
<path d="M20.4805 55.5C23.0572 55.5001 25.862 56.1548 28.0088 57.2061C29.0819 57.7316 29.9679 58.3459 30.5791 59.0049C31.1897 59.6633 31.5 60.3367 31.5 61C31.5 61.6633 31.1897 62.3367 30.5791 62.9951C29.9679 63.6541 29.0819 64.2684 28.0088 64.7939C25.862 65.8452 23.0572 66.4999 20.4805 66.5C17.9011 66.5 14.8494 65.8436 12.4541 64.7852C11.2564 64.2559 10.2488 63.6374 9.54883 62.9727C8.8459 62.305 8.5 61.6381 8.5 61C8.5 60.3619 8.8459 59.695 9.54883 59.0273C10.2488 58.3626 11.2564 57.7441 12.4541 57.2148C14.8494 56.1564 17.9011 55.5 20.4805 55.5Z" stroke="black"/>
<path d="M58 59C58 61.2091 56.2091 63 54 63C51.7909 63 50 61.2091 50 59C50 56.7909 51.7909 55 54 55C56.2091 55 58 56.7909 58 59Z" fill="black"/>
<path d="M55.4805 55.5C58.0572 55.5001 60.862 56.1548 63.0088 57.2061C64.0819 57.7316 64.9679 58.3459 65.5791 59.0049C66.1897 59.6633 66.5 60.3367 66.5 61C66.5 61.6633 66.1897 62.3367 65.5791 62.9951C64.9679 63.6541 64.0819 64.2684 63.0088 64.7939C60.862 65.8452 58.0572 66.4999 55.4805 66.5C52.9011 66.5 49.8494 65.8436 47.4541 64.7852C46.2564 64.2559 45.2488 63.6374 44.5488 62.9727C43.8459 62.305 43.5 61.6381 43.5 61C43.5 60.3619 43.8459 59.695 44.5488 59.0273C45.2488 58.3626 46.2564 57.7441 47.4541 57.2148C49.8494 56.1564 52.9011 55.5 55.4805 55.5Z" stroke="black"/>
<ellipse cx="53.9526" cy="43.2429" rx="12.5" ry="4" transform="rotate(-27.0246 53.9526 43.2429)" fill="black"/>
<ellipse cx="21.0373" cy="42.3398" rx="12.5" ry="4" transform="rotate(11.1402 21.0373 42.3398)" fill="black"/>
<path d="M43.2833 73.2203C38.5971 63.681 34.5082 70.0673 33.0495 74.4529L38.7649 77.893L43.2833 73.2203Z" stroke="black" stroke-width="3"/>
<path d="M44 18.5C68.0409 18.5 87.5 37.3202 87.5 60.5C87.5 83.6798 68.0409 102.5 44 102.5C19.9591 102.5 0.5 83.6798 0.5 60.5C0.5 37.3202 19.9591 18.5 44 18.5Z" stroke="black"/>
<path d="M31.6648 101.045L30.3365 110.956L21.7483 107.283L27.3273 114.589L18.8669 117.49L29.2738 118.885L30.7554 126.651L33.5704 116.939L35.6294 101.576" stroke="black"/>
<path d="M70.9735 93.3308L76.6601 101.557L67.8353 104.618L76.8783 106.268L72.5723 114.108L81.2093 108.137L87.5307 112.885L83.078 103.806L74.2638 91.0562" stroke="black"/>
<path d="M27.5 21.5C25.3333 16.1667 21.9 6.1 25.5 8.5C29.1 10.9 30.3333 13.1667 30.5 14C28.5 9 25.4 -0.499997 29 1.5C32.6 3.5 36.1667 11.3333 37.5 15C36.5 9.83333 35.1 0.399997 37.5 4C39.9 7.6 45.8333 16 47 19" stroke="black"/>
<path d="M76.5 56.5C79.5 52.3333 83.5 48.4 89.5 54C95.5 46 103.5 50.6667 104.5 54H106.5C104.667 50 103.3 41.2 106.5 38L104.5 25.5C99 30 95 23 98.5 19L108 20.5L118.5 59.5C115 62 109.3 65.9 104.5 61.5C95.5 66.5 91.5 63 89.5 61.5L81 70" stroke="black"/>
</svg>
