<svg width="21" height="25" viewBox="0 0 21 25" fill="none" xmlns="http://www.w3.org/2000/svg">
<path d="M6.58737 3.45388L7.24701 4.65799C7.29089 4.73809 7.37495 4.78788 7.46627 4.78788H15.3906C15.4383 4.78788 15.485 4.77424 15.5252 4.74856L16.6344 4.03987C16.8552 3.89885 16.738 3.55642 16.4771 3.58023L13.6067 3.84221C13.4995 3.85199 13.3981 3.79213 13.355 3.6936L12.7275 2.2618C12.6667 2.12323 12.4978 2.06993 12.3685 2.14858L9.65156 3.80176C9.59202 3.83799 9.52006 3.84772 9.45304 3.8286L6.87519 3.09335C6.66175 3.03247 6.48073 3.25922 6.58737 3.45388Z" fill="#4CB030" stroke="#75AC65" stroke-width="3" stroke-linecap="round"/>
<ellipse cx="10.5" cy="14.5454" rx="10.5" ry="10.4546" fill="#EE6164"/>
<path d="M3.5 12.4546C2.60003 16.1137 3.64 19.9122 7.7 21.1667" stroke="#F4ABAC" stroke-width="3" stroke-linecap="round"/>
<ellipse cx="5.42501" cy="9.4924" rx="1.225" ry="1.2197" fill="#F4ABAC"/>
</svg>
